<?xml version="1.0" encoding="utf-8"?>
<!-- Generator: Adobe Illustrator 16.0.4, SVG Export Plug-In . SVG Version: 6.00 Build 0)  -->
<!DOCTYPE svg PUBLIC "-//W3C//DTD SVG 1.1//EN" "http://www.w3.org/Graphics/SVG/1.1/DTD/svg11.dtd">
<svg version="1.1" id="Layer_1" xmlns="http://www.w3.org/2000/svg" xmlns:xlink="http://www.w3.org/1999/xlink" x="0px" y="0px"
	 width="56.693px" height="56.693px" viewBox="0 0 56.693 56.693" enable-background="new 0 0 56.693 56.693" xml:space="preserve">
<g>
	<path fill="#474A56" d="M53.46,19.876c0-1.35-1.18-2.531-2.531-2.532l-28.355-0.005c-1.395-0.001-2.529,1.134-2.53,2.53
		l0.004,18.12c0.001,0.676,0.265,1.312,0.743,1.791s1.114,0.742,1.79,0.742l28.354,0.006c1.396,0,2.531-1.135,2.531-2.531
		L53.46,19.876z M22.818,37.753l-0.004-17.646l27.876,0.006l0.004,17.646L22.818,37.753z"/>
	<path fill="#474A56" d="M45.88,23.002l-9.234,7.17l-9.015-7.189c-0.271-0.217-0.61-0.315-0.956-0.278
		c-0.344,0.04-0.654,0.21-0.869,0.48c-0.414,0.517-0.372,1.259,0.096,1.727l9.926,7.928c0.229,0.18,0.516,0.281,0.809,0.283
		c0.293,0,0.576-0.1,0.795-0.275l10.043-7.793c0.273-0.212,0.449-0.52,0.492-0.863c0.043-0.345-0.051-0.687-0.264-0.961
		C47.257,22.659,46.438,22.569,45.88,23.002z M26.263,24.552l-0.01,0.008L26.263,24.552L26.263,24.552z"/>
	<path fill="#474A56" d="M17.417,19.371c-0.001-0.552-0.447-0.999-0.999-0.999L4.527,18.37c-0.552-0.001-0.998,0.445-0.998,0.998
		c0,0.275,0.112,0.525,0.293,0.705c0.18,0.181,0.43,0.293,0.705,0.292l11.893,0.003C16.97,20.368,17.417,19.921,17.417,19.371z"/>
	<path fill="#474A56" d="M17.417,25.359c0-0.551-0.446-0.998-0.998-0.997l-6.768-0.003c-0.55,0-0.996,0.446-0.997,0.998
		c0.001,0.275,0.112,0.525,0.292,0.706c0.181,0.181,0.43,0.292,0.706,0.293l6.768,0.001C16.972,26.358,17.418,25.912,17.417,25.359z
		"/>
	<path fill="#474A56" d="M16.421,30.349h-3.096c-0.553,0-0.999,0.447-0.998,0.998c0,0.275,0.111,0.525,0.293,0.705
		c0.18,0.182,0.43,0.293,0.705,0.293h3.097c0.551,0,0.997-0.445,0.997-0.998C17.419,30.796,16.973,30.349,16.421,30.349z"/>
</g>
</svg>
