<?xml version="1.0" encoding="utf-8"?>
<!-- Generator: Adobe Illustrator 17.0.0, SVG Export Plug-In . SVG Version: 6.00 Build 0)  -->
<!DOCTYPE svg PUBLIC "-//W3C//DTD SVG 1.1//EN" "http://www.w3.org/Graphics/SVG/1.1/DTD/svg11.dtd">
<svg version="1.1" id="Layer_1" xmlns="http://www.w3.org/2000/svg" xmlns:xlink="http://www.w3.org/1999/xlink" x="0px" y="0px"
	 width="56.693px" height="56.693px" viewBox="0 0 56.693 56.693" enable-background="new 0 0 56.693 56.693" xml:space="preserve">
<g>
	<path fill="#474A56" d="M38.479,18.701l-5.977,3.308c9.259,0.627,14.207,3.232,14.207,4.383c0,1.314-6.442,4.525-18.385,4.525
		c-11.943,0-18.387-3.212-18.387-4.525c0-0.801,2.41-2.305,6.991-3.357l-3.245-3.285c-4.57,1.393-7.746,3.581-7.746,6.643
		c0,1.318,0.592,2.473,1.625,3.474v16.974c0,0.549,0.299,1.024,0.738,1.285c2.528,3.562,11.164,5.427,19.771,5.463
		c0.083,0.012,0.166,0.025,0.252,0.025c0.086,0,0.169-0.014,0.252-0.025c10.233-0.043,20.508-2.672,20.508-7.662v-16.06
		c1.033-1.001,1.625-2.155,1.625-3.474C50.709,22.402,45.322,19.895,38.479,18.701z M29.858,34.897
		c4.194-0.099,8.422-0.6,11.966-1.535c0.151,0.435,0.346,0.86,0.571,1.192l-6.625,6.554l-6.474-4.88
		C29.527,35.841,29.719,35.361,29.858,34.897z M14.825,33.362c3.543,0.936,7.771,1.437,11.965,1.535
		c0.139,0.461,0.33,0.938,0.559,1.324l-6.531,4.833l-6.568-6.491C14.476,34.231,14.672,33.8,14.825,33.362z M13.393,46.503
		c-0.486,0-0.926,0.487-1.245,1.073c-1.038-0.602-1.585-1.19-1.585-1.651V31.848c0.358,0.171,0.733,0.336,1.123,0.492
		c0.207,1.138,0.892,2.843,1.707,2.843c0.018,0,0.034-0.007,0.052-0.008l6.559,6.482l-6.565,4.856
		C13.423,46.513,13.408,46.503,13.393,46.503z M26.779,50.564c-5.013-0.125-8.942-0.839-11.67-1.722
		c-0.112-0.535-0.396-1.239-0.783-1.738l6.398-4.734l6.736,6.658C27.175,49.447,26.939,50.018,26.779,50.564z M28.396,48.404
		c-0.023-0.003-0.047-0.011-0.071-0.011c-0.024,0-0.048,0.008-0.072,0.011l-6.716-6.638l6.503-4.812
		c0.093,0.045,0.188,0.075,0.285,0.075c0.095,0,0.188-0.029,0.278-0.072l6.449,4.861L28.396,48.404z M41.538,48.842
		c-2.727,0.883-6.657,1.597-11.67,1.722c-0.159-0.546-0.395-1.116-0.68-1.537l6.67-6.599l6.369,4.802
		C41.889,47.717,41.641,48.351,41.538,48.842z M46.084,45.925c0,0.461-0.547,1.05-1.584,1.651c-0.32-0.586-0.759-1.073-1.244-1.073
		c-0.086,0-0.168,0.032-0.25,0.061l-6.429-4.847l6.614-6.544c0.021,0.002,0.043,0.01,0.064,0.01c0.815,0,1.498-1.705,1.705-2.843
		c0.391-0.156,0.765-0.32,1.123-0.491V45.925z"/>
	<path fill="#474A56" d="M52.213,5.62l-0.396-0.633c-0.322-0.514-0.875-0.797-1.441-0.797c-0.295,0-0.594,0.078-0.865,0.238
		l-19.697,11.69c-0.191-0.048-0.389-0.081-0.596-0.081c-1.35,0-2.441,1.094-2.441,2.443c0,1.352,1.092,2.443,2.441,2.443
		c1.139,0,2.085-0.778,2.358-1.831L51.598,8.011c0.408-0.227,0.705-0.609,0.822-1.062C52.537,6.495,52.463,6.015,52.213,5.62z"/>
	<path fill="#474A56" d="M23.021,24.932C23.019,24.967,23.01,25,23.01,25.036c0,1.35,1.092,2.441,2.441,2.441
		c1.352,0,2.445-1.092,2.445-2.441c0-1.308-1.029-2.368-2.323-2.433L9.881,5.733C9.563,5.392,9.119,5.194,8.651,5.19
		c-0.004,0-0.01,0-0.014,0c-0.463,0-0.904,0.188-1.225,0.521L6.895,6.249C6.254,6.913,6.26,7.968,6.908,8.624L23.021,24.932z"/>
</g>
</svg>
