<?xml version="1.0" encoding="utf-8"?>
<!-- Generator: Adobe Illustrator 17.0.0, SVG Export Plug-In . SVG Version: 6.00 Build 0)  -->
<!DOCTYPE svg PUBLIC "-//W3C//DTD SVG 1.1//EN" "http://www.w3.org/Graphics/SVG/1.1/DTD/svg11.dtd">
<svg version="1.1" id="Layer_1" xmlns="http://www.w3.org/2000/svg" xmlns:xlink="http://www.w3.org/1999/xlink" x="0px" y="0px"
	 width="56.693px" height="56.693px" viewBox="0 0 56.693 56.693" enable-background="new 0 0 56.693 56.693" xml:space="preserve">
<g>
	<path fill="#474A56" d="M51.35,13.865H14.896c-1.027,0-1.859,0.832-1.859,1.859v36.454c0,1.027,0.832,1.859,1.859,1.859H51.35
		c1.026,0,1.858-0.832,1.858-1.859V15.724C53.209,14.697,52.377,13.865,51.35,13.865z M49.492,50.32H16.755V17.583h32.737V50.32z"/>
	<path fill="#474A56" d="M25.13,46.202c1.002,0,2.078-0.357,3.029-1.007c0.138-0.093,0.26-0.2,0.385-0.302
		c0.06-0.045,0.119-0.09,0.178-0.139c0.059-0.052,0.117-0.104,0.175-0.156c0.046-0.043,0.096-0.082,0.142-0.129
		c1.316-1.282,1.834-2.939,1.322-4.135V29.593l9.7-2.996v9.02c-0.073,0.004-0.146,0.017-0.218,0.026
		c-0.101-0.009-0.202-0.017-0.308-0.017c-1.002,0-2.077,0.359-3.029,1.008c-0.935,0.639-1.654,1.496-2.023,2.414
		c-0.414,1.025-0.348,2.057,0.177,2.827c0.527,0.771,1.425,1.195,2.526,1.195c1.001,0,2.077-0.358,3.028-1.007
		c0.937-0.639,1.654-1.496,2.024-2.414c0.113-0.283,0.188-0.567,0.229-0.846c0.178-0.665,0.171-1.314-0.063-1.865V23.355
		c0-0.031-0.001-0.06-0.006-0.091v-0.436c0-0.283-0.133-0.551-0.361-0.719c-0.228-0.169-0.521-0.218-0.795-0.134l-12.617,3.897
		c-0.374,0.116-0.63,0.461-0.63,0.852c0,2.206,0.005,4.417,0.011,6.632c0.004,1.812,0.01,3.626,0.011,5.443
		c-0.174-0.024-0.352-0.042-0.536-0.042c-1.002,0-2.077,0.359-3.029,1.008c-0.934,0.639-1.654,1.497-2.024,2.413
		c-0.414,1.027-0.349,2.058,0.178,2.829C23.132,45.778,24.028,46.202,25.13,46.202z"/>
	<path fill="#474A56" d="M7.48,8.31h32.738v2.165h1.859h1.858V6.452c0-1.026-0.832-1.858-1.858-1.858H5.622
		c-1.026,0-1.858,0.832-1.858,1.858v36.454c0,1.027,0.832,1.859,1.858,1.859h4.026v-1.859v-1.858H7.48V8.31z"/>
</g>
</svg>
