<?xml version="1.0" encoding="utf-8"?>
<!-- Generator: Adobe Illustrator 17.0.0, SVG Export Plug-In . SVG Version: 6.00 Build 0)  -->
<!DOCTYPE svg PUBLIC "-//W3C//DTD SVG 1.1//EN" "http://www.w3.org/Graphics/SVG/1.1/DTD/svg11.dtd">
<svg version="1.1" id="Layer_1" xmlns="http://www.w3.org/2000/svg" xmlns:xlink="http://www.w3.org/1999/xlink" x="0px" y="0px"
	 width="56.693px" height="56.693px" viewBox="0 0 56.693 56.693" enable-background="new 0 0 56.693 56.693" xml:space="preserve">
<g>
	<path fill="#474A56" d="M52.969,30.449L27.489,5.214c-0.35-0.347-0.822-0.541-1.316-0.538L24.82,4.681L5.54,4.772
		c-0.168,0.003-0.335,0.026-0.494,0.07C4.995,4.857,4.953,4.885,4.903,4.904C4.855,4.922,4.808,4.941,4.763,4.963
		C4.566,5.056,4.381,5.167,4.226,5.326C3.88,5.674,3.685,6.15,3.687,6.645l0.1,20.632c0.002,0.491,0.202,0.963,0.55,1.314
		l25.479,25.232c0.163,0.161,0.354,0.274,0.552,0.362c0.049,0.023,0.1,0.042,0.149,0.06c0.191,0.067,0.389,0.109,0.59,0.111
		c0.012,0,0.022,0.005,0.036,0.005c0.163-0.002,0.329-0.024,0.488-0.068c0.045-0.012,0.087-0.04,0.132-0.058
		c0.047-0.017,0.094-0.036,0.137-0.057c0.198-0.09,0.385-0.204,0.548-0.368l20.531-20.728C53.706,32.351,53.699,31.17,52.969,30.449
		z M25.714,23.392c0.157-0.473,0.426-0.899,0.807-1.28l1.299-1.299c0.38-0.38,0.807-0.649,1.279-0.807
		c0.473-0.157,0.952-0.21,1.437-0.157c0.486,0.052,0.965,0.197,1.437,0.433c0.473,0.237,0.913,0.558,1.319,0.965
		c0.394,0.394,0.709,0.827,0.945,1.299c0.236,0.473,0.38,0.952,0.433,1.438c0.052,0.485-0.003,0.961-0.167,1.427
		c-0.164,0.466-0.436,0.89-0.817,1.27l-1.299,1.299c-0.38,0.381-0.804,0.653-1.27,0.817c-0.466,0.164-0.942,0.219-1.427,0.167
		c-0.486-0.053-0.964-0.197-1.437-0.434c-0.473-0.236-0.905-0.551-1.299-0.945c-0.407-0.407-0.728-0.846-0.965-1.319
		c-0.236-0.473-0.38-0.952-0.433-1.437C25.504,24.344,25.556,23.864,25.714,23.392z M17.873,18.839
		c-0.269,0.271-0.568,0.491-0.879,0.684c-0.096,0.058-0.194,0.104-0.293,0.156c-0.229,0.119-0.466,0.22-0.707,0.297
		c-0.109,0.036-0.216,0.073-0.324,0.099c-0.316,0.079-0.639,0.128-0.962,0.14c-0.039,0.001-0.08,0.012-0.119,0.011
		c-0.359,0.003-0.719-0.046-1.073-0.124c-0.101-0.023-0.197-0.056-0.298-0.086c-0.263-0.077-0.519-0.178-0.765-0.302
		c-0.1-0.05-0.198-0.096-0.295-0.154c-0.322-0.192-0.633-0.411-0.915-0.686c-1.839-1.822-1.853-4.79-0.03-6.628
		c0.268-0.272,0.569-0.491,0.881-0.684c0.092-0.059,0.19-0.103,0.287-0.154c0.231-0.119,0.468-0.221,0.712-0.3
		c0.109-0.036,0.215-0.071,0.325-0.098c0.314-0.078,0.636-0.127,0.961-0.137c0.039-0.001,0.079-0.012,0.118-0.013
		c0.361-0.002,0.722,0.045,1.076,0.125c0.1,0.023,0.196,0.057,0.294,0.086c0.265,0.078,0.521,0.178,0.772,0.304
		c0.096,0.049,0.194,0.093,0.288,0.151c0.323,0.192,0.637,0.412,0.915,0.69C19.679,14.034,19.696,17.003,17.873,18.839z
		 M35.508,39.683c-0.164,0.465-0.437,0.889-0.817,1.27l-1.299,1.299c-0.381,0.381-0.804,0.653-1.27,0.817
		c-0.466,0.164-0.938,0.223-1.417,0.177c-0.479-0.046-0.955-0.187-1.427-0.423c-0.472-0.236-0.912-0.558-1.319-0.965
		c-0.407-0.407-0.729-0.847-0.965-1.319c-0.236-0.472-0.381-0.952-0.433-1.437c-0.053-0.486,0.003-0.961,0.167-1.427
		c0.164-0.466,0.436-0.889,0.817-1.27l1.299-1.299c0.381-0.38,0.804-0.653,1.27-0.817c0.465-0.164,0.941-0.22,1.427-0.167
		c0.485,0.052,0.964,0.197,1.437,0.433c0.472,0.236,0.912,0.558,1.319,0.964c0.407,0.407,0.729,0.847,0.964,1.319
		c0.236,0.472,0.377,0.948,0.423,1.427C35.731,38.744,35.672,39.217,35.508,39.683z M40.429,29.8
		c-0.165,0.308-0.404,0.502-0.719,0.581l-17.166,4.961c-0.341,0.105-0.693,0.075-1.054-0.089c-0.361-0.164-0.62-0.469-0.777-0.915
		c-0.145-0.46-0.141-0.85,0.01-1.171c0.151-0.322,0.397-0.535,0.738-0.64l17.206-4.921c0.314-0.105,0.649-0.073,1.004,0.098
		c0.354,0.171,0.61,0.493,0.767,0.965C40.596,29.114,40.593,29.491,40.429,29.8z"/>
	<path fill="#474A56" d="M31.679,36.661c-0.381-0.027-0.722,0.111-1.024,0.413l-1.142,1.142c-0.302,0.302-0.44,0.643-0.414,1.023
		c0.026,0.381,0.184,0.715,0.473,1.004c0.275,0.275,0.607,0.429,0.994,0.462c0.387,0.033,0.731-0.102,1.034-0.404l1.142-1.142
		c0.302-0.302,0.436-0.646,0.404-1.033c-0.033-0.388-0.188-0.719-0.463-0.995C32.394,36.844,32.059,36.687,31.679,36.661z"/>
	<path fill="#474A56" d="M29.553,26.424c0.38,0.026,0.721-0.111,1.023-0.414l1.142-1.142c0.302-0.302,0.44-0.643,0.414-1.023
		c-0.027-0.381-0.177-0.709-0.453-0.985c-0.302-0.302-0.644-0.466-1.024-0.492c-0.38-0.026-0.722,0.112-1.024,0.414l-1.142,1.142
		c-0.302,0.302-0.44,0.642-0.414,1.023c0.026,0.38,0.19,0.722,0.492,1.023C28.844,26.247,29.172,26.397,29.553,26.424z"/>
</g>
</svg>
