<?xml version="1.0" encoding="utf-8"?>
<!-- Generator: Adobe Illustrator 17.0.0, SVG Export Plug-In . SVG Version: 6.00 Build 0)  -->
<!DOCTYPE svg PUBLIC "-//W3C//DTD SVG 1.1//EN" "http://www.w3.org/Graphics/SVG/1.1/DTD/svg11.dtd">
<svg version="1.1" id="Layer_1" xmlns="http://www.w3.org/2000/svg" xmlns:xlink="http://www.w3.org/1999/xlink" x="0px" y="0px"
	 width="56.693px" height="56.693px" viewBox="0 0 56.693 56.693" enable-background="new 0 0 56.693 56.693" xml:space="preserve">
<g>
	<path fill="#474A56" d="M43.416,4.507H13.278c-1.959,0-3.552,1.594-3.552,3.551v42.579c0,1.956,1.593,3.55,3.552,3.55h30.138
		c1.958,0,3.552-1.594,3.552-3.55V8.058C46.967,6.101,45.374,4.507,43.416,4.507z M43.307,8.168v42.358H13.386V8.168H43.307z"/>
	<path fill="#474A56" d="M17.966,18.434h20.898c0.338,0,0.613-0.275,0.613-0.614v-3.922c0-0.339-0.275-0.613-0.613-0.613H17.966
		c-0.338,0-0.611,0.274-0.611,0.613v3.922C17.355,18.158,17.628,18.434,17.966,18.434z"/>
	<path fill="#474A56" d="M26.151,27.287h-2.724v-2.767c0-0.226-0.098-0.428-0.292-0.607c-0.195-0.183-0.464-0.27-0.81-0.27
		c-0.332,0-0.588,0.087-0.777,0.27c-0.189,0.18-0.281,0.382-0.281,0.607v2.767H18.34c-0.242,0-0.455,0.095-0.643,0.285
		c-0.185,0.186-0.28,0.444-0.28,0.774c0,0.301,0.095,0.544,0.28,0.732c0.188,0.185,0.4,0.281,0.643,0.281h2.926v2.586
		c0,0.349,0.092,0.614,0.281,0.801c0.19,0.188,0.445,0.284,0.777,0.284c0.347,0,0.615-0.096,0.81-0.284
		c0.194-0.187,0.292-0.452,0.292-0.801V29.36h2.724c0.361,0,0.638-0.096,0.834-0.281c0.195-0.189,0.292-0.432,0.292-0.732
		c0-0.33-0.097-0.589-0.292-0.774C26.789,27.382,26.512,27.287,26.151,27.287z"/>
	<path fill="#474A56" d="M38.361,27.287H30.55c-0.241,0-0.455,0.095-0.642,0.285c-0.188,0.186-0.28,0.444-0.28,0.774
		c0,0.301,0.093,0.544,0.28,0.732c0.186,0.185,0.4,0.281,0.642,0.281h7.811c0.362,0,0.638-0.096,0.834-0.281
		c0.194-0.189,0.293-0.432,0.293-0.732c0-0.33-0.099-0.589-0.293-0.774C38.999,27.382,38.723,27.287,38.361,27.287z"/>
	<path fill="#474A56" d="M26.27,38.421c0.004-0.271-0.099-0.516-0.312-0.727c-0.232-0.234-0.486-0.348-0.755-0.341
		c-0.27,0.004-0.533,0.134-0.79,0.388l-1.925,1.927l-1.957-1.96c-0.16-0.156-0.373-0.229-0.64-0.221
		c-0.265,0.01-0.518,0.14-0.762,0.381c-0.233,0.237-0.354,0.483-0.358,0.741c-0.006,0.261,0.071,0.47,0.231,0.632l1.957,1.954
		l-2.07,2.072c-0.17,0.167-0.254,0.386-0.254,0.653c0,0.265,0.117,0.511,0.351,0.744c0.214,0.212,0.451,0.319,0.718,0.321
		c0.264-0.002,0.482-0.086,0.652-0.256l2.068-2.071l1.83,1.832c0.246,0.244,0.499,0.368,0.763,0.364
		c0.269,0.004,0.518-0.112,0.751-0.347c0.244-0.244,0.37-0.504,0.373-0.771c0.004-0.271-0.114-0.531-0.359-0.773l-1.828-1.831
		l1.925-1.928C26.133,38.952,26.263,38.689,26.27,38.421z"/>
	<path fill="#474A56" d="M37.601,39.855h-6.29c-0.24,0-0.454,0.093-0.642,0.282c-0.187,0.186-0.28,0.445-0.28,0.775
		c0,0.301,0.094,0.543,0.28,0.734c0.188,0.185,0.401,0.279,0.642,0.279h6.29c0.36,0,0.64-0.095,0.833-0.279
		c0.194-0.191,0.294-0.434,0.294-0.734c0-0.33-0.1-0.59-0.294-0.775C38.241,39.948,37.961,39.855,37.601,39.855z"/>
	<circle fill="#474A56" cx="34.557" cy="37.847" r="1.298"/>
	<circle fill="#474A56" cx="34.556" cy="43.934" r="1.299"/>
</g>
</svg>
