<?xml version="1.0" encoding="utf-8"?>
<!-- Generator: Adobe Illustrator 17.0.0, SVG Export Plug-In . SVG Version: 6.00 Build 0)  -->
<!DOCTYPE svg PUBLIC "-//W3C//DTD SVG 1.1//EN" "http://www.w3.org/Graphics/SVG/1.1/DTD/svg11.dtd">
<svg version="1.1" id="Layer_1" xmlns="http://www.w3.org/2000/svg" xmlns:xlink="http://www.w3.org/1999/xlink" x="0px" y="0px"
	 width="56.693px" height="56.693px" viewBox="0 0 56.693 56.693" enable-background="new 0 0 56.693 56.693" xml:space="preserve">
<g>
	<path fill="#474A56" d="M28.642,35.929c-2.294,0-4.152,1.859-4.152,4.15s1.858,4.149,4.152,4.149c2.29,0,4.149-1.858,4.149-4.149
		S30.932,35.929,28.642,35.929z"/>
	<path fill="#474A56" d="M39.435,4.497H17.846c-1.89,0-3.437,1.547-3.437,3.438v42.938c0,1.893,1.547,3.438,3.437,3.438h21.589
		c1.894,0,3.439-1.545,3.439-3.438V7.935C42.875,6.044,41.329,4.497,39.435,4.497z M28.642,50.754
		c-5.896,0-10.675-4.781-10.675-10.675c0-5.895,4.778-10.674,10.675-10.674c5.893,0,10.675,4.779,10.675,10.674
		C39.317,45.973,34.536,50.754,28.642,50.754z M39.317,23.331c0,1.385-1.134,2.516-2.516,2.516h-16.32
		c-1.384,0-2.515-1.131-2.515-2.516v-12.76c0-1.383,1.131-2.516,2.515-2.516h16.32c1.382,0,2.516,1.133,2.516,2.516V23.331z"/>
</g>
</svg>
