<?xml version="1.0" encoding="utf-8"?>
<!-- Generator: Adobe Illustrator 17.0.0, SVG Export Plug-In . SVG Version: 6.00 Build 0)  -->
<!DOCTYPE svg PUBLIC "-//W3C//DTD SVG 1.1//EN" "http://www.w3.org/Graphics/SVG/1.1/DTD/svg11.dtd">
<svg version="1.1" id="Layer_1" xmlns="http://www.w3.org/2000/svg" xmlns:xlink="http://www.w3.org/1999/xlink" x="0px" y="0px"
	 width="56.693px" height="56.693px" viewBox="0 0 56.693 56.693" enable-background="new 0 0 56.693 56.693" xml:space="preserve">
<g>
	<path fill="#474A56" d="M10.12,39.891c0.67,0,1.213-0.546,1.213-1.215l-0.002-2.335h15.911v2.573c0,0.668,0.542,1.212,1.211,1.212
		c0.67,0,1.212-0.544,1.212-1.212v-2.573h15.911v2.336c0,0.668,0.543,1.212,1.214,1.212c0.669,0,1.21-0.544,1.21-1.212v-3.545
		c0-0.671-0.541-1.213-1.209-1.213H29.666v-2.93c0-0.003-0.001-0.006-0.001-0.012V30.4c0-0.669-0.541-1.211-1.21-1.211
		c-0.671,0-1.213,0.542-1.213,1.211v3.515l-17.124,0.004c-0.67,0-1.21,0.543-1.21,1.213v3.544
		C8.908,39.345,9.45,39.891,10.12,39.891z"/>
	<path fill="#474A56" d="M16.964,26.328h22.979c1.099,0,1.989-0.891,1.989-1.989V6.856c0-1.099-0.891-1.989-1.989-1.989H16.964
		c-1.098,0-1.988,0.891-1.988,1.989v17.483C14.976,25.438,15.866,26.328,16.964,26.328z M18.953,8.844h19.001v13.507H18.953V8.844z"
		/>
	<path fill="#474A56" d="M15.854,43.358H4.788c-0.686,0-1.243,0.557-1.243,1.243v8.561c0,0.686,0.557,1.243,1.243,1.243h11.066
		c0.687,0,1.243-0.557,1.243-1.243v-8.561C17.097,43.915,16.54,43.358,15.854,43.358z M14.61,51.919H6.031v-6.074h8.579V51.919z"/>
	<path fill="#474A56" d="M33.879,43.358H22.814c-0.687,0-1.243,0.557-1.243,1.243v8.561c0,0.686,0.557,1.243,1.243,1.243h11.064
		c0.687,0,1.243-0.557,1.243-1.243v-8.561C35.122,43.915,34.565,43.358,33.879,43.358z M32.636,51.919h-8.578v-6.074h8.578V51.919z"
		/>
	<path fill="#474A56" d="M51.905,43.358H40.84c-0.686,0-1.243,0.557-1.243,1.243v8.561c0,0.686,0.557,1.243,1.243,1.243h11.065
		c0.686,0,1.243-0.557,1.243-1.243v-8.561C53.148,43.915,52.592,43.358,51.905,43.358z M50.662,51.919h-8.579v-6.074h8.579V51.919z"
		/>
</g>
</svg>
