<?xml version="1.0" encoding="utf-8"?>
<!-- Generator: Adobe Illustrator 17.0.0, SVG Export Plug-In . SVG Version: 6.00 Build 0)  -->
<!DOCTYPE svg PUBLIC "-//W3C//DTD SVG 1.1//EN" "http://www.w3.org/Graphics/SVG/1.1/DTD/svg11.dtd">
<svg version="1.1" id="Layer_1" xmlns="http://www.w3.org/2000/svg" xmlns:xlink="http://www.w3.org/1999/xlink" x="0px" y="0px"
	 width="56.693px" height="56.693px" viewBox="0 0 56.693 56.693" enable-background="new 0 0 56.693 56.693" xml:space="preserve">
<g>
	<path fill="#474A56" d="M51.139,6.501H5.556c-1.241,0-2.25,1.041-2.25,2.319v31.45c0,1.281,1.009,2.321,2.25,2.321h9.184
		l5.302-6.544H6.959V11.133c0-0.595,0.476-1.078,1.062-1.078h40.651c0.586,0,1.065,0.483,1.065,1.078v24.915h-13.1l5.302,6.544
		h9.199c1.239,0,2.249-1.04,2.249-2.321V8.821C53.388,7.542,52.378,6.501,51.139,6.501z"/>
	<path fill="#474A56" d="M29.953,32.564c-0.375-0.515-0.977-0.822-1.614-0.822c-0.642,0.001-1.239,0.308-1.614,0.822L13.389,49.025
		c-0.271,0.372-0.38,0.815-0.361,1.258v0.001c0.008,0.133,0.019,0.265,0.053,0.394c0.031,0.148,0.077,0.288,0.146,0.426
		c0.34,0.668,1.027,1.089,1.777,1.089l26.67-0.001c0.168,0,0.331-0.027,0.489-0.068c0.044-0.011,0.089-0.025,0.131-0.039
		c0.123-0.041,0.239-0.093,0.35-0.153c0.034-0.02,0.066-0.032,0.099-0.054c0.125-0.078,0.241-0.167,0.344-0.27
		c0.008-0.009,0.013-0.02,0.019-0.028c0.135-0.139,0.256-0.298,0.347-0.477c0.34-0.667,0.279-1.472-0.163-2.078L29.953,32.564z"/>
</g>
</svg>
