<?xml version="1.0" encoding="utf-8"?>
<!-- Generator: Adobe Illustrator 17.0.0, SVG Export Plug-In . SVG Version: 6.00 Build 0)  -->
<!DOCTYPE svg PUBLIC "-//W3C//DTD SVG 1.1//EN" "http://www.w3.org/Graphics/SVG/1.1/DTD/svg11.dtd">
<svg version="1.1" id="Layer_1" xmlns="http://www.w3.org/2000/svg" xmlns:xlink="http://www.w3.org/1999/xlink" x="0px" y="0px"
	 width="56.693px" height="56.693px" viewBox="0 0 56.693 56.693" enable-background="new 0 0 56.693 56.693" xml:space="preserve">
<g>
	<path fill="#474A56" d="M34.825,5.95c-0.563,0-1.022,0.457-1.022,1.022v8.181c-0.008-0.002-0.015-0.004-0.023-0.006
		c-0.106,0.475-0.606,0.837-1.209,0.837c-0.639,0-1.155-0.402-1.219-0.917h-0.014V6.971c0-0.564-0.458-1.022-1.022-1.022
		c-0.566,0-1.022,0.457-1.022,1.022v8.095h-0.013c-0.066,0.515-0.584,0.917-1.219,0.917c-0.605,0-1.104-0.362-1.209-0.837
		c-0.009,0.002-0.017,0.005-0.025,0.007V6.971c0-0.564-0.458-1.022-1.023-1.022c-0.564,0-1.021,0.457-1.021,1.022v10.067
		c0,0.011,0.006,0.02,0.006,0.029c-0.001,0.024-0.006,0.043-0.006,0.067v3.014c0,1.46,1.728,3.729,3.173,3.932v27.589
		c0,1.305,1.057,2.359,2.36,2.359c1.304,0,2.359-1.055,2.359-2.359V24.08c1.445-0.202,3.171-2.472,3.171-3.931v-3.014
		c0-0.024-0.005-0.042-0.006-0.066c0.001-0.011,0.006-0.021,0.006-0.031V6.971C35.849,6.407,35.39,5.95,34.825,5.95z"/>
	<path fill="#474A56" d="M13.689,4.618c-3.845,0-6.96,6.591-6.96,10.434c0,3.053,1.967,5.64,4.7,6.579v29.7
		c0,1.562,1.109,2.83,2.476,2.83c1.37,0,2.479-1.268,2.479-2.83V21.472c2.506-1.053,4.267-3.53,4.267-6.42
		C20.65,11.209,17.533,4.618,13.689,4.618z"/>
	<path fill="#474A56" d="M49.965,26.477L48.126,8.762c-0.226-2.509-1.201-3.656-3.237-3.656s-2.296,1.886-2.296,4.213v15.207
		c0,0.268,0.027,0.527,0.069,0.781v26.024c0,1.562,1.109,2.83,2.476,2.83c1.37,0,2.479-1.268,2.479-2.83V28.715
		C48.989,28.637,49.965,28.264,49.965,26.477z"/>
</g>
</svg>
