<?xml version="1.0" encoding="utf-8"?>
<!-- Generator: Adobe Illustrator 17.0.0, SVG Export Plug-In . SVG Version: 6.00 Build 0)  -->
<!DOCTYPE svg PUBLIC "-//W3C//DTD SVG 1.1//EN" "http://www.w3.org/Graphics/SVG/1.1/DTD/svg11.dtd">
<svg version="1.1" id="Layer_1" xmlns="http://www.w3.org/2000/svg" xmlns:xlink="http://www.w3.org/1999/xlink" x="0px" y="0px"
	 width="56.693px" height="56.693px" viewBox="0 0 56.693 56.693" enable-background="new 0 0 56.693 56.693" xml:space="preserve">
<g>
	<path fill="#474A56" d="M48.242,12.288l-7.275-7.171c-0.324-0.32-0.762-0.499-1.218-0.499H10.951c-0.959,0-1.735,0.777-1.735,1.735
		v46.426c0,0.959,0.776,1.736,1.735,1.736h36.071c0.961,0,1.737-0.777,1.737-1.736V13.523
		C48.759,13.059,48.572,12.614,48.242,12.288z M45.289,51.043H12.686V8.088h26.021v5.452c0,0.575,0.465,1.04,1.041,1.04h5.54V51.043
		z"/>
	<path fill="#474A56" d="M16.952,23.831v16.024c0,0.462,0.375,0.836,0.838,0.836h22.402c0.462,0,0.836-0.375,0.836-0.836V23.831
		c0-0.463-0.374-0.837-0.836-0.837H17.79C17.327,22.994,16.952,23.368,16.952,23.831z M18.624,24.666h20.733v14.353H18.624V24.666z"
		/>
	<circle fill="#474A56" cx="24.034" cy="29.387" r="1.968"/>
	<path fill="#474A56" d="M34.067,32.769l-2.994-4.259l-3.695,5.726c0,0-6.158-1.503-7.173,2.792h17.607l-2.175-6.441L34.067,32.769z
		"/>
</g>
</svg>
