<?xml version="1.0" encoding="utf-8"?>
<!-- Generator: Adobe Illustrator 17.0.0, SVG Export Plug-In . SVG Version: 6.00 Build 0)  -->
<!DOCTYPE svg PUBLIC "-//W3C//DTD SVG 1.1//EN" "http://www.w3.org/Graphics/SVG/1.1/DTD/svg11.dtd">
<svg version="1.1" id="Layer_1" xmlns="http://www.w3.org/2000/svg" xmlns:xlink="http://www.w3.org/1999/xlink" x="0px" y="0px"
	 width="56.693px" height="56.693px" viewBox="0 0 56.693 56.693" enable-background="new 0 0 56.693 56.693" xml:space="preserve">
<path fill="#474A56" d="M45.85,38.21c0.036-0.788-0.023-1.535-0.177-2.265c-0.319-1.848-1.066-3.8-1.856-5.861
	c-1.872-4.9-2.407-9.966,1.19-14.164c0.13-0.149,0.149-0.362,0.053-0.534c-0.097-0.172-0.293-0.267-0.485-0.231
	c-5.85,0.976-8.865,8.886-9.682,11.931c-2.688-5.118-3.139-14.654-3.139-22.389c0-0.168-0.091-0.324-0.239-0.406
	c-0.145-0.083-0.326-0.081-0.47,0.005c-4.617,2.772-6.899,9.429-7.802,13.986c-0.706,4.282-0.849,12.28-2.798,15.233
	c-0.026,0.01-0.052,0.022-0.076,0.031c-1.041-3.708-3.877-10.517-6.632-12.353c-0.727-0.484-1.479-0.985-2.179-1.512
	c-0.168-0.122-0.394-0.122-0.561,0c-0.166,0.123-0.231,0.341-0.16,0.536c1.31,3.6,0.87,7.815,0.445,11.891
	c-0.717,6.87-1.456,13.975,6.002,18.562c0.364,0.183,0.735,0.355,1.109,0.522c2.683,1.499,5.948,2.383,9.473,2.383
	c0.232,0,0.462-0.006,0.692-0.014c0.231,0.008,0.461,0.014,0.692,0.014c9.128,0,16.529-5.9,16.535-13.183
	C45.884,39.676,45.91,38.95,45.85,38.21"/>
</svg>
