<?xml version="1.0" encoding="utf-8"?>
<!-- Generator: Adobe Illustrator 17.0.0, SVG Export Plug-In . SVG Version: 6.00 Build 0)  -->
<!DOCTYPE svg PUBLIC "-//W3C//DTD SVG 1.1//EN" "http://www.w3.org/Graphics/SVG/1.1/DTD/svg11.dtd">
<svg version="1.1" id="Layer_1" xmlns="http://www.w3.org/2000/svg" xmlns:xlink="http://www.w3.org/1999/xlink" x="0px" y="0px"
	 width="56.693px" height="56.693px" viewBox="0 0 56.693 56.693" enable-background="new 0 0 56.693 56.693" xml:space="preserve">
<g>
	<path fill="#474A56" d="M14.587,9.798h-9.67c-0.812,0-1.471,0.656-1.471,1.469v41.297c0,0.812,0.658,1.471,1.471,1.471h9.67
		c0.809,0,1.469-0.658,1.469-1.471V11.267C16.056,10.454,15.396,9.798,14.587,9.798z"/>
	<path fill="#474A56" d="M33.183,28.025h-9.67c-0.811,0-1.465,0.656-1.465,1.469v23.07c0,0.812,0.654,1.471,1.465,1.471h9.67
		c0.811,0,1.471-0.658,1.471-1.471v-23.07C34.654,28.681,33.994,28.025,33.183,28.025z"/>
	<path fill="#474A56" d="M51.783,41.674h-9.67c-0.811,0-1.469,0.657-1.469,1.47v9.42c0,0.812,0.658,1.471,1.469,1.471h9.67
		c0.811,0,1.467-0.658,1.467-1.471v-9.42C53.25,42.331,52.593,41.674,51.783,41.674z"/>
	<path fill="#474A56" d="M43.393,24.354L42.5,25.247l-1.149,1.149c-0.04,0.04-0.07,0.085-0.099,0.131
		c-0.007,0.014-0.015,0.026-0.021,0.041c-0.019,0.037-0.035,0.077-0.046,0.118c-0.003,0.012-0.008,0.023-0.01,0.036
		c-0.011,0.047-0.017,0.095-0.017,0.143c0,0.005,0.001,0.008,0.001,0.012c0.001,0.066,0.01,0.131,0.031,0.193
		c0.077,0.237,0.28,0.412,0.526,0.451l9.625,3.351c0.21,0.033,0.423-0.036,0.573-0.185c0.15-0.15,0.219-0.363,0.187-0.573
		l-3.352-9.624c-0.024-0.151-0.102-0.282-0.211-0.381l0-0.001c-0.033-0.029-0.066-0.058-0.104-0.08
		c-0.042-0.027-0.085-0.05-0.134-0.066c-0.237-0.077-0.499-0.013-0.674,0.163l-2.042,2.041L28.327,4.909
		c-0.605-0.605-1.584-0.604-2.189,0c-0.604,0.604-0.605,1.584,0,2.189L43.393,24.354z"/>
</g>
</svg>
