<?xml version="1.0" encoding="utf-8"?>
<!-- Generator: Adobe Illustrator 17.0.0, SVG Export Plug-In . SVG Version: 6.00 Build 0)  -->
<!DOCTYPE svg PUBLIC "-//W3C//DTD SVG 1.1//EN" "http://www.w3.org/Graphics/SVG/1.1/DTD/svg11.dtd">
<svg version="1.1" id="Layer_1" xmlns="http://www.w3.org/2000/svg" xmlns:xlink="http://www.w3.org/1999/xlink" x="0px" y="0px"
	 width="56.693px" height="56.693px" viewBox="0 0 56.693 56.693" enable-background="new 0 0 56.693 56.693" xml:space="preserve">
<g>
	<path fill="#474A56" d="M51.387,6.127c-0.481-0.481-1.12-0.744-1.798-0.744c-0.679,0-1.316,0.264-1.796,0.744L5.903,48.016
		c-0.991,0.991-0.991,2.603,0,3.594c0.483,0.48,1.121,0.744,1.797,0.744c0.679,0,1.317-0.264,1.797-0.744L51.387,9.721
		C52.379,8.73,52.379,7.118,51.387,6.127z"/>
	<path fill="#474A56" d="M37.42,27.223c0.045,0.814-0.003,1.645-0.178,2.48c-0.223,1.07,0.461,2.118,1.531,2.342
		c1.071,0.225,2.118-0.461,2.342-1.532c0.48-2.298,0.343-4.584-0.297-6.687L37.42,27.223z"/>
	<path fill="#474A56" d="M29.825,18.366c0.584,0.122,1.141,0.302,1.674,0.521l2.964-2.964c-1.168-0.653-2.452-1.143-3.83-1.431
		c-1.068-0.224-2.116,0.462-2.343,1.533C28.069,17.094,28.756,18.143,29.825,18.366z"/>
	<path fill="#474A56" d="M31.894,8.467c2.598,0.543,4.964,1.583,7.032,2.992l2.84-2.839c-2.626-1.915-5.684-3.321-9.065-4.027
		c-1.066-0.224-2.113,0.462-2.338,1.532C30.138,7.194,30.824,8.242,31.894,8.467z"/>
	<path fill="#474A56" d="M45.534,19.109c1.861,3.799,2.538,8.211,1.608,12.663c-0.226,1.07,0.463,2.118,1.531,2.342
		c1.07,0.224,2.119-0.462,2.343-1.532c1.216-5.821,0.164-11.595-2.545-16.411L45.534,19.109z"/>
	<path fill="#474A56" d="M12.811,37.572l6.999-6.999c-0.271-0.49-0.534-0.99-0.776-1.504c-1.477-3.15-1.477-5.054-0.881-5.472
		l3.636-2.355c0.226-0.147,0.384-0.377,0.438-0.639c0.057-0.262,0.008-0.536-0.14-0.762L14.218,7.705
		c-0.146-0.226-0.376-0.384-0.639-0.439c-0.264-0.056-0.536-0.003-0.763,0.142L12.25,7.776c-1.025,0.665-3.073,1.995-3.127,2.031
		L8.995,9.893c-4.573,3.1-8.285,9.018,3.654,27.436C12.704,37.413,12.757,37.489,12.811,37.572z"/>
	<path fill="#474A56" d="M32.442,35.875c-0.3-0.458-0.908-0.594-1.38-0.307l-0.294,0.19c-0.802,0.519-3.103,2.007-3.326,2.143
		c-0.056,0.037-0.114,0.062-0.179,0.08c-0.165,0.045-0.365,0.03-0.582-0.02l-7.812,7.812c5.342,6.199,10.059,8.678,14.294,7.515
		l0.002,0c1.266-0.348,2.247-0.952,2.96-1.392l0.223-0.136c0.153-0.093,3.656-2.353,3.751-2.421
		c0.443-0.316,0.557-0.924,0.262-1.379L32.442,35.875z"/>
</g>
</svg>
