<?xml version="1.0" encoding="utf-8"?>
<!-- Generator: Adobe Illustrator 17.0.0, SVG Export Plug-In . SVG Version: 6.00 Build 0)  -->
<!DOCTYPE svg PUBLIC "-//W3C//DTD SVG 1.1//EN" "http://www.w3.org/Graphics/SVG/1.1/DTD/svg11.dtd">
<svg version="1.1" id="Layer_1" xmlns="http://www.w3.org/2000/svg" xmlns:xlink="http://www.w3.org/1999/xlink" x="0px" y="0px"
	 width="56.693px" height="56.693px" viewBox="0 0 56.693 56.693" enable-background="new 0 0 56.693 56.693" xml:space="preserve">
<g>
	<path fill="#474A56" d="M9.804,12.887c4.082-4.082,9.509-6.33,15.282-6.33c0,0,0.002,0,0.002,0c0,0,0,0,0.001,0
		c5.773,0,11.201,2.248,15.283,6.33c3.452,3.452,5.574,7.87,6.153,12.641h0.425h4.42c0.007,0,0.013,0,0.02-0.001
		c0.834,0.001,1.511,0.677,1.511,1.511c0,0.412-0.165,0.785-0.432,1.057l-7.052,9.709c-0.285,0.392-0.74,0.624-1.222,0.624
		c-0.484,0-0.938-0.232-1.222-0.622l-7.177-9.879c-0.334-0.46-0.383-1.068-0.125-1.574c0.258-0.506,0.778-0.824,1.346-0.825
		l3.094,0.001h1.365c-0.546-3.432-2.135-6.6-4.64-9.105c-3.138-3.138-7.31-4.866-11.748-4.866h0c-0.001,0-0.001,0-0.001,0
		c-4.438,0-8.609,1.729-11.748,4.866c-3.138,3.138-4.867,7.312-4.867,11.749c0,9.16,7.454,16.613,16.615,16.615
		c1.381,0,2.5,1.119,2.5,2.5c0,1.381-1.12,2.5-2.5,2.5C13.169,49.786,3.473,40.09,3.472,28.172
		C3.473,22.399,5.721,16.97,9.804,12.887z"/>
	<path fill="#474A56" d="M25.087,30.489l-2.442,2.443c-0.293,0.293-0.677,0.439-1.06,0.439c-0.384,0-0.768-0.146-1.061-0.439
		c-0.586-0.586-0.586-1.535,0-2.121l2.442-2.443l-2.442-2.442c-0.586-0.586-0.586-1.536,0-2.121c0.586-0.586,1.535-0.586,2.121,0
		l2.442,2.442l2.442-2.442c0.586-0.586,1.535-0.586,2.121,0c0.586,0.585,0.586,1.535,0,2.121l-2.442,2.442l2.442,2.443
		c0.586,0.586,0.586,1.535,0,2.121c-0.293,0.293-0.677,0.439-1.061,0.439c-0.384,0-0.768-0.146-1.061-0.439L25.087,30.489z"/>
</g>
</svg>
