<?xml version="1.0" encoding="utf-8"?>
<!-- Generator: Adobe Illustrator 17.0.0, SVG Export Plug-In . SVG Version: 6.00 Build 0)  -->
<!DOCTYPE svg PUBLIC "-//W3C//DTD SVG 1.1//EN" "http://www.w3.org/Graphics/SVG/1.1/DTD/svg11.dtd">
<svg version="1.1" id="Layer_1" xmlns="http://www.w3.org/2000/svg" xmlns:xlink="http://www.w3.org/1999/xlink" x="0px" y="0px"
	 width="56.693px" height="56.693px" viewBox="0 0 56.693 56.693" enable-background="new 0 0 56.693 56.693" xml:space="preserve">
<g>
	<path fill="#474A56" d="M47.458,12.288l-7.275-7.171c-0.324-0.32-0.762-0.499-1.218-0.499H10.167c-0.959,0-1.735,0.777-1.735,1.735
		v46.426c0,0.959,0.776,1.736,1.735,1.736h36.071c0.961,0,1.737-0.777,1.737-1.736V13.523
		C47.975,13.059,47.788,12.614,47.458,12.288z M44.505,51.043H11.902V8.088h26.022v5.452c0,0.575,0.465,1.04,1.041,1.04h5.54V51.043
		z"/>
	<path fill="#474A56" d="M32.471,29.734v3.264c0,0.314,0.186,0.598,0.472,0.725l6.612,2.932c0.103,0.046,0.212,0.068,0.32,0.068
		c0.151,0,0.304-0.043,0.435-0.128c0.225-0.146,0.359-0.396,0.359-0.665v-9.126c0-0.268-0.135-0.519-0.359-0.666
		c-0.226-0.146-0.511-0.168-0.755-0.059l-6.612,2.932C32.657,29.137,32.471,29.421,32.471,29.734z"/>
	<path fill="#474A56" d="M30.03,25.612H17.031c-0.498,0-0.902,0.403-0.902,0.901v9.704c0,0.498,0.404,0.902,0.902,0.902H30.03
		c0.497,0,0.902-0.404,0.902-0.902v-9.704C30.932,26.016,30.527,25.612,30.03,25.612z"/>
</g>
</svg>
