<?xml version="1.0" encoding="utf-8"?>
<!-- Generator: Adobe Illustrator 17.0.0, SVG Export Plug-In . SVG Version: 6.00 Build 0)  -->
<!DOCTYPE svg PUBLIC "-//W3C//DTD SVG 1.1//EN" "http://www.w3.org/Graphics/SVG/1.1/DTD/svg11.dtd">
<svg version="1.1" id="Layer_1" xmlns="http://www.w3.org/2000/svg" xmlns:xlink="http://www.w3.org/1999/xlink" x="0px" y="0px"
	 width="56.693px" height="56.693px" viewBox="0 0 56.693 56.693" enable-background="new 0 0 56.693 56.693" xml:space="preserve">
<g>
	<circle fill="#474A56" cx="17.484" cy="25.43" r="3.382"/>
	<path fill="#474A56" d="M34.72,31.239l-5.141-7.317l-6.35,9.839c0,0-10.584-2.583-12.326,4.795h30.254l-3.735-11.066L34.72,31.239z
		"/>
	<path fill="#474A56" d="M53.129,40.135l-4.805-24.879v-0.694c0-0.858-0.694-1.552-1.551-1.552h-8.176v-0.75
		c0-0.911-0.739-1.651-1.647-1.651c-0.91,0-1.651,0.74-1.651,1.651v0.75h-8.008v-0.75c0-0.911-0.74-1.651-1.65-1.651
		c-0.908,0-1.646,0.74-1.646,1.651v0.75h-8.009v-0.75c0-0.911-0.739-1.651-1.648-1.651c-0.91,0-1.65,0.74-1.65,1.651v0.75H5.22
		c-0.857,0-1.552,0.693-1.552,1.552v29.722c0,0.856,0.695,1.552,1.552,1.552h41.553c0.857,0,1.551-0.695,1.551-1.552v-2.335h3.523
		c0.007,0.001,0.014,0.001,0.019,0c0.743,0,1.346-0.603,1.346-1.347C53.212,40.438,53.182,40.282,53.129,40.135z M45.224,42.733
		H6.77V16.112h5.916v1.054c0,0.909,0.74,1.649,1.65,1.649c0.909,0,1.648-0.74,1.648-1.649v-1.054h8.009v1.054
		c0,0.909,0.738,1.649,1.646,1.649c0.91,0,1.65-0.74,1.65-1.649v-1.054h8.008v1.054c0,0.909,0.741,1.649,1.651,1.649
		c0.908,0,1.647-0.74,1.647-1.649v-1.054h6.627V42.733z"/>
</g>
</svg>
