<?xml version="1.0" encoding="utf-8"?>
<!-- Generator: Adobe Illustrator 17.0.0, SVG Export Plug-In . SVG Version: 6.00 Build 0)  -->
<!DOCTYPE svg PUBLIC "-//W3C//DTD SVG 1.1//EN" "http://www.w3.org/Graphics/SVG/1.1/DTD/svg11.dtd">
<svg version="1.1" id="Layer_1" xmlns="http://www.w3.org/2000/svg" xmlns:xlink="http://www.w3.org/1999/xlink" x="0px" y="0px"
	 width="56.693px" height="56.693px" viewBox="0 0 56.693 56.693" enable-background="new 0 0 56.693 56.693" xml:space="preserve">
<g>
	<path fill="#474A56" d="M35.801,45.541H7.437V17.177h4.014c-0.706-1.028-1.003-2.273-1.094-3.6h-2.92c-1.988,0-3.6,1.611-3.6,3.6
		v28.364c0,1.988,1.611,3.6,3.6,3.6h28.364c1.988,0,3.6-1.611,3.6-3.6v-9.252c-1.086-1.021-2.292-2.081-3.6-3.173V45.541z"/>
	<path fill="#474A56" d="M51.741,9.572c-0.606-0.174-1.673-0.374-3.268-0.617c-2.131-0.32-2.869-0.311-3.238-0.276
		c-0.006,0.001-0.048,0.005-0.054,0.006c-0.42,0.048-1.164,0.234-3.21,1.269c-1.5,0.759-3.712,2.236-6.762,4.517
		c-1.26,0.941-2.527,1.939-3.776,2.973c-3.027-1.963-6.25-3.862-9.562-5.632c-0.038-0.02-0.077-0.038-0.117-0.054
		c-0.506-0.186-4.999-1.826-6.913-1.646c-1.063,0.101-1.472,0.754-1.499,1.33c-0.114,2.457,0.153,3.777,0.893,4.414
		c0.321,0.285,1.133,0.86,4.317,2.432c2.493,1.217,4.973,2.576,7.389,4.046c-2.606,2.491-5.158,5.145-7.597,7.899
		c-0.028,0.033-0.055,0.066-0.079,0.102c-1.71,2.561-3.643,5.9-3.138,7.287c0.148,0.404,0.466,0.703,0.874,0.82
		c1.5,0.433,2.609,0.608,3.392,0.535c0.454-0.043,0.816-0.168,1.109-0.379c0.356-0.25,1.105-0.907,3.367-3.632
		c2.417-2.938,5.143-5.829,8.117-8.606c1.048,0.752,1.935,1.411,2.756,2.05c5.069,3.947,8.923,7.565,11.449,10.758
		c0.679,0.896,0.922,1.157,1.057,1.282c0.396,0.37,0.802,0.462,1.073,0.473c0.067,0.003,0.133,0.001,0.193-0.005
		c0.531-0.05,1.167-0.455,1.207-1.431c0.028-0.618-0.022-1.703-0.158-3.311c-0.186-2.202-0.375-2.918-0.5-3.266
		c-0.144-0.398-0.498-1.078-1.98-2.827c-1.085-1.275-3.09-3.137-5.964-5.53c-1.172-0.976-2.394-1.941-3.711-2.931
		c0.023-0.018,0.047-0.036,0.069-0.056c5.02-4.016,9.435-6.922,13.121-8.635c1.027-0.451,1.335-0.623,1.487-0.724
		c0.366-0.247,0.607-0.567,0.714-0.938C52.985,10.636,52.731,9.86,51.741,9.572z"/>
</g>
</svg>
