<?xml version="1.0" encoding="utf-8"?>
<!-- Generator: Adobe Illustrator 17.0.0, SVG Export Plug-In . SVG Version: 6.00 Build 0)  -->
<!DOCTYPE svg PUBLIC "-//W3C//DTD SVG 1.1//EN" "http://www.w3.org/Graphics/SVG/1.1/DTD/svg11.dtd">
<svg version="1.1" id="Layer_1" xmlns="http://www.w3.org/2000/svg" xmlns:xlink="http://www.w3.org/1999/xlink" x="0px" y="0px"
	 width="56.693px" height="56.693px" viewBox="0 0 56.693 56.693" enable-background="new 0 0 56.693 56.693" xml:space="preserve">
<path fill="#474A56" d="M36.23,5.671H20.871c-9.504,0-17.236,8.367-17.236,18.652c0,9.399,6.311,17.127,14.693,18.448v8.55
	c0,0.84,0.512,1.598,1.291,1.91c0.25,0.1,0.51,0.148,0.768,0.148c0.551,0,1.092-0.221,1.488-0.634l9.355-9.771h5
	c9.504,0,17.236-8.367,17.236-18.652C53.466,14.039,45.734,5.671,36.23,5.671z M37.536,24.512l-8.219,9.47
	c-0.173,0.199-0.423,0.313-0.687,0.313c-0.002,0-0.004,0-0.006,0c-0.266-0.002-0.518-0.119-0.69-0.322l-8.17-9.661
	c-0.014-0.015-0.024-0.029-0.035-0.045c-0.711-0.954-1.086-2.089-1.086-3.281c0-3.031,2.466-5.498,5.498-5.498
	c1.826,0,3.537,0.892,4.588,2.272c1.049-1.38,2.761-2.272,4.588-2.272c3.031,0,5.498,2.467,5.498,5.498
	C38.816,22.273,38.361,23.526,37.536,24.512z"/>
</svg>
