<?xml version="1.0" encoding="utf-8"?>
<!-- Generator: Adobe Illustrator 17.0.0, SVG Export Plug-In . SVG Version: 6.00 Build 0)  -->
<!DOCTYPE svg PUBLIC "-//W3C//DTD SVG 1.1//EN" "http://www.w3.org/Graphics/SVG/1.1/DTD/svg11.dtd">
<svg version="1.1" id="Layer_1" xmlns="http://www.w3.org/2000/svg" xmlns:xlink="http://www.w3.org/1999/xlink" x="0px" y="0px"
	 width="56.693px" height="56.693px" viewBox="0 0 56.693 56.693" enable-background="new 0 0 56.693 56.693" xml:space="preserve">
<g>
	<path fill="#474A56" d="M17.266,39.444h18.318c0.4,0,0.724-0.323,0.724-0.723c0-0.401-0.323-0.725-0.724-0.725H17.266
		c-0.4,0-0.725,0.323-0.725,0.725C16.542,39.121,16.866,39.444,17.266,39.444z"/>
	<path fill="#474A56" d="M17.266,33.265h7.328c0.401,0,0.725-0.325,0.725-0.723c0-0.401-0.323-0.726-0.725-0.726h-7.328
		c-0.4,0-0.725,0.324-0.725,0.726C16.542,32.94,16.866,33.265,17.266,33.265z"/>
	<path fill="#474A56" d="M24.594,26.211h-7.328c-0.4,0-0.725,0.323-0.725,0.723c0,0.4,0.324,0.724,0.725,0.724h7.328
		c0.401,0,0.725-0.323,0.725-0.724C25.319,26.535,24.996,26.211,24.594,26.211z"/>
	<path fill="#474A56" d="M40.783,50.76H12.196V12.929h7.157c-0.148-0.666-0.228-1.352-0.228-2.05c0-0.535,0.056-1.058,0.142-1.568
		h-8.879c-1.001,0-1.811,0.811-1.811,1.809v41.45c0,0.998,0.81,1.808,1.811,1.808h32.205c0.999,0,1.809-0.81,1.809-1.808V23.686
		l-3.619,4.17V50.76z"/>
	<path fill="#474A56" d="M42.251,4.551c-3.046,0-5.854,2.053-6.636,4.851c-0.777-2.798-3.588-4.851-6.632-4.851
		c-3.116,0-5.722,2.151-6.433,5.049c-0.125,0.508-0.198,1.036-0.198,1.582c0,0.726,0.119,1.42,0.334,2.07
		c0.225,0.687,0.553,1.323,0.974,1.889l11.814,13.966l11.863-13.671c0.965-1.15,1.545-2.634,1.545-4.254
		C48.881,7.519,45.913,4.551,42.251,4.551z"/>
</g>
</svg>
