<?xml version="1.0" encoding="utf-8"?>
<!-- Generator: Adobe Illustrator 17.0.0, SVG Export Plug-In . SVG Version: 6.00 Build 0)  -->
<!DOCTYPE svg PUBLIC "-//W3C//DTD SVG 1.1//EN" "http://www.w3.org/Graphics/SVG/1.1/DTD/svg11.dtd">
<svg version="1.1" id="Layer_1" xmlns="http://www.w3.org/2000/svg" xmlns:xlink="http://www.w3.org/1999/xlink" x="0px" y="0px"
	 width="56.693px" height="56.693px" viewBox="0 0 56.693 56.693" enable-background="new 0 0 56.693 56.693" xml:space="preserve">
<g>
	<path fill="#474A56" d="M28.623,4.558c-13.716,0-24.874,11.158-24.874,24.873c0,13.716,11.158,24.874,24.874,24.874
		s24.874-11.158,24.874-24.874C53.497,15.716,42.338,4.558,28.623,4.558z M28.623,50.724c-11.741,0-21.294-9.552-21.294-21.293
		c0-11.74,9.553-21.293,21.294-21.293c11.742,0,21.294,9.553,21.294,21.293C49.917,41.172,40.365,50.724,28.623,50.724z"/>
	<path fill="#474A56" d="M43.736,24.914c-0.118-0.37-0.46-0.623-0.848-0.632L32.795,24.08l-3.313-9.432
		c-0.129-0.364-0.473-0.609-0.858-0.609c-0.387,0-0.731,0.245-0.859,0.609l-3.313,9.432l-10.093,0.202
		c-0.389,0.009-0.729,0.262-0.849,0.632c-0.118,0.37,0.01,0.773,0.319,1.007l8.038,6.029l-2.92,9.551
		c-0.112,0.371,0.021,0.771,0.333,0.999c0.312,0.229,0.735,0.236,1.054,0.015l8.29-5.707l8.29,5.707
		c0.156,0.108,0.336,0.162,0.517,0.162c0.188,0,0.377-0.058,0.538-0.177c0.312-0.228,0.444-0.629,0.331-0.999l-2.922-9.551
		l8.04-6.029C43.727,25.687,43.855,25.285,43.736,24.914z"/>
</g>
</svg>
