<?xml version="1.0" encoding="utf-8"?>
<!-- Generator: Adobe Illustrator 17.0.0, SVG Export Plug-In . SVG Version: 6.00 Build 0)  -->
<!DOCTYPE svg PUBLIC "-//W3C//DTD SVG 1.1//EN" "http://www.w3.org/Graphics/SVG/1.1/DTD/svg11.dtd">
<svg version="1.1" id="Layer_1" xmlns="http://www.w3.org/2000/svg" xmlns:xlink="http://www.w3.org/1999/xlink" x="0px" y="0px"
	 width="56.693px" height="56.693px" viewBox="0 0 56.693 56.693" enable-background="new 0 0 56.693 56.693" xml:space="preserve">
<g>
	<path fill="#474A56" d="M24.871,9.592c-1.417-1.416-3.736-1.416-5.152,0.001L8.383,20.926c-1.418,1.418-1.416,3.737,0,5.154
		l24.063,24.063c1.418,1.417,3.735,1.417,5.152,0l11.335-11.334c1.416-1.417,1.418-3.735,0.001-5.153L24.871,9.592z M41.811,43.02
		c-0.856,0.855-2.237,0.854-3.092,0c-0.854-0.854-0.854-2.237,0-3.092c0.854-0.855,2.239-0.854,3.093-0.001
		C42.667,40.782,42.666,42.165,41.811,43.02z M30.926,45.118L11.713,25.904l12.983-12.982l19.212,19.212L30.926,45.118z"/>
	<path fill="#474A56" d="M43.041,21.047c0.001,0.731,0.593,1.324,1.323,1.324c0.733,0.003,1.324-0.591,1.326-1.322
		c0.001-4.996-4.06-9.061-9.056-9.063c-0.731-0.001-1.323,0.592-1.325,1.323c0.001,0.732,0.593,1.325,1.324,1.326
		C40.169,14.634,43.043,17.512,43.041,21.047z"/>
	<path fill="#474A56" d="M36.637,5.217c-0.729,0-1.322,0.591-1.324,1.322c-0.001,0.733,0.592,1.326,1.324,1.326
		c7.268,0.003,13.175,5.919,13.173,13.185c-0.003,0.733,0.593,1.325,1.321,1.326c0.732,0,1.325-0.594,1.326-1.325
		C52.462,12.325,45.366,5.221,36.637,5.217z"/>
	<path fill="#474A56" d="M19.839,44.257c-3.535,0-6.41-2.877-6.409-6.413c0-0.731-0.591-1.324-1.322-1.324
		c-0.731-0.002-1.323,0.591-1.325,1.322c-0.001,4.996,4.061,9.062,9.056,9.063c0.731,0.001,1.322-0.591,1.324-1.323
		C21.163,44.85,20.571,44.257,19.839,44.257z"/>
	<path fill="#474A56" d="M19.835,51.026C12.567,51.022,6.661,45.106,6.663,37.84c0.002-0.732-0.593-1.325-1.322-1.326
		c-0.732,0.001-1.325,0.594-1.326,1.325c-0.003,8.727,7.093,15.831,15.82,15.834c0.729,0.001,1.322-0.591,1.323-1.322
		C21.159,51.619,20.568,51.026,19.835,51.026z"/>
	<path fill="#474A56" d="M26.667,29.232c0.184-0.003,0.411-0.065,0.684-0.185l-1.228-1.28c-0.134,0.235-0.211,0.45-0.228,0.642
		c-0.018,0.191,0.064,0.381,0.24,0.565C26.304,29.151,26.481,29.237,26.667,29.232z"/>
	<path fill="#474A56" d="M30.13,31.099c0.182-0.259,0.269-0.517,0.262-0.771c-0.002-0.06-0.024-0.109-0.034-0.165
		c-0.037-0.181-0.105-0.348-0.236-0.486c-0.186-0.194-0.389-0.286-0.61-0.278c-0.222,0.009-0.481,0.087-0.784,0.235l0.786,0.819
		L30.13,31.099z"/>
	<path fill="#474A56" d="M22.113,26.732c-0.343,0.786-0.53,1.639-0.55,2.523c-0.028,1.289,0.315,2.526,0.973,3.601
		c0.25,0.406,0.54,0.79,0.878,1.143c0.271,0.285,0.572,0.53,0.884,0.758c1.737,1.265,4.013,1.643,6.088,0.929
		c0.087-0.03,0.168-0.07,0.254-0.104c0.809-0.316,1.546-0.775,2.18-1.385c0.646-0.618,1.149-1.345,1.495-2.14
		c0.119-0.275,0.217-0.562,0.298-0.853c0.151-0.538,0.24-1.097,0.254-1.671c0.008-0.306-0.014-0.609-0.049-0.907
		c-0.164-1.438-0.783-2.776-1.801-3.837c-1.79-1.868-4.526-2.529-6.974-1.687c-0.085,0.03-0.167,0.07-0.253,0.104
		c-0.809,0.316-1.545,0.776-2.18,1.385C22.963,25.211,22.461,25.936,22.113,26.732z M25.024,26.623
		c-0.178-0.188-0.2-0.347-0.059-0.482c0.141-0.136,0.302-0.113,0.477,0.069l0.48,0.502c0.262-0.205,0.514-0.352,0.754-0.442
		c0.241-0.089,0.496-0.121,0.767-0.094c0.207,0.018,0.398,0.061,0.568,0.129c0.169,0.068,0.302,0.153,0.398,0.252
		c0.108,0.112,0.158,0.248,0.157,0.406c-0.005,0.16-0.063,0.296-0.18,0.406c-0.22,0.21-0.473,0.226-0.766,0.054
		c-0.339-0.209-0.694-0.225-1.062-0.047l1.333,1.392c0.349-0.19,0.635-0.331,0.858-0.426c0.226-0.094,0.458-0.146,0.698-0.15
		c0.256-0.011,0.504,0.034,0.741,0.133c0.239,0.098,0.454,0.25,0.649,0.452c0.243,0.255,0.413,0.549,0.505,0.885
		c0.014,0.051,0.01,0.104,0.021,0.155c0.056,0.288,0.056,0.585-0.027,0.892c-0.096,0.362-0.291,0.709-0.583,1.042l0.53,0.552
		c0.012,0.014,0.019,0.025,0.03,0.038c0.107,0.113,0.177,0.211,0.206,0.287c0.031,0.085,0.005,0.168-0.082,0.252
		c-0.08,0.077-0.162,0.107-0.24,0.088c-0.08-0.018-0.167-0.079-0.264-0.181l-0.227-0.238l-0.37-0.387
		c-0.29,0.222-0.576,0.379-0.859,0.473c-0.286,0.093-0.561,0.134-0.825,0.119c-0.263-0.015-0.498-0.067-0.704-0.157
		c-0.207-0.09-0.381-0.208-0.521-0.353c-0.101-0.107-0.154-0.243-0.15-0.409c0.003-0.167,0.065-0.309,0.19-0.429
		c0.099-0.096,0.206-0.152,0.32-0.172c0.114-0.02,0.226,0,0.335,0.06c0.233,0.125,0.421,0.214,0.558,0.269
		c0.137,0.053,0.29,0.078,0.457,0.071c0.167-0.007,0.347-0.061,0.536-0.162L28.9,30.664l-0.716-0.748
		c-0.379,0.205-0.718,0.353-1.015,0.444c-0.297,0.09-0.599,0.103-0.903,0.035c-0.304-0.068-0.597-0.248-0.879-0.542
		c-0.367-0.383-0.547-0.815-0.537-1.294c0.009-0.479,0.225-0.959,0.647-1.442L25.024,26.623z"/>
</g>
</svg>
