<?xml version="1.0" encoding="utf-8"?>
<!-- Generator: Adobe Illustrator 17.0.0, SVG Export Plug-In . SVG Version: 6.00 Build 0)  -->
<!DOCTYPE svg PUBLIC "-//W3C//DTD SVG 1.1//EN" "http://www.w3.org/Graphics/SVG/1.1/DTD/svg11.dtd">
<svg version="1.1" id="Layer_1" xmlns="http://www.w3.org/2000/svg" xmlns:xlink="http://www.w3.org/1999/xlink" x="0px" y="0px"
	 width="56.693px" height="56.693px" viewBox="0 0 56.693 56.693" enable-background="new 0 0 56.693 56.693" xml:space="preserve">
<g>
	<path fill="#474A56" d="M13.968,21.729h20.518c0.385,0,0.695-0.311,0.695-0.694c0-0.383-0.311-0.695-0.695-0.695H13.968
		c-0.383,0-0.695,0.311-0.695,0.695C13.273,21.418,13.586,21.729,13.968,21.729z"/>
	<path fill="#474A56" d="M13.968,14.894h8.209c0.385,0,0.695-0.311,0.695-0.694c0-0.384-0.311-0.695-0.695-0.695h-8.209
		c-0.383,0-0.695,0.311-0.695,0.695C13.273,14.584,13.586,14.894,13.968,14.894z"/>
	<path fill="#474A56" d="M36.662,32.598c-0.706,0-1.267,0.193-1.68,0.58c-0.415,0.387-0.622,1.039-0.622,1.958v2.369
		c0,0.919,0.207,1.572,0.622,1.958c0.413,0.386,0.974,0.58,1.68,0.58c0.729,0,1.295-0.193,1.697-0.58
		c0.403-0.387,0.605-1.039,0.605-1.958v-2.369c0-0.919-0.202-1.572-0.605-1.958C37.957,32.791,37.39,32.598,36.662,32.598z"/>
	<path fill="#474A56" d="M25.804,32.716h-1.209v7.193h1.209c0.774,0,1.379-0.202,1.816-0.605c0.436-0.404,0.655-0.992,0.655-1.765
		V35.32c0-0.818-0.219-1.456-0.655-1.916C27.183,32.945,26.579,32.716,25.804,32.716z"/>
	<path fill="#474A56" d="M51.666,26.753H20.583c-1.208,0-2.188,0.979-2.188,2.188v14.457c0,1.208,0.979,2.187,2.188,2.187h31.083
		c1.208,0,2.187-0.979,2.187-2.187V28.941C53.852,27.732,52.874,26.753,51.666,26.753z M30.242,37.354
		c0,0.605-0.087,1.171-0.261,1.697c-0.173,0.527-0.442,0.986-0.806,1.378c-0.365,0.393-0.827,0.701-1.387,0.925
		c-0.561,0.224-1.222,0.336-1.984,0.336h-2.167c-0.313,0-0.561-0.081-0.74-0.244c-0.179-0.162-0.267-0.345-0.267-0.546v-9.177
		c0-0.201,0.089-0.384,0.267-0.546c0.18-0.162,0.427-0.244,0.74-0.244h2.167c0.763,0,1.424,0.12,1.984,0.361
		c0.56,0.241,1.021,0.565,1.387,0.975c0.363,0.409,0.633,0.891,0.806,1.445c0.174,0.555,0.261,1.146,0.261,1.773V37.354z
		 M40.93,37.488c0,0.616-0.084,1.191-0.251,1.723c-0.169,0.533-0.43,0.995-0.782,1.387c-0.352,0.393-0.796,0.7-1.328,0.924
		c-0.532,0.224-1.168,0.336-1.907,0.336c-0.729,0-1.359-0.112-1.89-0.336c-0.533-0.224-0.973-0.532-1.32-0.924
		c-0.347-0.392-0.605-0.854-0.772-1.387c-0.168-0.532-0.253-1.106-0.253-1.723v-2.352c0-0.616,0.085-1.19,0.253-1.723
		c0.167-0.532,0.426-0.994,0.772-1.387c0.348-0.392,0.787-0.7,1.32-0.924c0.53-0.224,1.161-0.336,1.89-0.336
		c0.739,0,1.375,0.113,1.907,0.336c0.532,0.224,0.976,0.532,1.328,0.924c0.353,0.393,0.613,0.854,0.782,1.387
		c0.167,0.532,0.251,1.106,0.251,1.723V37.488z M45.628,39.564c0.387,0.353,0.849,0.529,1.388,0.529c0.324,0,0.584-0.025,0.78-0.076
		c0.197-0.05,0.384-0.125,0.564-0.226c0.122-0.079,0.229-0.143,0.319-0.193c0.089-0.051,0.17-0.089,0.242-0.118
		c0.073-0.028,0.149-0.047,0.226-0.059c0.079-0.011,0.169-0.017,0.27-0.017c0.224,0,0.389,0.065,0.496,0.193
		c0.106,0.129,0.159,0.289,0.159,0.479c0,0.235-0.075,0.459-0.226,0.672c-0.151,0.213-0.364,0.401-0.639,0.562
		c-0.274,0.163-0.597,0.294-0.966,0.395c-0.37,0.101-0.774,0.151-1.21,0.151c-0.639,0-1.205-0.109-1.698-0.328
		c-0.493-0.219-0.907-0.513-1.243-0.882c-0.337-0.37-0.588-0.801-0.757-1.294c-0.168-0.493-0.251-1.019-0.251-1.579v-2.925
		c0-0.548,0.083-1.073,0.251-1.571c0.169-0.498,0.42-0.933,0.757-1.302c0.336-0.37,0.75-0.664,1.243-0.882
		c0.493-0.218,1.059-0.328,1.698-0.328c0.436,0,0.84,0.051,1.21,0.151c0.369,0.101,0.691,0.235,0.966,0.404
		c0.274,0.167,0.487,0.358,0.639,0.571c0.151,0.213,0.226,0.437,0.226,0.672c0,0.224-0.067,0.397-0.202,0.521
		c-0.134,0.123-0.291,0.185-0.469,0.185c-0.191,0-0.359-0.025-0.505-0.076c-0.145-0.05-0.314-0.137-0.505-0.26
		c-0.179-0.112-0.372-0.208-0.58-0.286c-0.207-0.078-0.473-0.118-0.797-0.118c-0.539,0-1.001,0.18-1.388,0.538
		c-0.386,0.359-0.579,0.913-0.579,1.664v3.177C45.048,38.659,45.242,39.211,45.628,39.564z"/>
	<path fill="#474A56" d="M40.601,50.987H7.999V8.032H34.02v5.452c0,0.575,0.465,1.041,1.041,1.041h5.54v8.855h3.471v-9.912
		c0-0.464-0.188-0.91-0.517-1.235L36.279,5.06c-0.324-0.32-0.762-0.499-1.218-0.499H6.263c-0.959,0-1.735,0.777-1.735,1.735v46.426
		c0,0.959,0.776,1.736,1.735,1.736h36.071c0.961,0,1.737-0.777,1.737-1.736v-3.579h-3.471V50.987z"/>
</g>
</svg>
