<?xml version="1.0" encoding="utf-8"?>
<!-- Generator: Adobe Illustrator 17.0.0, SVG Export Plug-In . SVG Version: 6.00 Build 0)  -->
<!DOCTYPE svg PUBLIC "-//W3C//DTD SVG 1.1//EN" "http://www.w3.org/Graphics/SVG/1.1/DTD/svg11.dtd">
<svg version="1.1" id="Layer_1" xmlns="http://www.w3.org/2000/svg" xmlns:xlink="http://www.w3.org/1999/xlink" x="0px" y="0px"
	 width="56.693px" height="56.693px" viewBox="0 0 56.693 56.693" enable-background="new 0 0 56.693 56.693" xml:space="preserve">
<path fill="#474A56" d="M49.522,5.148c-0.065-0.004-1.624-0.107-4.133-0.107c-8.393,0-28.678,1.213-35.764,12.448
	c-3.142,4.982-3.337,11.253-0.61,18.673c3.911-4.412,9.553-9.551,17.646-14.823c0.017-0.01,0.032-0.021,0.049-0.032
	c0.001,0,0.001,0,0.001,0c0.978-0.637,2.281-0.366,2.932,0.594C11.485,35.041,6.722,47.06,5.946,49.362
	c-0.227,0.677-0.232,1.394-0.014,2.073c0.454,1.409,1.562,2.217,3.039,2.217c0.151,0,0.304-0.009,0.458-0.025
	c2.049-0.218,3.676-1.863,3.87-3.91c0.159-1.666,0.698-4.452,2.383-7.938c1.747,0.289,3.933,0.535,6.389,0.535c0,0,0.001,0,0.003,0
	c10.438,0,28.062-4.586,28.847-35.323V6.645C50.921,5.856,50.309,5.202,49.522,5.148z"/>
</svg>
