<?xml version="1.0" encoding="utf-8"?>
<!-- Generator: Adobe Illustrator 17.0.0, SVG Export Plug-In . SVG Version: 6.00 Build 0)  -->
<!DOCTYPE svg PUBLIC "-//W3C//DTD SVG 1.1//EN" "http://www.w3.org/Graphics/SVG/1.1/DTD/svg11.dtd">
<svg version="1.1" id="Layer_1" xmlns="http://www.w3.org/2000/svg" xmlns:xlink="http://www.w3.org/1999/xlink" x="0px" y="0px"
	 width="56.693px" height="56.693px" viewBox="0 0 56.693 56.693" enable-background="new 0 0 56.693 56.693" xml:space="preserve">
<g>
	<path fill="#474A56" d="M47.69,12.288l-7.275-7.171c-0.324-0.32-0.762-0.499-1.218-0.499H10.399c-0.959,0-1.735,0.777-1.735,1.735
		v46.426c0,0.959,0.776,1.736,1.735,1.736H46.47c0.961,0,1.737-0.777,1.737-1.736V13.523C48.208,13.059,48.02,12.614,47.69,12.288z
		 M44.737,51.043H12.134V8.088h26.021v5.452c0,0.575,0.465,1.04,1.041,1.04h5.54V51.043z"/>
	<path fill="#474A56" d="M23.571,30.779c-0.076-0.259-0.251-0.483-0.525-0.674c-0.274-0.19-0.594-0.286-0.959-0.286
		c-0.381,0-0.704,0.095-0.971,0.286c-0.267,0.191-0.438,0.415-0.514,0.674l-4.478,12.654c-0.076,0.259-0.026,0.529,0.148,0.811
		c0.176,0.282,0.469,0.476,0.88,0.582c0.365,0.092,0.696,0.061,0.993-0.091c0.297-0.152,0.491-0.357,0.583-0.617l0.845-2.672h4.979
		l0.822,2.65c0.076,0.259,0.263,0.464,0.559,0.617c0.297,0.152,0.636,0.183,1.017,0.091c0.411-0.107,0.7-0.301,0.868-0.583
		c0.167-0.282,0.213-0.552,0.137-0.811L23.571,30.779z M20.282,39.207l1.805-5.665l1.759,5.665H20.282z"/>
	<path fill="#474A56" d="M37.595,33.36c-0.609-0.229-1.332-0.343-2.17-0.343c-0.899,0-1.683,0.156-2.353,0.468
		c-0.67,0.312-1.226,0.719-1.667,1.222c-0.442,0.502-0.777,1.066-1.005,1.69c-0.229,0.625-0.343,1.256-0.343,1.896v2.01
		c0,0.579,0.087,1.142,0.263,1.69c0.175,0.548,0.438,1.036,0.788,1.462c0.35,0.426,0.799,0.773,1.348,1.039
		c0.548,0.266,1.188,0.4,1.918,0.4c0.457,0,0.842-0.034,1.153-0.103c0.312-0.068,0.583-0.167,0.812-0.297
		c0.229-0.129,0.423-0.277,0.582-0.445c0.16-0.167,0.308-0.35,0.445-0.548l0.206,0.069v0.365c0,0.274,0.117,0.522,0.353,0.742
		c0.236,0.221,0.545,0.331,0.926,0.331c0.426,0,0.761-0.111,1.005-0.331c0.243-0.22,0.365-0.468,0.365-0.742V37.54
		c0-0.654-0.092-1.256-0.274-1.804c-0.183-0.548-0.468-1.024-0.856-1.428C38.704,33.904,38.205,33.588,37.595,33.36z M37.573,39.732
		c0,0.442-0.076,0.83-0.229,1.165c-0.152,0.335-0.351,0.613-0.594,0.833c-0.244,0.221-0.521,0.388-0.834,0.502
		c-0.312,0.114-0.636,0.171-0.971,0.171c-0.609,0-1.119-0.198-1.53-0.594c-0.411-0.396-0.617-0.868-0.617-1.417v-2.192
		c0-0.366,0.065-0.708,0.194-1.028c0.13-0.32,0.309-0.605,0.537-0.857c0.228-0.251,0.502-0.449,0.822-0.594
		c0.319-0.145,0.678-0.217,1.073-0.217c0.685,0,1.215,0.156,1.588,0.468c0.373,0.312,0.56,0.849,0.56,1.61V39.732z"/>
</g>
</svg>
