<?xml version="1.0" encoding="utf-8"?>
<!-- Generator: Adobe Illustrator 17.0.0, SVG Export Plug-In . SVG Version: 6.00 Build 0)  -->
<!DOCTYPE svg PUBLIC "-//W3C//DTD SVG 1.1//EN" "http://www.w3.org/Graphics/SVG/1.1/DTD/svg11.dtd">
<svg version="1.1" id="Layer_1" xmlns="http://www.w3.org/2000/svg" xmlns:xlink="http://www.w3.org/1999/xlink" x="0px" y="0px"
	 width="56.693px" height="56.693px" viewBox="0 0 56.693 56.693" enable-background="new 0 0 56.693 56.693" xml:space="preserve">
<g>
	<path fill="#474A56" d="M9.506,13.817c0,0.276,0.107,0.535,0.303,0.731c0.377,0.378,1.081,0.378,1.46,0l0.879-0.879l0.879,0.878
		c0.195,0.196,0.455,0.304,0.731,0.304c0.276,0,0.535-0.108,0.729-0.303c0.195-0.195,0.303-0.455,0.303-0.73
		c0-0.276-0.107-0.536-0.303-0.73l-0.879-0.879l0.878-0.878c0.196-0.195,0.304-0.455,0.304-0.731c0-0.275-0.107-0.535-0.303-0.73
		c-0.377-0.379-1.084-0.377-1.46,0l-0.88,0.879l-0.879-0.879c-0.381-0.38-1.076-0.384-1.461,0c-0.194,0.195-0.302,0.455-0.302,0.73
		c0,0.276,0.107,0.536,0.303,0.73l0.879,0.879L9.81,13.086C9.614,13.281,9.506,13.54,9.506,13.817z"/>
	<path fill="#474A56" d="M17.48,5.629H6.816c-0.69,0-1.25,0.56-1.25,1.25v10.664c0,0.69,0.56,1.25,1.25,1.25H17.48
		c0.691,0,1.25-0.56,1.25-1.25V6.879C18.73,6.188,18.171,5.629,17.48,5.629z M16.23,16.292H8.066V8.129h8.164V16.292z"/>
	<path fill="#474A56" d="M17.48,23.133H6.816c-0.69,0-1.25,0.559-1.25,1.25v10.663c0,0.691,0.56,1.25,1.25,1.25H17.48
		c0.691,0,1.25-0.559,1.25-1.25V24.383C18.73,23.692,18.171,23.133,17.48,23.133z M16.23,33.796H8.066v-8.163h8.164V33.796z"/>
	<path fill="#474A56" d="M17.48,40.637H6.816c-0.69,0-1.25,0.56-1.25,1.25v10.664c0,0.69,0.56,1.25,1.25,1.25H17.48
		c0.691,0,1.25-0.56,1.25-1.25V41.887C18.73,41.196,18.171,40.637,17.48,40.637z M16.23,51.301H8.066v-8.164h8.164V51.301z"/>
	<path fill="#474A56" d="M26.068,13.575h23.349c0.805,0,1.46-0.654,1.46-1.459c0-0.805-0.655-1.46-1.46-1.46H26.068
		c-0.806,0-1.461,0.655-1.461,1.46C24.607,12.921,25.262,13.575,26.068,13.575z"/>
	<path fill="#474A56" d="M49.417,45.759H26.068c-0.806,0-1.461,0.655-1.461,1.459s0.655,1.459,1.461,1.459h23.349
		c0.805,0,1.46-0.655,1.46-1.459S50.221,45.759,49.417,45.759z"/>
	<path fill="#474A56" d="M49.417,28.255H26.068c-0.806,0-1.461,0.655-1.461,1.46c0,0.805,0.655,1.459,1.461,1.459h23.349
		c0.805,0,1.46-0.654,1.46-1.459C50.877,28.91,50.221,28.255,49.417,28.255z"/>
</g>
</svg>
