<?xml version="1.0" encoding="utf-8"?>
<!-- Generator: Adobe Illustrator 17.0.0, SVG Export Plug-In . SVG Version: 6.00 Build 0)  -->
<!DOCTYPE svg PUBLIC "-//W3C//DTD SVG 1.1//EN" "http://www.w3.org/Graphics/SVG/1.1/DTD/svg11.dtd">
<svg version="1.1" id="Layer_1" xmlns="http://www.w3.org/2000/svg" xmlns:xlink="http://www.w3.org/1999/xlink" x="0px" y="0px"
	 width="56.693px" height="56.693px" viewBox="0 0 56.693 56.693" enable-background="new 0 0 56.693 56.693" xml:space="preserve">
<g>
	<path fill="#474A56" d="M39.585,44.947c-1.067,0-1.975,0.67-2.332,1.614l-5.728-3.123l6.095-3.572
		c0.2,0.463,0.538,0.872,1.003,1.152c1.18,0.71,2.712,0.329,3.422-0.851c0.71-1.181,0.33-2.712-0.85-3.424
		c-0.237-0.145-0.491-0.239-0.746-0.296c0.466-1.122,0.058-2.445-1.014-3.091c-1.18-0.71-2.712-0.329-3.422,0.85
		c-0.55,0.915-0.443,2.039,0.179,2.83l-7.91,4.636l-7.839-4.271c0.346-0.43,0.553-0.972,0.553-1.563
		c0-1.377-1.118-2.493-2.494-2.493c-1.376,0-2.493,1.116-2.493,2.493c0,0.277,0.047,0.543,0.13,0.79
		c-1.201,0.18-2.124,1.212-2.124,2.465c0,1.377,1.116,2.493,2.494,2.493c1.016,0,1.892-0.611,2.278-1.483l6.309,3.437l-5.418,3.176
		c-0.189-0.517-0.547-0.974-1.055-1.28c-1.18-0.71-2.712-0.329-3.421,0.852c-0.71,1.178-0.329,2.711,0.85,3.423
		c0.236,0.142,0.489,0.236,0.745,0.296c-0.467,1.12-0.057,2.445,1.015,3.092c1.179,0.708,2.712,0.326,3.421-0.852
		c0.526-0.872,0.454-1.936-0.096-2.719l7.203-4.222l7.226,3.938c-0.294,0.409-0.469,0.91-0.469,1.454
		c0,1.375,1.115,2.493,2.493,2.493c1.377,0,2.494-1.118,2.494-2.493c0-0.276-0.047-0.544-0.132-0.793
		c1.204-0.179,2.127-1.213,2.127-2.464C42.077,46.066,40.962,44.947,39.585,44.947z"/>
	<path fill="#474A56" d="M18.708,28.824l5.267,2.494l0.808,1.827c0,0,2.147,0.608,3.839,0.57c1.692,0.037,3.841-0.57,3.841-0.57
		l0.807-1.827l5.266-2.494c0,0-1.051-2.246,1.265-5.23c2.098-2.702,2.068-7.476,2.041-8.357c0.004-0.1,0.006-0.199,0.006-0.301
		c0-5.848-5.919-10.587-13.22-10.587c-7.302,0-13.222,4.739-13.222,10.587c0,0.054,0.002,0.106,0.004,0.159l-0.004-0.001
		c0,0-0.279,5.514,2.039,8.499C19.76,26.578,18.708,28.824,18.708,28.824z M31.271,22.56v-0.006v-0.004l0.003-1.227
		c-0.001-0.033-0.003-0.066-0.003-0.1c0-0.04,0.002-0.079,0.003-0.118v-0.011h0.001c0.072-1.542,1.419-2.769,3.07-2.769
		c1.639,0,2.978,1.209,3.068,2.735c0.002,0.054,0.004,0.105,0.004,0.162c0,0.053-0.002,0.105-0.004,0.161v1.018
		c0.002,0.051,0.004,0.101,0.004,0.152c0,1.543-1.375,2.795-3.073,2.795c-1.677,0-3.038-1.221-3.072-2.734h-0.002V22.56z
		 M28.495,25.349c1.179,1.821,1.362,4.779,0.6,4.611c-0.764-0.17-0.6-1.775-0.6-1.775s-1.232,1.603-1.262,1.182
		C27.185,28.746,28.495,25.349,28.495,25.349z M20.077,22.56v-0.006v-0.004l0.004-1.227c-0.003-0.033-0.004-0.066-0.004-0.1
		c0-0.04,0.001-0.079,0.004-0.118v-0.011c0.072-1.542,1.416-2.769,3.068-2.769c1.639,0,2.977,1.209,3.067,2.735
		c0.002,0.054,0.004,0.105,0.004,0.162c0,0.053-0.002,0.105-0.004,0.161v1.018c0.002,0.051,0.004,0.101,0.004,0.152
		c0,1.543-1.375,2.795-3.072,2.795c-1.676,0-3.038-1.221-3.071-2.734h-0.001V22.56z"/>
</g>
</svg>
