<?xml version="1.0" encoding="utf-8"?>
<!-- Generator: Adobe Illustrator 17.0.0, SVG Export Plug-In . SVG Version: 6.00 Build 0)  -->
<!DOCTYPE svg PUBLIC "-//W3C//DTD SVG 1.1//EN" "http://www.w3.org/Graphics/SVG/1.1/DTD/svg11.dtd">
<svg version="1.1" id="Layer_1" xmlns="http://www.w3.org/2000/svg" xmlns:xlink="http://www.w3.org/1999/xlink" x="0px" y="0px"
	 width="56.693px" height="56.693px" viewBox="0 0 56.693 56.693" enable-background="new 0 0 56.693 56.693" xml:space="preserve">
<path fill="#474A56" d="M49.13,16.941H31.504l6.953-8.342c0.111,0.019,0.207,0.062,0.322,0.062c1.145,0,2.07-0.926,2.07-2.07
	c0-1.139-0.926-2.07-2.07-2.07c-1.139,0-2.07,0.932-2.07,2.07c0,0.25,0.062,0.48,0.143,0.701l-8.043,9.649H28.05l-8.039-9.649
	c0.078-0.221,0.139-0.451,0.139-0.701c0-1.139-0.926-2.07-2.07-2.07c-1.141,0-2.07,0.932-2.07,2.07c0,1.145,0.93,2.07,2.07,2.07
	c0.115,0,0.215-0.043,0.322-0.062l6.955,8.342H7.73c-2.285,0-4.139,1.855-4.139,4.139v28.98c0,2.285,1.853,4.139,4.139,4.139h41.4
	c2.285,0,4.139-1.854,4.139-4.139v-28.98C53.269,18.796,51.416,16.941,49.13,16.941z M40.849,45.919
	c0,2.285-1.852,4.141-4.141,4.141H11.871c-2.285,0-4.141-1.855-4.141-4.141V25.22c0-2.287,1.856-4.141,4.141-4.141h24.838
	c2.289,0,4.141,1.854,4.141,4.141V45.919z M46.949,27.419c-1.633,0-2.957-1.326-2.957-2.957c0-1.633,1.324-2.955,2.957-2.955
	c1.631,0,2.955,1.322,2.955,2.955C49.904,26.093,48.58,27.419,46.949,27.419z"/>
</svg>
