<?xml version="1.0" encoding="utf-8"?>
<!-- Generator: Adobe Illustrator 17.0.0, SVG Export Plug-In . SVG Version: 6.00 Build 0)  -->
<!DOCTYPE svg PUBLIC "-//W3C//DTD SVG 1.1//EN" "http://www.w3.org/Graphics/SVG/1.1/DTD/svg11.dtd">
<svg version="1.1" id="Layer_1" xmlns="http://www.w3.org/2000/svg" xmlns:xlink="http://www.w3.org/1999/xlink" x="0px" y="0px"
	 width="56.693px" height="56.693px" viewBox="0 0 56.693 56.693" enable-background="new 0 0 56.693 56.693" xml:space="preserve">
<g>
	<path fill="#474A56" d="M16.806,30.857c1.685,0,3.085-1.138,3.521-2.682h-7.042C13.72,29.719,15.124,30.857,16.806,30.857z"/>
	<path fill="#474A56" d="M25.058,31.297l-2.48-1.689c-0.252-0.17-0.593-0.104-0.765,0.146c-0.168,0.251-0.107,0.593,0.146,0.763
		l2.483,1.69c0.094,0.062,0.199,0.092,0.307,0.092c0.174,0,0.349-0.083,0.455-0.241C25.375,31.808,25.31,31.466,25.058,31.297z"/>
	<path fill="#474A56" d="M10.641,29.607l-2.482,1.689c-0.249,0.169-0.317,0.511-0.146,0.76c0.105,0.157,0.278,0.241,0.455,0.241
		c0.105,0,0.213-0.03,0.309-0.092l2.481-1.69c0.25-0.17,0.317-0.511,0.146-0.763C11.232,29.503,10.892,29.437,10.641,29.607z"/>
	<path fill="#474A56" d="M16.709,32.1c-0.306,0-0.55,0.243-0.55,0.549v3.576c0,0.301,0.244,0.546,0.55,0.546
		c0.303,0,0.548-0.245,0.548-0.546V32.65C17.256,32.344,17.011,32.1,16.709,32.1z"/>
	<path fill="#474A56" d="M19.636,9.826h10.216L42.53,22.503v24.965h3.511V21.776c0-0.466-0.186-0.912-0.514-1.241L31.82,6.829
		c-0.329-0.329-0.775-0.515-1.241-0.515H19.549c-0.578-0.896-1.58-1.493-2.727-1.493c-1.793,0-3.248,1.454-3.248,3.249
		c0,0.633,0.189,1.219,0.503,1.719c-4.582,2.375-7.959,10.258-7.959,16.424h21.41C27.529,20.077,24.184,12.242,19.636,9.826z"/>
	<path fill="#474A56" d="M48.715,49.475H26.777c-1.108,0-2.006,0.898-2.006,2.006v1.102c0,1.108,0.897,2.006,2.006,2.006h21.938
		c1.107,0,2.006-0.898,2.006-2.006v-1.102C50.721,50.373,49.823,49.475,48.715,49.475z"/>
</g>
</svg>
