<?xml version="1.0" encoding="utf-8"?>
<!-- Generator: Adobe Illustrator 17.0.0, SVG Export Plug-In . SVG Version: 6.00 Build 0)  -->
<!DOCTYPE svg PUBLIC "-//W3C//DTD SVG 1.1//EN" "http://www.w3.org/Graphics/SVG/1.1/DTD/svg11.dtd">
<svg version="1.1" id="Layer_1" xmlns="http://www.w3.org/2000/svg" xmlns:xlink="http://www.w3.org/1999/xlink" x="0px" y="0px"
	 width="56.693px" height="56.693px" viewBox="0 0 56.693 56.693" enable-background="new 0 0 56.693 56.693" xml:space="preserve">
<path fill="#474A56" d="M47.569,16.808c-0.178-2.212-1.436-4.215-3.394-5.311c-0.721-0.404-1.637-0.147-2.041,0.576
	c-0.405,0.723-0.146,1.637,0.576,2.041c1.019,0.57,1.699,1.582,1.858,2.716c-0.905,0.246-1.577,1.068-1.577,2.051v5.102
	c0,0.996,0.689,1.828,1.613,2.061v13.102c0,2.036-1.656,3.692-3.692,3.692h-1.371V22.242V6.545c0-0.828-0.672-1.5-1.5-1.5H17.846
	c-0.828,0-1.5,0.672-1.5,1.5v15.697v27.916h-1.398c-0.828,0-1.5,0.672-1.5,1.5v1.247c0,0.828,0.672,1.5,1.5,1.5H40.94
	c0.828,0,1.5-0.672,1.5-1.5v-1.247c0-0.828-0.672-1.5-1.5-1.5h-1.398v-4.32h1.371c3.69,0,6.692-3.002,6.692-6.692V26.045
	c0.925-0.233,1.614-1.064,1.614-2.062v-5.102C49.219,17.871,48.512,17.026,47.569,16.808z M33.34,31.242c0,0.828-0.672,1.5-1.5,1.5
	h-7.794c-0.828,0-1.5-0.672-1.5-1.5v-2.53c0-0.828,0.672-1.5,1.5-1.5h7.794c0.828,0,1.5,0.672,1.5,1.5V31.242z M36.542,20.742
	H19.346V8.045h17.195V20.742z"/>
</svg>
