<?xml version="1.0" encoding="utf-8"?>
<!-- Generator: Adobe Illustrator 17.0.0, SVG Export Plug-In . SVG Version: 6.00 Build 0)  -->
<!DOCTYPE svg PUBLIC "-//W3C//DTD SVG 1.1//EN" "http://www.w3.org/Graphics/SVG/1.1/DTD/svg11.dtd">
<svg version="1.1" id="Layer_1" xmlns="http://www.w3.org/2000/svg" xmlns:xlink="http://www.w3.org/1999/xlink" x="0px" y="0px"
	 width="56.693px" height="56.693px" viewBox="0 0 56.693 56.693" enable-background="new 0 0 56.693 56.693" xml:space="preserve">
<g>
	<path fill="#474A56" d="M52.687,17.851c-0.489-4.055-1.108-5.492-2.362-5.492h-1.031H24.005V45.73h25.289h1.031
		c1.254,0,1.872-1.438,2.362-5.492c0.362-2.996,0.562-6.971,0.562-11.192C53.25,24.823,53.049,20.848,52.687,17.851z M31.654,41.131
		c-1.02,0-1.848-0.829-1.848-1.849c0-1.02,0.828-1.848,1.848-1.848c1.019,0,1.849,0.828,1.849,1.848
		C33.504,40.303,32.674,41.131,31.654,41.131z M31.654,34.774c-1.02,0-1.848-0.828-1.848-1.849c0-1.021,0.828-1.849,1.848-1.849
		c1.019,0,1.849,0.829,1.849,1.849C33.504,33.946,32.674,34.774,31.654,34.774z M31.654,28.415c-1.02,0-1.848-0.828-1.848-1.848
		c0-1.021,0.828-1.85,1.848-1.85c1.019,0,1.849,0.828,1.849,1.85C33.504,27.587,32.674,28.415,31.654,28.415z M38.013,41.131
		c-1.021,0-1.848-0.829-1.848-1.849c0-1.02,0.828-1.848,1.848-1.848c1.02,0,1.849,0.828,1.849,1.848
		C39.861,40.303,39.033,41.131,38.013,41.131z M38.013,34.774c-1.021,0-1.848-0.828-1.848-1.849c0-1.021,0.828-1.849,1.848-1.849
		c1.02,0,1.849,0.829,1.849,1.849C39.861,33.946,39.033,34.774,38.013,34.774z M38.013,28.415c-1.021,0-1.848-0.828-1.848-1.848
		c0-1.021,0.828-1.85,1.848-1.85c1.02,0,1.849,0.828,1.849,1.85C39.861,27.587,39.033,28.415,38.013,28.415z M44.371,41.131
		c-1.02,0-1.849-0.829-1.849-1.849c0-1.02,0.829-1.848,1.849-1.848c1.02,0,1.849,0.828,1.849,1.848
		C46.219,40.303,45.39,41.131,44.371,41.131z M44.371,34.774c-1.02,0-1.849-0.828-1.849-1.849c0-1.021,0.829-1.849,1.849-1.849
		c1.02,0,1.849,0.829,1.849,1.849C46.219,33.946,45.39,34.774,44.371,34.774z M44.371,28.415c-1.02,0-1.849-0.828-1.849-1.848
		c0-1.021,0.829-1.85,1.849-1.85c1.02,0,1.849,0.828,1.849,1.85C46.219,27.587,45.39,28.415,44.371,28.415z M46.771,19.891
		c0,0.488-0.396,0.885-0.885,0.885H30.194c-0.184,0-0.345-0.069-0.486-0.166c-0.234-0.159-0.398-0.415-0.398-0.719v-2.776
		c0-0.488,0.396-0.885,0.885-0.885h15.692c0.184,0,0.345,0.069,0.486,0.166c0.234,0.159,0.398,0.415,0.398,0.719V19.891z"/>
	<path fill="#474A56" d="M19.434,9.641h-6.102c-1.383,0-2.508,1.124-2.508,2.507v0.211V45.73v0.332c0,1.383,1.125,2.508,2.508,2.508
		h6.102c1.383,0,2.508-1.125,2.508-2.508V45.73V12.359v-0.211C21.942,10.765,20.817,9.641,19.434,9.641z"/>
	<path fill="#474A56" d="M6.587,12.359c-1.254,0-1.873,1.438-2.362,5.492c-0.362,2.997-0.561,6.971-0.561,11.192
		c0,4.222,0.199,8.197,0.561,11.194c0.49,4.055,1.108,5.492,2.362,5.492h1.031h1.144V12.359H7.618H6.587z"/>
</g>
</svg>
