<?xml version="1.0" encoding="utf-8"?>
<!-- Generator: Adobe Illustrator 17.0.0, SVG Export Plug-In . SVG Version: 6.00 Build 0)  -->
<!DOCTYPE svg PUBLIC "-//W3C//DTD SVG 1.1//EN" "http://www.w3.org/Graphics/SVG/1.1/DTD/svg11.dtd">
<svg version="1.1" id="Layer_1" xmlns="http://www.w3.org/2000/svg" xmlns:xlink="http://www.w3.org/1999/xlink" x="0px" y="0px"
	 width="56.693px" height="56.693px" viewBox="0 0 56.693 56.693" enable-background="new 0 0 56.693 56.693" xml:space="preserve">
<g>
	<path fill="#474A56" d="M41.128,28.714c-6.699,0-12.129,5.429-12.129,12.128c0,6.701,5.43,12.131,12.129,12.131
		s12.132-5.43,12.132-12.131C53.26,34.143,47.827,28.714,41.128,28.714z M46.568,42.264H35.695c-0.786,0-1.418-0.637-1.418-1.42
		c0-0.785,0.632-1.418,1.418-1.418h10.873c0.782,0,1.417,0.633,1.417,1.418C47.985,41.627,47.351,42.264,46.568,42.264z"/>
	<path fill="#474A56" d="M31.866,28.344c1.003-1.357,1.806-3.023,2.331-4.902c0.918-0.646,1.522-1.732,1.522-2.965
		c0-0.878-0.316-1.67-0.824-2.293v-5.01c0-5.174-2.88-8.713-9.465-8.713c-6.414,0-9.467,3.539-9.467,8.713v5.01
		c-0.506,0.623-0.824,1.416-0.824,2.293c0,1.232,0.604,2.316,1.523,2.964c0.689,2.473,1.858,4.585,3.338,6.1v1.345
		c-0.663,2.131-8.585,6.447-15.721,9.207c-0.606,0.235-1.01,0.828-1.01,1.489v5.597c0,0.879,0.703,1.593,1.57,1.593h23.133
		c-1.481-2.356-2.35-5.134-2.35-8.115C25.624,35.608,28.089,31.137,31.866,28.344z"/>
</g>
</svg>
