<?xml version="1.0" encoding="utf-8"?>
<!-- Generator: Adobe Illustrator 17.0.0, SVG Export Plug-In . SVG Version: 6.00 Build 0)  -->
<!DOCTYPE svg PUBLIC "-//W3C//DTD SVG 1.1//EN" "http://www.w3.org/Graphics/SVG/1.1/DTD/svg11.dtd">
<svg version="1.1" id="Layer_1" xmlns="http://www.w3.org/2000/svg" xmlns:xlink="http://www.w3.org/1999/xlink" x="0px" y="0px"
	 width="56.693px" height="56.693px" viewBox="0 0 56.693 56.693" enable-background="new 0 0 56.693 56.693" xml:space="preserve">
<g>
	<path fill="#474A56" d="M43.427,15.893h-1.983v-2.729l0.389-0.389c0.405-0.405,0.405-1.062,0-1.469l-0.389-0.388V9.604
		c0-0.573-0.465-1.039-1.038-1.039H16.287c-0.574,0-1.04,0.466-1.04,1.039v1.314l-0.387,0.388c-0.406,0.406-0.406,1.063,0,1.469
		l0.387,0.389v2.729h-1.981c-0.957,0-1.732,0.775-1.732,1.732v11.236c0,0.956,0.775,1.731,1.732,1.731h11.749v3.435
		c0,0.491,0.348,0.883,0.807,0.991v18.348c0,0.573,0.466,1.039,1.039,1.039h2.972c0.573,0,1.039-0.466,1.039-1.039V35.019
		c0.458-0.108,0.807-0.499,0.807-0.991v-3.435h11.749c0.958,0,1.733-0.775,1.733-1.731V17.625
		C45.16,16.668,44.385,15.893,43.427,15.893z M17.062,12.04c0.17-0.19,0.265-0.436,0.265-0.693v-0.705h22.039v0.705
		c0,0.258,0.095,0.503,0.265,0.693c-0.17,0.189-0.265,0.438-0.265,0.693v3.159H17.326v-3.159
		C17.326,12.478,17.231,12.23,17.062,12.04z M41.695,27.129H14.997v-7.772h26.698V27.129z"/>
	<rect x="20.368" y="11.425" fill="#474A56" width="1.229" height="2.775"/>
	<rect x="34.637" y="11.425" fill="#474A56" width="1.23" height="2.775"/>
</g>
</svg>
