<?xml version="1.0" encoding="utf-8"?>
<!-- Generator: Adobe Illustrator 17.0.0, SVG Export Plug-In . SVG Version: 6.00 Build 0)  -->
<!DOCTYPE svg PUBLIC "-//W3C//DTD SVG 1.1//EN" "http://www.w3.org/Graphics/SVG/1.1/DTD/svg11.dtd">
<svg version="1.1" id="Layer_1" xmlns="http://www.w3.org/2000/svg" xmlns:xlink="http://www.w3.org/1999/xlink" x="0px" y="0px"
	 width="56.693px" height="56.693px" viewBox="0 0 56.693 56.693" enable-background="new 0 0 56.693 56.693" xml:space="preserve">
<g>
	<polygon fill="#474A56" points="33.184,32.58 27.059,32.58 37.469,17.599 31.568,17.599 35.732,7.634 22.777,7.634 16.648,22.855 
		22.314,22.855 16.648,37.697 22.777,37.697 22.777,49.273 	"/>
	<path fill="#474A56" d="M7.197,21.497h6.764l1.549-3.845H5.277c-1.059,0-1.924,0.866-1.924,1.923v23.063
		c0,1.058,0.865,1.922,1.924,1.922h14.5v-3.845H7.197V21.497z"/>
	<path fill="#474A56" d="M51.662,25.339h-2.18v-5.765c0-1.057-0.865-1.923-1.922-1.923h-6.332l-2.672,3.845h7.082v19.219H31.793
		l-2.396,3.845h18.164c1.057,0,1.922-0.864,1.922-1.922v-5.766h2.18c0.916,0,1.664-0.748,1.664-1.664v-8.201
		C53.326,26.09,52.578,25.339,51.662,25.339z"/>
</g>
</svg>
