<?xml version="1.0" encoding="utf-8"?>
<!-- Generator: Adobe Illustrator 17.0.0, SVG Export Plug-In . SVG Version: 6.00 Build 0)  -->
<!DOCTYPE svg PUBLIC "-//W3C//DTD SVG 1.1//EN" "http://www.w3.org/Graphics/SVG/1.1/DTD/svg11.dtd">
<svg version="1.1" id="Layer_1" xmlns="http://www.w3.org/2000/svg" xmlns:xlink="http://www.w3.org/1999/xlink" x="0px" y="0px"
	 width="56.693px" height="56.693px" viewBox="0 0 56.693 56.693" enable-background="new 0 0 56.693 56.693" xml:space="preserve">
<g>
	<path fill="#474A56" d="M14.343,20.004h19.803v3.7c0,0.565,0.316,1.08,0.819,1.336c0.215,0.109,0.448,0.164,0.681,0.164
		c0.312,0,0.621-0.097,0.882-0.287l9.224-6.699c0.389-0.283,0.619-0.734,0.619-1.214c0-0.48-0.231-0.932-0.619-1.214l-9.224-6.699
		c-0.457-0.331-1.061-0.378-1.562-0.123c-0.503,0.256-0.819,0.773-0.819,1.337v3.699H14.343c-6.076,0-11.019,4.943-11.019,11.02
		v5.804c0,1.656,1.343,3,3,3c1.656,0,3-1.344,3-3v-5.804C9.324,22.256,11.576,20.004,14.343,20.004z"/>
	<path fill="#474A56" d="M50.216,24.024c-1.657,0-3,1.343-3,3v5.804c0,2.768-2.252,5.019-5.02,5.019h-19.9v-3.701
		c0-0.564-0.317-1.081-0.819-1.337c-0.503-0.255-1.106-0.207-1.564,0.123l-9.221,6.701c-0.389,0.281-0.619,0.732-0.619,1.213
		c0,0.48,0.231,0.932,0.619,1.213l9.221,6.7c0.262,0.191,0.571,0.287,0.883,0.287c0.232,0,0.465-0.055,0.681-0.164
		c0.503-0.256,0.819-0.771,0.819-1.336v-3.699h19.9c6.076,0,11.02-4.942,11.02-11.019v-5.804
		C53.216,25.367,51.873,24.024,50.216,24.024z"/>
</g>
</svg>
