<?xml version="1.0" encoding="utf-8"?>
<!-- Generator: Adobe Illustrator 17.0.0, SVG Export Plug-In . SVG Version: 6.00 Build 0)  -->
<!DOCTYPE svg PUBLIC "-//W3C//DTD SVG 1.1//EN" "http://www.w3.org/Graphics/SVG/1.1/DTD/svg11.dtd">
<svg version="1.1" id="Layer_1" xmlns="http://www.w3.org/2000/svg" xmlns:xlink="http://www.w3.org/1999/xlink" x="0px" y="0px"
	 width="56.693px" height="56.693px" viewBox="0 0 56.693 56.693" enable-background="new 0 0 56.693 56.693" xml:space="preserve">
<g>
	<g>
		<path fill="#474A56" d="M47.529,12.288l-7.275-7.171c-0.324-0.32-0.762-0.499-1.218-0.499H10.238
			c-0.959,0-1.735,0.777-1.735,1.735v46.426c0,0.959,0.776,1.736,1.735,1.736h36.071c0.961,0,1.737-0.777,1.737-1.736V13.523
			C48.047,13.059,47.859,12.614,47.529,12.288z M44.576,51.043H11.973V8.088h26.021v5.452c0,0.575,0.465,1.04,1.041,1.04h5.54
			V51.043z"/>
	</g>
	<g>
		<path fill="#474A56" d="M38.335,32.001c-0.226-0.45-0.69-0.733-1.194-0.733l-4.558,0.002l-1.275-12.108
			c0-1.729-1.401-3.13-3.132-3.13c-1.729,0-3.129,1.4-3.129,3.13L23.77,31.268l-2.552,0.002h-2.006c-0.114,0-0.224,0.017-0.33,0.044
			c-0.03,0.007-0.059,0.018-0.086,0.026c-0.082,0.028-0.162,0.063-0.236,0.104c-0.022,0.013-0.045,0.022-0.066,0.036
			c-0.082,0.053-0.161,0.112-0.23,0.181c-0.007,0.005-0.009,0.011-0.015,0.019c-0.09,0.093-0.17,0.201-0.232,0.321
			c-0.229,0.448-0.188,0.988,0.109,1.396l8.962,11.064c0.254,0.347,0.658,0.553,1.086,0.553c0.432,0,0.834-0.206,1.085-0.553
			l8.966-11.064c0.182-0.25,0.256-0.547,0.242-0.845v0c-0.004-0.09-0.012-0.178-0.035-0.265
			C38.414,32.187,38.382,32.092,38.335,32.001z"/>
	</g>
</g>
</svg>
