<?xml version="1.0" encoding="utf-8"?>
<!-- Generator: Adobe Illustrator 17.0.0, SVG Export Plug-In . SVG Version: 6.00 Build 0)  -->
<!DOCTYPE svg PUBLIC "-//W3C//DTD SVG 1.1//EN" "http://www.w3.org/Graphics/SVG/1.1/DTD/svg11.dtd">
<svg version="1.1" id="Layer_1" xmlns="http://www.w3.org/2000/svg" xmlns:xlink="http://www.w3.org/1999/xlink" x="0px" y="0px"
	 width="56.693px" height="56.693px" viewBox="0 0 56.693 56.693" enable-background="new 0 0 56.693 56.693" xml:space="preserve">
<g>
	<path fill="#474A56" d="M28.262,18.924c-5.1,0-9.246,4.147-9.246,9.246c0,5.098,4.146,9.245,9.246,9.245
		c5.097,0,9.244-4.148,9.244-9.245C37.506,23.071,33.358,18.924,28.262,18.924z M28.262,32.831c-2.57,0-4.661-2.092-4.661-4.661
		c0-2.569,2.091-4.661,4.661-4.661c2.568,0,4.659,2.092,4.659,4.661C32.921,30.739,30.83,32.831,28.262,32.831z"/>
	<path fill="#474A56" d="M51.531,12.741L43.93,5.138c-0.263-0.263-0.69-0.263-0.952,0l-8.918,8.916
		c-0.126,0.127-0.197,0.299-0.197,0.476c0,0.18,0.071,0.35,0.197,0.477l7.604,7.602c0.131,0.132,0.304,0.197,0.476,0.197
		c0.173,0,0.345-0.065,0.476-0.197l8.916-8.915c0.126-0.127,0.197-0.299,0.197-0.477C51.728,13.038,51.657,12.867,51.531,12.741z"/>
	<path fill="#474A56" d="M22.839,13.745l-2.633-2.635c-0.126-0.126-0.299-0.197-0.476-0.197c-0.179,0-0.35,0.071-0.477,0.197
		l-7.943,7.943c-0.126,0.127-0.197,0.298-0.197,0.476c0,0.179,0.071,0.35,0.197,0.477l2.635,2.633
		c0.132,0.132,0.304,0.197,0.476,0.197c0.173,0,0.346-0.065,0.477-0.197l7.942-7.941C23.101,14.436,23.101,14.009,22.839,13.745z"/>
	<path fill="#474A56" d="M17.437,8.344L14.805,5.71c-0.126-0.127-0.298-0.197-0.477-0.197c-0.179,0-0.35,0.07-0.477,0.197
		l-7.943,7.941c-0.263,0.264-0.263,0.689,0,0.953l2.635,2.635c0.126,0.127,0.297,0.197,0.477,0.197c0.179,0,0.35-0.07,0.476-0.197
		l7.942-7.943C17.701,9.033,17.701,8.607,17.437,8.344z"/>
	<path fill="#474A56" d="M33.877,48.333H22.644c-0.373,0-0.674,0.303-0.674,0.674v3.725c0,0.373,0.301,0.674,0.674,0.674h11.232
		c0.371,0,0.674-0.301,0.674-0.674v-3.725c0-0.179-0.071-0.35-0.197-0.477C34.227,48.404,34.055,48.333,33.877,48.333z"/>
	<path fill="#474A56" d="M33.877,40.695H22.644c-0.373,0-0.674,0.302-0.674,0.673v3.726c0,0.372,0.301,0.674,0.674,0.674h11.232
		c0.371,0,0.674-0.302,0.674-0.674v-3.726C34.551,40.997,34.248,40.695,33.877,40.695z"/>
</g>
</svg>
