<?xml version="1.0" encoding="utf-8"?>
<!-- Generator: Adobe Illustrator 17.0.0, SVG Export Plug-In . SVG Version: 6.00 Build 0)  -->
<!DOCTYPE svg PUBLIC "-//W3C//DTD SVG 1.1//EN" "http://www.w3.org/Graphics/SVG/1.1/DTD/svg11.dtd">
<svg version="1.1" id="Layer_1" xmlns="http://www.w3.org/2000/svg" xmlns:xlink="http://www.w3.org/1999/xlink" x="0px" y="0px"
	 width="56.693px" height="56.693px" viewBox="0 0 56.693 56.693" enable-background="new 0 0 56.693 56.693" xml:space="preserve">
<g>
	<path fill="#474A56" d="M28.213,3.993C14.635,3.993,3.59,15.038,3.59,28.616c0,13.578,11.045,24.624,24.623,24.624
		s24.625-11.046,24.625-24.624C52.838,15.038,41.792,3.993,28.213,3.993z M28.213,49.696c-11.623,0-21.078-9.457-21.078-21.08
		c0-11.623,9.455-21.079,21.078-21.079c11.623,0,21.08,9.456,21.08,21.079C49.294,40.239,39.837,49.696,28.213,49.696z"/>
	<circle fill="#474A56" cx="20.108" cy="25.461" r="4.457"/>
	<circle fill="#474A56" cx="36.321" cy="25.462" r="4.457"/>
	<path fill="#474A56" d="M34.295,35.947h-12.16c-0.98,0-1.773,0.794-1.773,1.772s0.793,1.771,1.773,1.771h12.16
		c0.979,0,1.771-0.793,1.771-1.771S35.274,35.947,34.295,35.947z"/>
</g>
</svg>
