<?xml version="1.0" encoding="utf-8"?>
<!-- Generator: Adobe Illustrator 17.0.0, SVG Export Plug-In . SVG Version: 6.00 Build 0)  -->
<!DOCTYPE svg PUBLIC "-//W3C//DTD SVG 1.1//EN" "http://www.w3.org/Graphics/SVG/1.1/DTD/svg11.dtd">
<svg version="1.1" id="Layer_1" xmlns="http://www.w3.org/2000/svg" xmlns:xlink="http://www.w3.org/1999/xlink" x="0px" y="0px"
	 width="56.693px" height="56.693px" viewBox="0 0 56.693 56.693" enable-background="new 0 0 56.693 56.693" xml:space="preserve">
<g>
	<path fill="#474A56" d="M28.028,4.617H8.639c-2.426,0-4.408,1.984-4.408,4.407v41.165c0,2.424,1.982,4.407,4.408,4.407h19.389
		c2.424,0,4.408-1.982,4.408-4.407V9.024C32.436,6.601,30.452,4.617,28.028,4.617z M18.333,52.106c-1.463,0-2.644-1.183-2.644-2.644
		c0-1.46,1.182-2.645,2.644-2.646c1.463,0,2.646,1.186,2.646,2.646C20.979,50.923,19.796,52.105,18.333,52.106z M29.438,44.589
		H7.229V11.722h22.209V44.589z"/>
	<path fill="#474A56" d="M40.451,21.131c-0.625-0.626-1.638-0.626-2.265-0.001c-0.626,0.626-0.627,1.64-0.002,2.266
		c3.024,3.025,3.021,7.944-0.004,10.966c-0.625,0.625-0.627,1.639-0.001,2.265c0.624,0.627,1.638,0.627,2.265,0.002
		C44.718,32.358,44.722,25.406,40.451,21.131z"/>
	<path fill="#474A56" d="M46.243,15.345c-0.623-0.625-1.637-0.625-2.263,0c-0.628,0.625-0.629,1.639-0.002,2.267
		c6.213,6.218,6.205,16.331-0.011,22.544c-0.629,0.625-0.627,1.64-0.004,2.265c0.626,0.625,1.642,0.626,2.268,0.001
		C53.698,34.96,53.705,22.814,46.243,15.345z"/>
</g>
</svg>
