<?xml version="1.0" encoding="utf-8"?>
<!-- Generator: Adobe Illustrator 17.0.0, SVG Export Plug-In . SVG Version: 6.00 Build 0)  -->
<!DOCTYPE svg PUBLIC "-//W3C//DTD SVG 1.1//EN" "http://www.w3.org/Graphics/SVG/1.1/DTD/svg11.dtd">
<svg version="1.1" id="Layer_1" xmlns="http://www.w3.org/2000/svg" xmlns:xlink="http://www.w3.org/1999/xlink" x="0px" y="0px"
	 width="56.693px" height="56.693px" viewBox="0 0 56.693 56.693" enable-background="new 0 0 56.693 56.693" xml:space="preserve">
<g>
	<path fill="#474A56" d="M18.365,17.316c0.223,0.438,0.673,0.712,1.164,0.712h17.427c0.111,0,0.216-0.019,0.319-0.043
		c0.029-0.009,0.06-0.019,0.087-0.026c0.081-0.028,0.155-0.062,0.228-0.101c0.024-0.014,0.044-0.022,0.065-0.036
		c0.081-0.052,0.157-0.109,0.224-0.177c0.006-0.005,0.01-0.012,0.013-0.017c0.088-0.091,0.168-0.194,0.228-0.312
		c0.223-0.437,0.182-0.962-0.106-1.358L29.296,5.202c-0.244-0.337-0.637-0.538-1.055-0.538c-0.419,0.001-0.809,0.201-1.054,0.538
		L18.472,15.96c-0.175,0.242-0.248,0.533-0.234,0.821c0.004,0.088,0.012,0.174,0.033,0.258
		C18.291,17.136,18.321,17.227,18.365,17.316z"/>
	<path fill="#474A56" d="M51.229,22.88H5.464c-0.984,0-1.782,0.799-1.782,1.783v27.96c0,0.984,0.798,1.782,1.782,1.782h45.766
		c0.984,0,1.782-0.798,1.782-1.782v-27.96C53.012,23.679,52.214,22.88,51.229,22.88z M49.447,50.841H7.246V26.445h42.201V50.841z"/>
	<path fill="#474A56" d="M17.517,40.736h0.542c0.984,0,1.782-0.798,1.782-1.782v-0.543c0-0.984-0.798-1.783-1.782-1.783h-0.542
		c-0.984,0-1.782,0.799-1.782,1.783v0.543C15.734,39.938,16.532,40.736,17.517,40.736z"/>
	<path fill="#474A56" d="M18.58,45.476v0.358c0,0.984,0.798,1.782,1.782,1.782h16.033c0.984,0,1.782-0.798,1.782-1.782v-0.358
		c0-0.984-0.798-1.783-1.782-1.783H20.362C19.378,43.692,18.58,44.491,18.58,45.476z"/>
	<path fill="#474A56" d="M22.832,40.736h0.542c0.984,0,1.782-0.798,1.782-1.782v-0.543c0-0.984-0.798-1.783-1.782-1.783h-0.542
		c-0.984,0-1.782,0.799-1.782,1.783v0.543C21.05,39.938,21.848,40.736,22.832,40.736z"/>
	<path fill="#474A56" d="M28.149,40.736h0.543c0.984,0,1.782-0.798,1.782-1.782v-0.543c0-0.984-0.798-1.783-1.782-1.783h-0.543
		c-0.984,0-1.782,0.799-1.782,1.783v0.543C26.367,39.938,27.165,40.736,28.149,40.736z"/>
	<path fill="#474A56" d="M33.465,40.736h0.542c0.984,0,1.782-0.798,1.782-1.782v-0.543c0-0.984-0.798-1.783-1.782-1.783h-0.542
		c-0.985,0-1.782,0.799-1.782,1.783v0.543C31.683,39.938,32.479,40.736,33.465,40.736z"/>
	<path fill="#474A56" d="M38.782,40.736h0.543c0.984,0,1.782-0.798,1.782-1.782v-0.543c0-0.984-0.798-1.783-1.782-1.783h-0.543
		c-0.984,0-1.782,0.799-1.782,1.783v0.543C37,39.938,37.798,40.736,38.782,40.736z"/>
	<path fill="#474A56" d="M12.199,33.764h0.543c0.984,0,1.782-0.798,1.782-1.782v-0.541c0-0.984-0.798-1.781-1.782-1.781h-0.543
		c-0.984,0-1.782,0.797-1.782,1.781v0.541C10.417,32.966,11.215,33.764,12.199,33.764z"/>
	<path fill="#474A56" d="M17.517,33.764h0.542c0.984,0,1.782-0.798,1.782-1.782v-0.541c0-0.984-0.798-1.781-1.782-1.781h-0.542
		c-0.984,0-1.782,0.797-1.782,1.781v0.541C15.734,32.966,16.532,33.764,17.517,33.764z"/>
	<path fill="#474A56" d="M22.832,33.764h0.542c0.984,0,1.782-0.798,1.782-1.782v-0.541c0-0.984-0.798-1.781-1.782-1.781h-0.542
		c-0.984,0-1.782,0.797-1.782,1.781v0.541C21.05,32.966,21.848,33.764,22.832,33.764z"/>
	<path fill="#474A56" d="M28.149,33.764h0.543c0.984,0,1.782-0.798,1.782-1.782v-0.541c0-0.984-0.798-1.781-1.782-1.781h-0.543
		c-0.984,0-1.782,0.797-1.782,1.781v0.541C26.367,32.966,27.165,33.764,28.149,33.764z"/>
	<path fill="#474A56" d="M33.465,33.764h0.542c0.984,0,1.782-0.798,1.782-1.782v-0.541c0-0.984-0.798-1.781-1.782-1.781h-0.542
		c-0.985,0-1.782,0.797-1.782,1.781v0.541C31.683,32.966,32.479,33.764,33.465,33.764z"/>
	<path fill="#474A56" d="M38.782,33.764h0.543c0.984,0,1.782-0.798,1.782-1.782v-0.541c0-0.984-0.798-1.781-1.782-1.781h-0.543
		c-0.984,0-1.782,0.797-1.782,1.781v0.541C37,32.966,37.798,33.764,38.782,33.764z"/>
	<path fill="#474A56" d="M44.098,33.764h0.542c0.985,0,1.783-0.798,1.783-1.782v-0.541c0-0.984-0.798-1.781-1.783-1.781h-0.542
		c-0.984,0-1.782,0.797-1.782,1.781v0.541C42.315,32.966,43.113,33.764,44.098,33.764z"/>
</g>
</svg>
