<?xml version="1.0" encoding="utf-8"?>
<!-- Generator: Adobe Illustrator 17.0.0, SVG Export Plug-In . SVG Version: 6.00 Build 0)  -->
<!DOCTYPE svg PUBLIC "-//W3C//DTD SVG 1.1//EN" "http://www.w3.org/Graphics/SVG/1.1/DTD/svg11.dtd">
<svg version="1.1" id="Layer_1" xmlns="http://www.w3.org/2000/svg" xmlns:xlink="http://www.w3.org/1999/xlink" x="0px" y="0px"
	 width="56.693px" height="56.693px" viewBox="0 0 56.693 56.693" enable-background="new 0 0 56.693 56.693" xml:space="preserve">
<g>
	<path fill="#474A56" d="M52.385,6.479c-0.153-0.118-0.36-0.14-0.529-0.051l-47.8,24.443c-0.18,0.091-0.283,0.279-0.268,0.479
		c0.018,0.198,0.152,0.368,0.342,0.43l15.128,4.812c0.166,0.053,0.35,0.015,0.478-0.104l23.01-19.669L25.072,37.739
		c-0.107,0.126-0.143,0.298-0.097,0.458c0.048,0.157,0.171,0.282,0.329,0.33l17.755,5.409c0.047,0.014,0.095,0.021,0.143,0.021
		c0.085,0,0.17-0.023,0.244-0.065c0.117-0.068,0.203-0.179,0.235-0.312l8.876-36.597C52.602,6.795,52.535,6.599,52.385,6.479z"/>
	<path fill="#474A56" d="M30.5,43.872l-4.906-1.51c-0.148-0.049-0.312-0.02-0.438,0.074c-0.127,0.093-0.2,0.24-0.2,0.396v9.262
		c0,0.22,0.145,0.412,0.356,0.474c0.044,0.012,0.09,0.02,0.137,0.02c0.165,0,0.322-0.085,0.416-0.229l4.906-7.753
		c0.083-0.129,0.1-0.29,0.046-0.433C30.763,44.028,30.646,43.917,30.5,43.872z"/>
</g>
</svg>
