<?xml version="1.0" encoding="utf-8"?>
<!-- Generator: Adobe Illustrator 17.0.0, SVG Export Plug-In . SVG Version: 6.00 Build 0)  -->
<!DOCTYPE svg PUBLIC "-//W3C//DTD SVG 1.1//EN" "http://www.w3.org/Graphics/SVG/1.1/DTD/svg11.dtd">
<svg version="1.1" id="Layer_1" xmlns="http://www.w3.org/2000/svg" xmlns:xlink="http://www.w3.org/1999/xlink" x="0px" y="0px"
	 width="56.693px" height="56.693px" viewBox="0 0 56.693 56.693" enable-background="new 0 0 56.693 56.693" xml:space="preserve">
<g>
	<path fill="#474A56" d="M13.095,39.271l3.416,2.768c0.017,0.012,0.037,0.016,0.055,0.027v-0.001
		c0.272,0.179,0.585,0.261,0.901,0.247h0.001c0.102-0.005,0.201-0.015,0.3-0.039c0.112-0.024,0.22-0.059,0.323-0.112
		c0.509-0.256,0.829-0.781,0.829-1.351l-0.002-5.156l13.698-1.444c1.956,0,3.54-1.586,3.54-3.542c0-1.955-1.584-3.539-3.54-3.539
		l-13.696-1.444l-0.002-2.887v-2.269c0-0.128-0.02-0.253-0.051-0.372c-0.008-0.035-0.02-0.066-0.029-0.099
		c-0.032-0.094-0.071-0.184-0.118-0.267c-0.015-0.026-0.025-0.052-0.041-0.075c-0.06-0.093-0.127-0.182-0.204-0.26
		c-0.006-0.007-0.013-0.011-0.022-0.016c-0.105-0.104-0.228-0.193-0.363-0.264c-0.507-0.259-1.118-0.213-1.579,0.125L3.995,29.44
		c-0.393,0.286-0.625,0.744-0.625,1.229c0,0.487,0.232,0.942,0.625,1.227L13.095,39.271L13.095,39.271z"/>
	<path fill="#474A56" d="M52.122,12.288l-7.275-7.171c-0.324-0.32-0.762-0.499-1.218-0.499H14.831c-0.959,0-1.735,0.777-1.735,1.735
		v11.855l1.527-1.237l0.057-0.046l0.059-0.042c0.549-0.403,1.171-0.663,1.828-0.786V8.088h26.022v5.452
		c0,0.575,0.465,1.04,1.041,1.04h5.54v36.463H16.566v-5.811c-0.655-0.119-1.272-0.372-1.812-0.762l-0.066-0.048l-0.064-0.052
		l-1.527-1.238v9.647c0,0.959,0.776,1.736,1.735,1.736h36.071c0.961,0,1.737-0.777,1.737-1.736V13.523
		C52.639,13.059,52.452,12.614,52.122,12.288z"/>
</g>
</svg>
