<?xml version="1.0" encoding="utf-8"?>
<!-- Generator: Adobe Illustrator 17.0.0, SVG Export Plug-In . SVG Version: 6.00 Build 0)  -->
<!DOCTYPE svg PUBLIC "-//W3C//DTD SVG 1.1//EN" "http://www.w3.org/Graphics/SVG/1.1/DTD/svg11.dtd">
<svg version="1.1" id="Layer_1" xmlns="http://www.w3.org/2000/svg" xmlns:xlink="http://www.w3.org/1999/xlink" x="0px" y="0px"
	 width="56.693px" height="56.693px" viewBox="0 0 56.693 56.693" enable-background="new 0 0 56.693 56.693" xml:space="preserve">
<g>
	<path fill="#474A56" d="M12.456,20.237c-0.127-0.12-0.297-0.179-0.512-0.179c-0.22,0-0.401,0.059-0.536,0.179
		c-0.134,0.117-0.202,0.251-0.202,0.399v3.115c0,0.386,0.037,0.746,0.109,1.077c0.074,0.333,0.202,0.621,0.384,0.862
		c0.18,0.244,0.423,0.432,0.727,0.567c0.303,0.136,0.681,0.203,1.133,0.203c0.467,0,0.85-0.085,1.15-0.252
		c0.3-0.168,0.54-0.396,0.722-0.684c0.172,0.288,0.406,0.516,0.7,0.684c0.297,0.167,0.687,0.252,1.171,0.252
		c0.451,0,0.827-0.067,1.127-0.203c0.299-0.135,0.541-0.324,0.721-0.567c0.179-0.241,0.308-0.529,0.382-0.862
		c0.074-0.332,0.109-0.691,0.109-1.077v-3.115c0-0.148-0.065-0.282-0.196-0.399c-0.132-0.12-0.312-0.179-0.542-0.179
		c-0.205,0-0.372,0.059-0.499,0.179c-0.129,0.117-0.189,0.251-0.189,0.399v3.165c0,0.451-0.083,0.784-0.246,0.998
		c-0.165,0.215-0.429,0.321-0.79,0.321c-0.369,0-0.632-0.106-0.788-0.321c-0.155-0.214-0.234-0.547-0.234-0.998v-3.177
		c0-0.181-0.077-0.319-0.233-0.419c-0.155-0.097-0.316-0.147-0.48-0.147c-0.073,0-0.153,0.014-0.24,0.042
		c-0.087,0.029-0.167,0.066-0.239,0.111c-0.074,0.045-0.137,0.1-0.186,0.167c-0.05,0.064-0.074,0.135-0.074,0.208v3.214
		c0,0.451-0.078,0.784-0.234,0.998c-0.156,0.215-0.42,0.321-0.787,0.321c-0.37,0-0.637-0.106-0.795-0.321
		c-0.16-0.214-0.24-0.547-0.24-0.998v-3.165C12.646,20.488,12.582,20.354,12.456,20.237z"/>
	<path fill="#474A56" d="M28.827,20.058c-0.205,0-0.372,0.059-0.499,0.179c-0.126,0.117-0.19,0.251-0.19,0.399v3.165
		c0,0.451-0.081,0.784-0.246,0.998c-0.164,0.215-0.427,0.321-0.788,0.321c-0.369,0-0.632-0.106-0.789-0.321
		c-0.154-0.214-0.233-0.547-0.233-0.998v-3.177c0-0.181-0.077-0.319-0.233-0.419c-0.155-0.097-0.315-0.147-0.481-0.147
		c-0.074,0-0.152,0.014-0.239,0.042c-0.086,0.029-0.166,0.066-0.239,0.111c-0.074,0.045-0.136,0.1-0.185,0.167
		c-0.051,0.064-0.075,0.135-0.075,0.208v3.214c0,0.451-0.077,0.784-0.233,0.998c-0.156,0.215-0.419,0.321-0.787,0.321
		c-0.37,0-0.635-0.106-0.796-0.321c-0.159-0.214-0.239-0.547-0.239-0.998v-3.165c0-0.148-0.064-0.282-0.191-0.399
		c-0.129-0.12-0.297-0.179-0.511-0.179c-0.223,0-0.399,0.059-0.535,0.179c-0.136,0.117-0.204,0.251-0.204,0.399v3.115
		c0,0.386,0.037,0.746,0.111,1.077c0.072,0.333,0.2,0.621,0.381,0.862c0.182,0.244,0.424,0.432,0.727,0.567
		c0.305,0.136,0.682,0.203,1.134,0.203c0.468,0,0.852-0.085,1.151-0.252c0.299-0.168,0.54-0.396,0.721-0.684
		c0.172,0.288,0.407,0.516,0.701,0.684c0.295,0.167,0.687,0.252,1.171,0.252c0.45,0,0.826-0.067,1.126-0.203
		c0.299-0.135,0.539-0.324,0.721-0.567c0.182-0.241,0.309-0.529,0.383-0.862c0.073-0.332,0.11-0.691,0.11-1.077v-3.115
		c0-0.148-0.067-0.282-0.199-0.399C29.238,20.117,29.056,20.058,28.827,20.058z"/>
	<path fill="#474A56" d="M32.306,20.237c-0.127-0.12-0.297-0.179-0.51-0.179c-0.223,0-0.401,0.059-0.537,0.179
		c-0.135,0.117-0.203,0.251-0.203,0.399v3.115c0,0.386,0.037,0.746,0.111,1.077c0.072,0.333,0.2,0.621,0.382,0.862
		c0.18,0.244,0.421,0.432,0.727,0.567c0.304,0.136,0.681,0.203,1.134,0.203c0.466,0,0.851-0.085,1.15-0.252
		c0.299-0.168,0.539-0.396,0.72-0.684c0.173,0.288,0.407,0.516,0.703,0.684c0.295,0.167,0.685,0.252,1.169,0.252
		c0.451,0,0.827-0.067,1.127-0.203C38.58,26.122,38.82,25.934,39,25.69c0.18-0.241,0.308-0.529,0.38-0.862
		c0.076-0.332,0.113-0.691,0.113-1.077v-3.115c0-0.148-0.066-0.282-0.199-0.399c-0.131-0.12-0.312-0.179-0.54-0.179
		c-0.205,0-0.373,0.059-0.5,0.179c-0.127,0.117-0.19,0.251-0.19,0.399v3.165c0,0.451-0.082,0.784-0.247,0.998
		c-0.163,0.215-0.427,0.321-0.787,0.321c-0.369,0-0.632-0.106-0.788-0.321c-0.155-0.214-0.233-0.547-0.233-0.998v-3.177
		c0-0.181-0.079-0.319-0.235-0.419c-0.154-0.097-0.316-0.147-0.478-0.147c-0.074,0-0.154,0.014-0.243,0.042
		c-0.085,0.029-0.164,0.066-0.237,0.111c-0.074,0.045-0.136,0.1-0.185,0.167c-0.05,0.064-0.074,0.135-0.074,0.208v3.214
		c0,0.451-0.079,0.784-0.235,0.998c-0.154,0.215-0.419,0.321-0.786,0.321c-0.37,0-0.635-0.106-0.795-0.321
		c-0.16-0.214-0.241-0.547-0.241-0.998v-3.165C32.497,20.488,32.435,20.354,32.306,20.237z"/>
	<path fill="#474A56" d="M40.976,25.131c-0.145,0.124-0.216,0.264-0.216,0.419v0.309c0,0.155,0.071,0.296,0.216,0.418
		c0.143,0.124,0.339,0.184,0.583,0.184c0.223,0,0.406-0.061,0.55-0.184c0.142-0.122,0.215-0.264,0.215-0.418v-0.309
		c0-0.155-0.073-0.295-0.215-0.419c-0.144-0.123-0.327-0.184-0.55-0.184C41.315,24.947,41.119,25.007,40.976,25.131z"/>
	<path fill="#474A56" d="M44.126,17.56v11.399c0,0.276,0.224,0.5,0.5,0.5c0.276,0,0.5-0.224,0.5-0.5V17.56
		c0-0.276-0.224-0.5-0.5-0.5C44.349,17.06,44.126,17.284,44.126,17.56z"/>
	<path fill="#474A56" d="M38.743,41.538l2.655-0.524c0.186-0.037,0.335-0.175,0.386-0.358c0.05-0.183-0.008-0.378-0.149-0.505
		L30.89,30.499c-0.158-0.143-0.39-0.169-0.576-0.066c-0.186,0.104-0.287,0.313-0.25,0.524l2.454,14.066
		c0.031,0.184,0.163,0.334,0.342,0.391c0.173,0.056,0.372,0.009,0.504-0.123l2.125-2.129l2.654,4.662
		c0.069,0.121,0.185,0.208,0.32,0.239c0.038,0.009,0.076,0.013,0.114,0.013c0.099,0,0.196-0.029,0.279-0.085l2.724-1.835
		c0.114-0.077,0.191-0.197,0.214-0.333c0.022-0.136-0.012-0.274-0.095-0.384L38.743,41.538z"/>
	<path fill="#474A56" d="M51.255,32.691H37.82l4.007,3.6h9.429c0.994,0,1.8-0.806,1.8-1.8C53.055,33.496,52.25,32.691,51.255,32.691
		z"/>
	<path fill="#474A56" d="M7.094,32.691V13.384h44.161c0.994,0,1.8-0.806,1.8-1.8c0-0.994-0.806-1.8-1.8-1.8H5.295
		c-0.994,0-1.8,0.806-1.8,1.8v22.907c0,0.994,0.806,1.8,1.8,1.8H27.95l-0.628-3.6H7.094z"/>
</g>
</svg>
