<?xml version="1.0" encoding="utf-8"?>
<!-- Generator: Adobe Illustrator 17.0.0, SVG Export Plug-In . SVG Version: 6.00 Build 0)  -->
<!DOCTYPE svg PUBLIC "-//W3C//DTD SVG 1.1//EN" "http://www.w3.org/Graphics/SVG/1.1/DTD/svg11.dtd">
<svg version="1.1" id="Layer_1" xmlns="http://www.w3.org/2000/svg" xmlns:xlink="http://www.w3.org/1999/xlink" x="0px" y="0px"
	 width="56.693px" height="56.693px" viewBox="0 0 56.693 56.693" enable-background="new 0 0 56.693 56.693" xml:space="preserve">
<g>
	<path fill="#474A56" d="M42.469,43.201l2.655-0.524c0.185-0.037,0.335-0.175,0.386-0.358c0.05-0.183-0.008-0.378-0.148-0.505
		l-10.745-9.652c-0.158-0.143-0.39-0.169-0.576-0.066c-0.187,0.104-0.287,0.314-0.25,0.524l2.454,14.066
		c0.031,0.184,0.163,0.334,0.342,0.391c0.173,0.056,0.372,0.009,0.504-0.123l2.125-2.129l2.654,4.662
		c0.069,0.121,0.185,0.208,0.32,0.239c0.038,0.009,0.076,0.013,0.114,0.013c0.099,0,0.196-0.029,0.279-0.085l2.724-1.835
		c0.114-0.077,0.191-0.197,0.214-0.333c0.022-0.136-0.012-0.275-0.095-0.384L42.469,43.201z"/>
	<path fill="#474A56" d="M51.146,9.784H5.185c-0.994,0-1.8,0.806-1.8,1.8c0,0.994,0.806,1.8,1.8,1.8h22.98v19.307H5.185
		c-0.994,0-1.8,0.806-1.8,1.8c0,0.994,0.806,1.8,1.8,1.8h26.201l-0.55-3.149c-0.26-1.47,0.442-2.944,1.754-3.671
		c0.517-0.286,1.103-0.437,1.693-0.437c0.868,0,1.701,0.32,2.338,0.896l7.081,6.361h7.443c0.994,0,1.8-0.806,1.8-1.8V11.584
		C52.946,10.59,52.14,9.784,51.146,9.784z M45.527,20.732c0.006,0.145-0.029,0.289-0.118,0.411l-4.354,5.375
		c-0.122,0.168-0.317,0.268-0.527,0.268c-0.208,0-0.405-0.101-0.527-0.268l-4.354-5.375c-0.146-0.198-0.164-0.461-0.054-0.679
		c0.03-0.058,0.069-0.11,0.114-0.156c0.001-0.003,0.003-0.006,0.006-0.009c0.033-0.034,0.071-0.063,0.112-0.088
		c0.01-0.007,0.021-0.011,0.032-0.018c0.036-0.02,0.073-0.037,0.113-0.05c0.014-0.004,0.029-0.009,0.044-0.013
		c0.051-0.014,0.104-0.022,0.159-0.022l8.709,0c0.245,0,0.47,0.137,0.58,0.355c0.022,0.045,0.038,0.09,0.048,0.139
		C45.521,20.646,45.524,20.689,45.527,20.732L45.527,20.732z"/>
</g>
</svg>
