<?xml version="1.0" encoding="utf-8"?>
<!-- Generator: Adobe Illustrator 17.0.0, SVG Export Plug-In . SVG Version: 6.00 Build 0)  -->
<!DOCTYPE svg PUBLIC "-//W3C//DTD SVG 1.1//EN" "http://www.w3.org/Graphics/SVG/1.1/DTD/svg11.dtd">
<svg version="1.1" id="Layer_1" xmlns="http://www.w3.org/2000/svg" xmlns:xlink="http://www.w3.org/1999/xlink" x="0px" y="0px"
	 width="56.693px" height="56.693px" viewBox="0 0 56.693 56.693" enable-background="new 0 0 56.693 56.693" xml:space="preserve">
<g>
	<path fill="#474A56" d="M19.183,39.271l-0.643-0.643l1.305-0.943c2.127,2.098,5.044,3.396,8.263,3.396
		c6.493,0,11.777-5.283,11.777-11.778s-5.284-11.778-11.777-11.778c-0.369,0-0.733,0.022-1.094,0.055
		c-0.114,0.011-0.226,0.027-0.341,0.041c-0.247,0.03-0.492,0.067-0.735,0.113c-0.126,0.023-0.251,0.048-0.376,0.076
		c-0.237,0.053-0.471,0.114-0.702,0.181c-0.112,0.032-0.226,0.06-0.335,0.096c-0.317,0.102-0.629,0.215-0.935,0.342
		c-0.124,0.052-0.243,0.113-0.365,0.169c-0.185,0.084-0.368,0.17-0.548,0.264c-0.154,0.081-0.306,0.168-0.456,0.255
		c-0.136,0.079-0.269,0.159-0.4,0.243c-0.163,0.104-0.325,0.209-0.483,0.32c-0.093,0.066-0.183,0.136-0.274,0.205
		c-0.62,0.465-1.191,0.988-1.709,1.563c-0.027,0.03-0.056,0.06-0.083,0.091c-0.18,0.204-0.35,0.415-0.517,0.631
		c-0.017,0.022-0.033,0.044-0.051,0.067c-0.891,1.182-1.561,2.533-1.957,4c-0.012,0.042-0.022,0.085-0.033,0.127
		c-0.07,0.271-0.135,0.544-0.186,0.822c-0.023,0.128-0.04,0.26-0.06,0.39c-0.031,0.209-0.065,0.417-0.085,0.63
		c-0.035,0.361-0.057,0.726-0.057,1.096c0,0.423,0.031,0.838,0.077,1.249c0.016,0.146,0.038,0.289,0.059,0.433
		c0.039,0.261,0.087,0.519,0.143,0.774c0.036,0.167,0.069,0.333,0.112,0.497c0.09,0.339,0.192,0.673,0.311,1
		c0.172,0.477,0.365,0.943,0.594,1.391l-0.592,0.52l-0.751,0.659l-0.711-0.708h-0.337c0,0-9.381,7.506-10.672,8.569
		c-0.012,0.009-0.022,0.017-0.033,0.026c-0.263,0.217-0.469,0.389-0.605,0.506c-0.016,0.013-0.029,0.025-0.043,0.037
		C3.82,44.305,3.773,44.347,3.75,44.37c-0.54,0.54-0.336,1.755-0.336,1.755s1.013,1.757,1.891,2.634
		c0.098,0.098,0.201,0.168,0.307,0.226c0.025,0.015,0.052,0.028,0.078,0.041C5.793,49.073,5.896,49.11,6,49.128
		c0.001,0,0.002,0,0.003,0c0.079,0.013,0.157,0.02,0.233,0.02c0.019,0,0.034-0.006,0.053-0.007c0.279-0.01,0.534-0.089,0.733-0.178
		c0.033-0.015,0.057-0.026,0.086-0.041c0.067-0.034,0.123-0.062,0.168-0.089c0.023-0.014,0.033-0.019,0.051-0.03
		c0.042-0.026,0.07-0.046,0.07-0.046l11.787-8.849V39.271z M28.108,21.684c4.198,0,7.617,3.417,7.617,7.618
		s-3.419,7.617-7.617,7.617c-4.202,0-7.62-3.416-7.62-7.617S23.906,21.684,28.108,21.684z"/>
	<path fill="#474A56" d="M52.586,12.288L45.31,5.117c-0.324-0.32-0.762-0.499-1.217-0.499H15.295c-0.959,0-1.734,0.777-1.734,1.735
		v19.428c0.475-2.743,1.703-5.224,3.471-7.229V8.088h26.021v5.452c0,0.575,0.465,1.04,1.041,1.04h5.539v36.463H17.031v-4.767
		l-3.471,2.605v3.896c0,0.959,0.775,1.736,1.734,1.736h36.072c0.961,0,1.736-0.777,1.736-1.736V13.523
		C53.103,13.059,52.916,12.614,52.586,12.288z"/>
</g>
</svg>
