<?xml version="1.0" encoding="utf-8"?>
<!-- Generator: Adobe Illustrator 17.0.0, SVG Export Plug-In . SVG Version: 6.00 Build 0)  -->
<!DOCTYPE svg PUBLIC "-//W3C//DTD SVG 1.1//EN" "http://www.w3.org/Graphics/SVG/1.1/DTD/svg11.dtd">
<svg version="1.1" id="Layer_1" xmlns="http://www.w3.org/2000/svg" xmlns:xlink="http://www.w3.org/1999/xlink" x="0px" y="0px"
	 width="56.693px" height="56.693px" viewBox="0 0 56.693 56.693" enable-background="new 0 0 56.693 56.693" xml:space="preserve">
<g>
	<path fill="#474A56" d="M20.949,33.495c-0.22,0.086-0.365,0.3-0.365,0.539v2.027c0,0.319,0.254,0.578,0.568,0.578H36.07
		c0.314,0,0.568-0.259,0.568-0.578v-2.027c0-0.239-0.146-0.454-0.365-0.539c-2.586-0.999-5.455-2.562-5.695-3.335v-0.488
		c0.536-0.549,0.959-1.313,1.209-2.208c0.332-0.234,0.553-0.628,0.553-1.074c0-0.318-0.115-0.606-0.299-0.831v-1.815
		c0-1.874-1.044-3.156-3.429-3.156c-2.324,0-3.431,1.282-3.431,3.156v1.815c-0.183,0.226-0.299,0.513-0.299,0.831
		c0,0.446,0.22,0.839,0.552,1.073c0.25,0.896,0.674,1.66,1.21,2.209v0.488C26.404,30.931,23.535,32.496,20.949,33.495z"/>
	<path fill="#474A56" d="M9.134,15.257h38.955v24.426h3.471v-26.16c0-0.959-0.777-1.736-1.735-1.736H7.399
		c-0.959,0-1.736,0.777-1.736,1.736v26.16h3.472V15.257z"/>
	<path fill="#474A56" d="M31.3,42.614v0.659c0,0.521-0.423,0.942-0.943,0.942h-3.49c-0.521,0-0.943-0.422-0.943-0.942v-0.659H3.663
		v3.161c0,0.959,0.777,1.735,1.735,1.735h46.426c0.959,0,1.736-0.776,1.736-1.735v-3.161H31.3z"/>
</g>
</svg>
