<?xml version="1.0" encoding="utf-8"?>
<!-- Generator: Adobe Illustrator 17.0.0, SVG Export Plug-In . SVG Version: 6.00 Build 0)  -->
<!DOCTYPE svg PUBLIC "-//W3C//DTD SVG 1.1//EN" "http://www.w3.org/Graphics/SVG/1.1/DTD/svg11.dtd">
<svg version="1.1" id="Layer_1" xmlns="http://www.w3.org/2000/svg" xmlns:xlink="http://www.w3.org/1999/xlink" x="0px" y="0px"
	 width="56.693px" height="56.693px" viewBox="0 0 56.693 56.693" enable-background="new 0 0 56.693 56.693" xml:space="preserve">
<path fill="#474A56" d="M52.455,8.984H4.726c-0.569,0-1.035,0.547-1.035,1.221v37.093c0,0.678,0.466,1.227,1.035,1.227h47.729
	c0.572,0,1.036-0.549,1.036-1.227V10.204C53.491,9.531,53.027,8.984,52.455,8.984z M47.069,12.193h3.67v2.783h-3.67V12.193z
	 M39.223,12.193h3.671v2.783h-3.671V12.193z M31.06,12.193h3.671v2.783H31.06V12.193z M22.709,12.193h3.67v2.783h-3.67V12.193z
	 M14.355,12.193h3.671v2.783h-3.671V12.193z M6.507,12.193h3.672v2.783H6.507V12.193z M10.179,45.577H6.507v-2.784h3.672V45.577z
	 M18.026,45.577h-3.671v-2.784h3.671V45.577z M26.379,45.577h-3.67v-2.784h3.67V45.577z M26.505,37.855H6.507V20.037h19.998V37.855z
	 M34.731,45.577H31.06v-2.784h3.671V45.577z M42.894,45.577h-3.671v-2.784h3.671V45.577z M50.739,45.577h-3.67v-2.784h3.67V45.577z
	 M50.803,37.855H30.807V20.037h19.996V37.855z"/>
</svg>
