<?xml version="1.0" encoding="utf-8"?>
<!-- Generator: Adobe Illustrator 17.0.0, SVG Export Plug-In . SVG Version: 6.00 Build 0)  -->
<!DOCTYPE svg PUBLIC "-//W3C//DTD SVG 1.1//EN" "http://www.w3.org/Graphics/SVG/1.1/DTD/svg11.dtd">
<svg version="1.1" id="Layer_1" xmlns="http://www.w3.org/2000/svg" xmlns:xlink="http://www.w3.org/1999/xlink" x="0px" y="0px"
	 width="56.693px" height="56.693px" viewBox="0 0 56.693 56.693" enable-background="new 0 0 56.693 56.693" xml:space="preserve">
<g>
	<rect x="9.638" y="25.058" fill="#474A56" width="6.618" height="12.314"/>
	<rect x="18.589" y="25.058" fill="#474A56" width="6.618" height="12.314"/>
	<rect x="27.54" y="25.058" fill="#474A56" width="6.618" height="12.314"/>
	<rect x="36.492" y="25.058" fill="#474A56" width="6.617" height="12.314"/>
	<path fill="#474A56" d="M51.676,25.324h-2.18v-5.765c0-1.057-0.865-1.923-1.922-1.923H5.291c-1.058,0-1.923,0.866-1.923,1.923
		v23.064c0,1.058,0.865,1.922,1.923,1.922h42.283c1.057,0,1.922-0.864,1.922-1.922v-5.766h2.18c0.916,0,1.664-0.748,1.664-1.664
		v-8.201C53.34,26.075,52.592,25.324,51.676,25.324z M45.652,40.7H7.212V21.481h38.44V40.7z"/>
</g>
</svg>
