<?xml version="1.0" encoding="utf-8"?>
<!-- Generator: Adobe Illustrator 17.0.0, SVG Export Plug-In . SVG Version: 6.00 Build 0)  -->
<!DOCTYPE svg PUBLIC "-//W3C//DTD SVG 1.1//EN" "http://www.w3.org/Graphics/SVG/1.1/DTD/svg11.dtd">
<svg version="1.1" id="Layer_1" xmlns="http://www.w3.org/2000/svg" xmlns:xlink="http://www.w3.org/1999/xlink" x="0px" y="0px"
	 width="56.693px" height="56.693px" viewBox="0 0 56.693 56.693" enable-background="new 0 0 56.693 56.693" xml:space="preserve">
<g>
	<path fill="#474A56" d="M28.214,3.993c-13.578,0-24.623,11.045-24.623,24.623c0,13.578,11.045,24.624,24.623,24.624
		c13.578,0,24.623-11.046,24.623-24.624C52.838,15.037,41.793,3.993,28.214,3.993z M28.214,49.696
		c-11.623,0-21.08-9.457-21.08-21.08c0-11.623,9.457-21.079,21.08-21.079c11.623,0,21.078,9.456,21.078,21.079
		C49.293,40.239,39.838,49.696,28.214,49.696z"/>
	<circle fill="#474A56" cx="20.109" cy="22.626" r="4.456"/>
	<circle fill="#474A56" cx="36.32" cy="22.626" r="4.456"/>
	<path fill="#474A56" d="M38.8,33.807H17.629c-0.596,0-1.152,0.299-1.481,0.796C15.822,35.1,15.765,35.729,16,36.276
		c2.094,4.9,6.889,8.064,12.215,8.064c5.326,0,10.121-3.164,12.217-8.064c0.234-0.547,0.178-1.176-0.15-1.673
		C39.953,34.106,39.396,33.807,38.8,33.807z M28.214,40.796c-2.914,0-5.613-1.294-7.434-3.444h14.867
		C33.828,39.502,31.13,40.796,28.214,40.796z"/>
</g>
</svg>
