<?xml version="1.0" encoding="utf-8"?>
<!-- Generator: Adobe Illustrator 17.0.0, SVG Export Plug-In . SVG Version: 6.00 Build 0)  -->
<!DOCTYPE svg PUBLIC "-//W3C//DTD SVG 1.1//EN" "http://www.w3.org/Graphics/SVG/1.1/DTD/svg11.dtd">
<svg version="1.1" id="Layer_1" xmlns="http://www.w3.org/2000/svg" xmlns:xlink="http://www.w3.org/1999/xlink" x="0px" y="0px"
	 width="56.693px" height="56.693px" viewBox="0 0 56.693 56.693" enable-background="new 0 0 56.693 56.693" xml:space="preserve">
<g>
	<path fill="#474A56" d="M42.525,39.114c-0.796,0-1.461,0.686-1.489,1.476c-0.153,0.988-4.683,3.25-12.979,3.25
		s-12.826-2.262-12.979-3.25c-0.028-0.79-0.693-1.476-1.489-1.476c-0.796,0-1.447,0.632-1.476,1.422v7.417
		c0,0.178,0.032,0.347,0.088,0.504c0.908,3.774,8.64,5.503,15.855,5.503s14.947-1.729,15.855-5.503
		c0.057-0.157,0.088-0.326,0.088-0.504l-0.003-7.393C43.97,39.771,43.321,39.114,42.525,39.114z"/>
	<path fill="#474A56" d="M42.525,24.456c-0.796,0-1.461,0.686-1.489,1.476c-0.153,0.987-4.683,3.25-12.979,3.25
		s-12.826-2.263-12.979-3.25c-0.028-0.79-0.693-1.476-1.489-1.476c-0.796,0-1.447,0.632-1.476,1.422v7.416
		c0,0.178,0.032,0.348,0.088,0.505c0.908,3.774,8.64,5.502,15.855,5.502s14.947-1.728,15.855-5.502
		c0.057-0.157,0.088-0.327,0.088-0.505l-0.003-7.393C43.97,25.113,43.321,24.456,42.525,24.456z"/>
	<path fill="#474A56" d="M44.001,11.033c0-4.297-8.264-6.253-15.943-6.253s-15.943,1.956-15.943,6.253
		c0,0.009,0.003,0.017,0.003,0.025c0,0.01-0.003,0.019-0.003,0.028v7.363c0,0.178,0.032,0.347,0.088,0.504
		c0.908,3.774,8.64,5.503,15.855,5.503s14.947-1.728,15.855-5.503c0.057-0.157,0.088-0.326,0.088-0.504v-7.363
		c0-0.01-0.003-0.019-0.003-0.028C43.998,11.049,44.001,11.041,44.001,11.033z M41.036,11.086c-0.153,0.988-4.683,3.25-12.979,3.25
		s-12.826-2.262-12.979-3.25c-0.003-0.018-0.014-0.036-0.014-0.054c0-0.958,4.553-3.303,12.993-3.303s12.993,2.345,12.993,3.303
		C41.05,11.05,41.039,11.069,41.036,11.086z"/>
</g>
</svg>
