<?xml version="1.0" encoding="utf-8"?>
<!-- Generator: Adobe Illustrator 17.0.0, SVG Export Plug-In . SVG Version: 6.00 Build 0)  -->
<!DOCTYPE svg PUBLIC "-//W3C//DTD SVG 1.1//EN" "http://www.w3.org/Graphics/SVG/1.1/DTD/svg11.dtd">
<svg version="1.1" id="Layer_1" xmlns="http://www.w3.org/2000/svg" xmlns:xlink="http://www.w3.org/1999/xlink" x="0px" y="0px"
	 width="56.693px" height="56.693px" viewBox="0 0 56.693 56.693" enable-background="new 0 0 56.693 56.693" xml:space="preserve">
<g>
	<g>
		<path fill="#474A56" d="M47.633,12.288l-7.275-7.171c-0.324-0.32-0.762-0.499-1.218-0.499H10.342
			c-0.959,0-1.735,0.777-1.735,1.735v46.426c0,0.959,0.776,1.736,1.735,1.736h36.071c0.961,0,1.737-0.777,1.737-1.736V13.523
			C48.151,13.059,47.963,12.614,47.633,12.288z M44.68,51.043H12.078V8.088h26.021v5.452c0,0.575,0.465,1.04,1.041,1.04h5.54V51.043
			z"/>
	</g>
	<g>
		<path fill="#474A56" d="M29.355,16.585c-0.253-0.348-0.658-0.553-1.086-0.553c-0.431,0-0.833,0.206-1.085,0.553l-8.965,11.063
			c-0.183,0.25-0.257,0.547-0.242,0.846v0c0.003,0.09,0.012,0.178,0.035,0.265c0.02,0.1,0.051,0.195,0.098,0.287
			c0.226,0.45,0.691,0.733,1.195,0.733l4.557-0.002l1.276,12.108c0,1.729,1.401,3.129,3.132,3.129c1.729,0,3.128-1.4,3.128-3.129
			l1.276-12.107l2.552-0.002h2.006c0.115,0,0.225-0.017,0.33-0.044c0.03-0.007,0.059-0.018,0.086-0.027
			c0.083-0.028,0.163-0.063,0.237-0.104c0.021-0.013,0.044-0.023,0.065-0.036c0.083-0.053,0.161-0.112,0.23-0.181
			c0.006-0.005,0.009-0.011,0.014-0.019c0.091-0.093,0.17-0.201,0.231-0.321c0.231-0.448,0.19-0.989-0.109-1.396L29.355,16.585z"/>
	</g>
</g>
</svg>
