<?xml version="1.0" encoding="utf-8"?>
<!-- Generator: Adobe Illustrator 17.0.0, SVG Export Plug-In . SVG Version: 6.00 Build 0)  -->
<!DOCTYPE svg PUBLIC "-//W3C//DTD SVG 1.1//EN" "http://www.w3.org/Graphics/SVG/1.1/DTD/svg11.dtd">
<svg version="1.1" id="Layer_1" xmlns="http://www.w3.org/2000/svg" xmlns:xlink="http://www.w3.org/1999/xlink" x="0px" y="0px"
	 width="56.693px" height="56.693px" viewBox="0 0 56.693 56.693" enable-background="new 0 0 56.693 56.693" xml:space="preserve">
<g>
	<path fill="#474A56" d="M32.442,35.792c-0.3-0.458-0.908-0.594-1.38-0.307l-0.294,0.19c-0.802,0.519-3.103,2.007-3.326,2.143
		c-0.056,0.037-0.114,0.062-0.179,0.08c-1.578,0.434-5.767-3.677-8.229-8.913c-1.478-3.15-1.477-5.054-0.881-5.472l3.636-2.355
		c0.226-0.147,0.384-0.377,0.439-0.639c0.057-0.262,0.008-0.536-0.14-0.762L14.218,7.622c-0.146-0.226-0.376-0.384-0.639-0.439
		c-0.264-0.056-0.536-0.003-0.763,0.142L12.25,7.693c-1.025,0.666-3.073,1.995-3.127,2.031L8.995,9.81
		c-4.573,3.1-8.285,9.018,3.654,27.436c7.996,12.333,14.706,17.555,20.514,15.96l0.002,0c1.266-0.348,2.247-0.952,2.96-1.392
		l0.223-0.136c0.153-0.093,3.656-2.353,3.751-2.421c0.443-0.316,0.557-0.924,0.262-1.379L32.442,35.792z"/>
	<path fill="#474A56" d="M50.059,19.733c-0.062-0.107-0.163-0.188-0.285-0.217l-6.283-1.648l1.636-6.247
		c0.031-0.122,0.015-0.249-0.049-0.357c-0.062-0.107-0.165-0.185-0.286-0.217l-4.515-1.182c-0.243-0.062-0.511,0.094-0.573,0.335
		l-1.638,6.248l-6.249-1.636c-0.241-0.063-0.511,0.094-0.574,0.335l-1.201,4.585c-0.066,0.251,0.086,0.506,0.338,0.574l6.247,1.636
		l-1.628,6.216c-0.066,0.25,0.082,0.507,0.334,0.572l4.519,1.185c0.248,0.065,0.505-0.086,0.57-0.336l1.63-6.216l6.283,1.648
		c0.123,0.033,0.252,0.011,0.354-0.05c0.107-0.061,0.187-0.161,0.22-0.286l1.199-4.584C50.141,19.967,50.122,19.841,50.059,19.733z"
		/>
</g>
</svg>
