<?xml version="1.0" encoding="utf-8"?>
<!-- Generator: Adobe Illustrator 17.0.0, SVG Export Plug-In . SVG Version: 6.00 Build 0)  -->
<!DOCTYPE svg PUBLIC "-//W3C//DTD SVG 1.1//EN" "http://www.w3.org/Graphics/SVG/1.1/DTD/svg11.dtd">
<svg version="1.1" id="Layer_1" xmlns="http://www.w3.org/2000/svg" xmlns:xlink="http://www.w3.org/1999/xlink" x="0px" y="0px"
	 width="56.693px" height="56.693px" viewBox="0 0 56.693 56.693" enable-background="new 0 0 56.693 56.693" xml:space="preserve">
<g>
	<path fill="#474A56" d="M53.054,15.251c-0.005-0.039-0.004-0.079-0.012-0.119c-0.028-0.153-0.074-0.3-0.136-0.439
		c-0.002-0.005-0.003-0.011-0.005-0.016l-4-8.856c-0.323-0.716-1.036-1.177-1.822-1.177H30.531h-3.372H10.388
		c-0.786,0-1.499,0.46-1.822,1.177l-4,8.856c-0.002,0.005-0.003,0.011-0.005,0.016c-0.061,0.139-0.107,0.286-0.136,0.439
		c-0.008,0.04-0.007,0.079-0.012,0.119c-0.011,0.083-0.025,0.164-0.025,0.249v36.89c0,1.104,0.895,2,2,2H51.08c1.104,0,2-0.896,2-2
		V15.5C53.08,15.415,53.065,15.333,53.054,15.251z M47.982,13.5h-14.69l-0.53-4.856h13.027L47.982,13.5z M11.679,8.644h13.249
		L24.399,13.5H9.486L11.679,8.644z M49.08,50.39H8.388V17.5h15.77v6.473c0,1.104,0.896,2,2,2h5.372c1.105,0,2-0.896,2-2V17.5H49.08
		V50.39z"/>
	<path fill="#474A56" d="M33.062,29.524c-0.228-0.003-0.442,0.106-0.574,0.293l-2.87,3.947c-0.159,0.213-0.182,0.5-0.062,0.74
		c0.092,0.18,0.253,0.307,0.443,0.361c0.062,0.017,0.125,0.026,0.19,0.026l1.92,0.001l-0.004,7.483
		c-0.002,0.436,0.292,0.803,0.691,0.916c0.083,0.023,0.171,0.034,0.258,0.033c0.522,0.001,0.95-0.423,0.95-0.948l0.002-7.48
		l1.92,0.001c0.268-0.001,0.512-0.15,0.634-0.389c0.122-0.239,0.101-0.525-0.058-0.74l-2.864-3.953
		C33.507,29.63,33.292,29.523,33.062,29.524z"/>
	<path fill="#474A56" d="M21.611,34.889l1.916,0l-0.005,7.486c-0.002,0.436,0.293,0.803,0.692,0.914
		c0.08,0.023,0.169,0.036,0.257,0.036c0.527,0,0.95-0.426,0.951-0.949l0.004-7.485l1.919,0.001c0.269,0.001,0.514-0.149,0.636-0.389
		c0.121-0.235,0.098-0.524-0.059-0.74l-2.863-3.948c-0.135-0.186-0.35-0.295-0.577-0.296c-0.228-0.002-0.44,0.111-0.576,0.293
		l-2.87,3.947c-0.157,0.215-0.182,0.502-0.059,0.74c0.091,0.18,0.255,0.309,0.443,0.361C21.479,34.878,21.546,34.887,21.611,34.889z
		"/>
	<path fill="#474A56" d="M35.343,45.149l-13.159-0.006c-0.524-0.003-0.95,0.421-0.948,0.945c-0.004,0.436,0.29,0.804,0.688,0.916
		c0.083,0.023,0.17,0.035,0.258,0.034l13.158,0.007c0.526,0.003,0.952-0.423,0.952-0.948C36.291,45.573,35.865,45.149,35.343,45.149
		z"/>
</g>
</svg>
