<?xml version="1.0" encoding="utf-8"?>
<!-- Generator: Adobe Illustrator 17.0.0, SVG Export Plug-In . SVG Version: 6.00 Build 0)  -->
<!DOCTYPE svg PUBLIC "-//W3C//DTD SVG 1.1//EN" "http://www.w3.org/Graphics/SVG/1.1/DTD/svg11.dtd">
<svg version="1.1" id="Layer_1" xmlns="http://www.w3.org/2000/svg" xmlns:xlink="http://www.w3.org/1999/xlink" x="0px" y="0px"
	 width="56.693px" height="56.693px" viewBox="0 0 56.693 56.693" enable-background="new 0 0 56.693 56.693" xml:space="preserve">
<g>
	<path fill="#474A56" d="M50.828,11.731c-0.728-0.208-2.01-0.448-3.925-0.74c-2.56-0.386-3.446-0.373-3.891-0.333
		c-0.007,0.001-0.057,0.006-0.063,0.006c-0.505,0.06-1.398,0.282-3.856,1.524c-1.801,0.912-4.458,2.688-8.121,5.426
		c-1.514,1.132-3.036,2.329-4.536,3.572c-3.637-2.359-7.507-4.64-11.486-6.767c-0.046-0.022-0.093-0.044-0.14-0.064
		c-0.609-0.225-6.006-2.193-8.305-1.977c-1.278,0.121-1.768,0.905-1.799,1.599c-0.14,2.95,0.184,4.536,1.071,5.302
		c0.387,0.343,1.361,1.033,5.187,2.921c2.994,1.461,5.974,3.094,8.875,4.859c-3.132,2.992-6.196,6.18-9.125,9.488
		c-0.033,0.04-0.065,0.079-0.095,0.122c-2.055,3.075-4.377,7.087-3.77,8.753c0.178,0.485,0.56,0.844,1.05,0.985
		c1.802,0.518,3.134,0.73,4.073,0.643c0.547-0.053,0.983-0.203,1.335-0.456c0.426-0.301,1.325-1.09,4.044-4.362
		c2.902-3.528,6.176-7.002,9.749-10.337c1.258,0.902,2.325,1.693,3.309,2.461c6.089,4.741,10.719,9.087,13.753,12.922
		c0.815,1.076,1.106,1.39,1.269,1.54c0.477,0.444,0.963,0.555,1.289,0.568c0.082,0.003,0.159,0.001,0.233-0.007
		c0.638-0.06,1.4-0.546,1.45-1.719c0.032-0.741-0.029-2.046-0.191-3.976c-0.223-2.646-0.449-3.505-0.6-3.924
		c-0.172-0.477-0.599-1.294-2.379-3.395c-1.304-1.532-3.712-3.767-7.163-6.643c-1.408-1.173-2.876-2.331-4.459-3.52
		c0.028-0.022,0.057-0.044,0.084-0.066c6.029-4.823,11.333-8.315,15.76-10.373c1.234-0.542,1.604-0.749,1.786-0.869
		c0.441-0.298,0.73-0.681,0.859-1.125C52.322,13.009,52.015,12.077,50.828,11.731z"/>
</g>
</svg>
