<?xml version="1.0" encoding="utf-8"?>
<!-- Generator: Adobe Illustrator 17.0.0, SVG Export Plug-In . SVG Version: 6.00 Build 0)  -->
<!DOCTYPE svg PUBLIC "-//W3C//DTD SVG 1.1//EN" "http://www.w3.org/Graphics/SVG/1.1/DTD/svg11.dtd">
<svg version="1.1" id="Layer_1" xmlns="http://www.w3.org/2000/svg" xmlns:xlink="http://www.w3.org/1999/xlink" x="0px" y="0px"
	 width="56.693px" height="56.693px" viewBox="0 0 56.693 56.693" enable-background="new 0 0 56.693 56.693" xml:space="preserve">
<g>
	<path fill="#474A56" d="M45.557,32.475h-1.268v3.751h1.268c0.377,0,0.703-0.045,0.977-0.137c0.275-0.091,0.5-0.211,0.678-0.36
		c0.176-0.148,0.309-0.319,0.393-0.515c0.086-0.193,0.129-0.393,0.129-0.599v-0.395c0-0.49-0.172-0.904-0.514-1.242
		C46.877,32.643,46.322,32.475,45.557,32.475z"/>
	<path fill="#474A56" d="M51.865,26.86H24.782c-1.208,0-2.188,0.979-2.188,2.188v14.457c0,1.209,0.979,2.188,2.188,2.188h27.083
		c1.207,0,2.186-0.979,2.186-2.188V29.047C54.051,27.839,53.072,26.86,51.865,26.86z M35.52,41.519
		c-0.172,0.137-0.366,0.206-0.582,0.206h-6.185c-0.229,0-0.428-0.069-0.599-0.206c-0.172-0.137-0.257-0.343-0.257-0.617
		c0-0.275,0.08-0.491,0.24-0.651l4.933-7.794h-4.111c-0.217,0-0.411-0.069-0.583-0.206c-0.171-0.137-0.257-0.343-0.257-0.616
		c0-0.297,0.085-0.517,0.257-0.66c0.172-0.143,0.365-0.214,0.583-0.214h5.807c0.217,0,0.414,0.071,0.59,0.214
		c0.178,0.143,0.267,0.362,0.267,0.66c0,0.263-0.08,0.462-0.239,0.6h0.016l-4.933,7.793h4.472c0.216,0,0.41,0.072,0.582,0.214
		c0.172,0.143,0.257,0.362,0.257,0.66C35.776,41.177,35.692,41.382,35.52,41.519z M39.75,41.074c0,0.205-0.092,0.392-0.273,0.557
		c-0.184,0.166-0.418,0.249-0.703,0.249c-0.319,0-0.571-0.083-0.754-0.249c-0.182-0.165-0.273-0.351-0.273-0.557v-9.678
		c0-0.205,0.092-0.391,0.273-0.557c0.183-0.166,0.435-0.248,0.754-0.248c0.285,0,0.519,0.083,0.703,0.248
		c0.182,0.166,0.273,0.351,0.273,0.557V41.074z M49.719,34.53c0,0.435-0.074,0.851-0.223,1.25c-0.149,0.4-0.389,0.754-0.719,1.062
		c-0.332,0.309-0.758,0.557-1.285,0.745c-0.525,0.188-1.17,0.283-1.936,0.283h-1.268v3.22c0,0.206-0.088,0.391-0.266,0.557
		c-0.176,0.166-0.414,0.248-0.711,0.248c-0.309,0-0.557-0.097-0.744-0.291c-0.189-0.194-0.283-0.394-0.283-0.599v-9.439
		c0-0.205,0.094-0.391,0.283-0.557c0.188-0.164,0.436-0.248,0.744-0.248h2.244c0.721,0,1.342,0.092,1.867,0.274
		c0.525,0.183,0.959,0.437,1.303,0.762c0.342,0.325,0.594,0.705,0.754,1.139c0.158,0.434,0.238,0.902,0.238,1.405V34.53z"/>
	<path fill="#474A56" d="M18.196,21.53c0-0.829-0.671-1.5-1.5-1.5c-0.829,0-1.5,0.671-1.5,1.5v1c0,0.829,0.671,1.5,1.5,1.5
		c0.829,0,1.5-0.671,1.5-1.5V21.53z"/>
	<path fill="#474A56" d="M18.196,27.102c0-0.829-0.671-1.5-1.5-1.5c-0.829,0-1.5,0.671-1.5,1.5v1.524c0,0.829,0.671,1.5,1.5,1.5
		c0.829,0,1.5-0.671,1.5-1.5V27.102z"/>
	<path fill="#474A56" d="M16.696,31.697c-0.829,0-1.5,0.671-1.5,1.5v1c0,0.829,0.671,1.5,1.5,1.5c0.829,0,1.5-0.671,1.5-1.5v-1
		C18.196,32.369,17.525,31.697,16.696,31.697z"/>
	<path fill="#474A56" d="M39.852,51.026H7.25V8.071h7.773c-1.314,1.696-2.225,4.949-2.225,6.502c0,2.153,1.746,3.898,3.898,3.898
		c2.153,0,3.898-1.745,3.898-3.898c0-1.552-0.911-4.805-2.226-6.502h14.903v5.452c0,0.575,0.465,1.04,1.041,1.04h5.54v8.901h3.471
		v-9.958c0-0.464-0.188-0.91-0.518-1.235L35.53,5.099C35.206,4.779,34.768,4.6,34.312,4.6H5.514c-0.959,0-1.735,0.777-1.735,1.735
		v46.426c0,0.959,0.776,1.736,1.735,1.736h36.071c0.961,0,1.737-0.777,1.737-1.736v-3.695h-3.471V51.026z M16.696,12.624
		c1.077,0,1.949,0.873,1.949,1.948c0,1.077-0.872,1.95-1.949,1.95c-1.076,0-1.949-0.873-1.949-1.95
		C14.747,13.497,15.62,12.624,16.696,12.624z"/>
</g>
</svg>
