<?xml version="1.0" encoding="utf-8"?>
<!-- Generator: Adobe Illustrator 17.0.0, SVG Export Plug-In . SVG Version: 6.00 Build 0)  -->
<!DOCTYPE svg PUBLIC "-//W3C//DTD SVG 1.1//EN" "http://www.w3.org/Graphics/SVG/1.1/DTD/svg11.dtd">
<svg version="1.1" id="Layer_1" xmlns="http://www.w3.org/2000/svg" xmlns:xlink="http://www.w3.org/1999/xlink" x="0px" y="0px"
	 width="56.693px" height="56.693px" viewBox="0 0 56.693 56.693" enable-background="new 0 0 56.693 56.693" xml:space="preserve">
<g>
	<path fill="#474A56" d="M31.354,37.492l0.558-0.001c0.023-0.189,0.059-0.361,0.097-0.532l-2.98,1.376l-0.794,0.367l-0.763,0.353
		c0.153,3.861,3.333,6.957,7.231,6.957c3.996,0,7.245-3.25,7.245-7.246c0.002-1.935-0.753-3.754-2.122-5.124
		c-0.068-0.069-0.144-0.13-0.215-0.196L38.847,33.8l-0.806,0.372l-1.779,0.822c0.072,0.042,0.146,0.078,0.214,0.127
		c0.509,0.361,0.762,0.81,0.762,1.348c0,0.183-0.062,0.337-0.181,0.463c-0.117,0.127-0.264,0.191-0.435,0.191
		c-0.192,0-0.331-0.048-0.417-0.145c-0.09-0.097-0.174-0.247-0.262-0.448c-0.106-0.265-0.236-0.468-0.385-0.606
		c-0.149-0.141-0.403-0.211-0.761-0.211c-0.061,0-0.105,0.026-0.163,0.032l-0.679,0.314c-0.032,0.033-0.077,0.047-0.106,0.084
		c-0.223,0.288-0.364,0.737-0.428,1.349l1.802-0.001c0.073,0.001,0.11,0.049,0.11,0.146c0,0.105-0.032,0.225-0.103,0.361
		c-0.068,0.136-0.13,0.205-0.182,0.205h-1.673l-0.01,0.548c0,0.169,0.002,0.288,0.01,0.363h1.847c0.073,0,0.112,0.046,0.112,0.14
		c-0.002,0.108-0.036,0.231-0.104,0.367c-0.068,0.137-0.13,0.205-0.182,0.205h-1.639c0.129,1.339,0.56,2.007,1.286,2.007
		c0.272,0,0.521-0.064,0.746-0.196c0.227-0.13,0.443-0.437,0.651-0.917c0.136-0.313,0.251-0.508,0.347-0.584
		c0.098-0.077,0.203-0.116,0.313-0.115c0.225-0.001,0.397,0.064,0.524,0.192c0.125,0.129,0.187,0.309,0.187,0.54
		c0,0.548-0.27,1.054-0.806,1.518c-0.537,0.466-1.187,0.697-1.951,0.697c-0.717,0-1.341-0.26-1.875-0.781
		c-0.532-0.52-0.852-1.307-0.955-2.362h-0.711c-0.067,0-0.102-0.048-0.102-0.145c0-0.095,0.037-0.211,0.106-0.353
		c0.071-0.142,0.132-0.213,0.181-0.213l0.479,0v-0.2c0-0.165,0.008-0.4,0.024-0.711h-0.689c-0.067,0-0.102-0.046-0.102-0.141
		c0-0.096,0.037-0.216,0.106-0.357C31.246,37.563,31.305,37.491,31.354,37.492z"/>
	<path fill="#474A56" d="M52.913,28.322c-0.241-0.243-0.569-0.378-0.911-0.378h-4.101c-0.057,1.015-0.645,1.971-1.632,2.426
		l-0.337,0.155h4.777v16.483H18.694V43.11l-2.583,1.193v3.996c0,0.713,0.579,1.292,1.292,1.292h34.599
		c0.712,0,1.29-0.578,1.29-1.292V29.234C53.292,28.892,53.156,28.564,52.913,28.322z"/>
	<path fill="#474A56" d="M45.357,26.962c0.028-0.23,0.018-0.467-0.088-0.693L37.273,8.962c-0.143-0.311-0.404-0.552-0.727-0.67
		c-0.144-0.053-0.295-0.08-0.445-0.08c-0.013,0-0.023,0.003-0.036,0.004c-0.017,0-0.032,0.004-0.05,0.005
		c-0.156,0.01-0.312,0.043-0.455,0.11L4.152,22.843c-0.648,0.299-0.93,1.066-0.632,1.713l7.996,17.307
		c0.144,0.312,0.405,0.552,0.727,0.67c0.143,0.053,0.294,0.08,0.445,0.08c0.185,0,0.37-0.04,0.541-0.119l31.409-14.511
		C45.06,27.789,45.304,27.391,45.357,26.962z M13.32,39.608L6.407,24.645l29.064-13.428l6.913,14.963L13.32,39.608z"/>
	<path fill="#474A56" d="M22.339,23.557c-0.086,0.19-0.069,0.414,0.047,0.667c0.111,0.241,0.263,0.392,0.454,0.453
		c0.191,0.062,0.448,0.08,0.771,0.053l-0.81-1.753C22.579,23.172,22.425,23.366,22.339,23.557z"/>
	<path fill="#474A56" d="M25.709,25.857c-0.231-0.068-0.527-0.081-0.891-0.035l0.52,1.122l0.407,0.882
		c0.279-0.203,0.46-0.437,0.542-0.701c0.02-0.061,0.015-0.121,0.023-0.182c0.026-0.199,0.015-0.395-0.072-0.583
		C26.117,26.094,25.939,25.928,25.709,25.857z"/>
	<path fill="#474A56" d="M24.372,18.146c-0.1,0-0.198,0.012-0.298,0.016c-0.945,0.039-1.866,0.252-2.735,0.653
		c-0.885,0.409-1.66,0.978-2.3,1.672c-0.632,0.688-1.129,1.5-1.462,2.403c-0.484,1.318-0.57,2.714-0.274,4.053
		c0.112,0.506,0.274,1.006,0.498,1.488c0.179,0.39,0.401,0.75,0.642,1.095c1.34,1.919,3.551,3.114,5.938,3.114
		c0.102,0,0.199-0.012,0.299-0.016c0.946-0.039,1.867-0.251,2.736-0.653c0.883-0.408,1.659-0.977,2.298-1.672
		c0.222-0.241,0.421-0.502,0.607-0.773c0.348-0.5,0.639-1.044,0.855-1.63c0.116-0.313,0.2-0.631,0.272-0.952
		c0.34-1.538,0.178-3.135-0.494-4.589C29.773,19.797,27.189,18.146,24.372,18.146z M27.472,26.944
		c-0.046,0.317-0.149,0.623-0.345,0.91c-0.229,0.339-0.552,0.627-0.971,0.866l0.35,0.757c0.009,0.019,0.012,0.033,0.02,0.05
		c0.067,0.154,0.105,0.28,0.108,0.369c0.003,0.098-0.054,0.174-0.173,0.23c-0.109,0.051-0.204,0.053-0.279,0.007
		c-0.075-0.047-0.143-0.141-0.207-0.281l-0.15-0.325l-0.244-0.529c-0.376,0.125-0.728,0.187-1.054,0.181
		c-0.325-0.005-0.622-0.06-0.89-0.169c-0.266-0.108-0.489-0.246-0.67-0.412c-0.181-0.167-0.318-0.349-0.41-0.547
		c-0.066-0.146-0.071-0.305-0.01-0.475c0.061-0.171,0.176-0.296,0.348-0.375c0.136-0.063,0.266-0.083,0.391-0.064
		c0.124,0.02,0.23,0.08,0.322,0.18c0.198,0.211,0.357,0.37,0.479,0.475c0.122,0.104,0.271,0.184,0.445,0.236
		c0.175,0.052,0.379,0.061,0.609,0.024l-0.511-1.106l-0.473-1.024c-0.461,0.077-0.861,0.11-1.201,0.098
		c-0.338-0.012-0.652-0.107-0.941-0.284c-0.288-0.178-0.527-0.467-0.714-0.87c-0.242-0.525-0.273-1.033-0.094-1.522
		c0.18-0.49,0.571-0.908,1.179-1.255l-0.313-0.677c-0.117-0.256-0.081-0.428,0.11-0.517c0.194-0.09,0.352-0.01,0.467,0.24
		l0.316,0.687c0.343-0.118,0.653-0.18,0.934-0.187c0.279-0.006,0.554,0.051,0.822,0.175c0.208,0.092,0.39,0.203,0.541,0.333
		c0.15,0.13,0.256,0.264,0.32,0.4c0.071,0.153,0.076,0.312,0.017,0.474c-0.06,0.163-0.17,0.282-0.328,0.354
		c-0.3,0.139-0.566,0.066-0.807-0.216c-0.276-0.336-0.637-0.477-1.077-0.424l0.878,1.904c0.427-0.071,0.773-0.116,1.035-0.134
		c0.266-0.017,0.523,0.013,0.773,0.093c0.267,0.081,0.506,0.213,0.717,0.4c0.21,0.186,0.379,0.418,0.507,0.696
		c0.161,0.349,0.231,0.712,0.206,1.091C27.502,26.835,27.48,26.888,27.472,26.944z"/>
</g>
</svg>
