<?xml version="1.0" encoding="utf-8"?>
<!-- Generator: Adobe Illustrator 17.0.0, SVG Export Plug-In . SVG Version: 6.00 Build 0)  -->
<!DOCTYPE svg PUBLIC "-//W3C//DTD SVG 1.1//EN" "http://www.w3.org/Graphics/SVG/1.1/DTD/svg11.dtd">
<svg version="1.1" id="Layer_1" xmlns="http://www.w3.org/2000/svg" xmlns:xlink="http://www.w3.org/1999/xlink" x="0px" y="0px"
	 width="56.693px" height="56.693px" viewBox="0 0 56.693 56.693" enable-background="new 0 0 56.693 56.693" xml:space="preserve">
<g>
	<path fill="#474A56" d="M29.618,25.479l2.025-0.642c0.126-0.04,0.23-0.127,0.29-0.245c0.061-0.116,0.073-0.253,0.033-0.378
		l-2.145-6.764c-0.04-0.125-0.128-0.23-0.245-0.292c-0.118-0.061-0.253-0.071-0.38-0.031l-0.316,0.101
		c-0.571,0.181-1.713,0.545-1.743,0.554l-0.072,0.024c-2.564,0.872-5.091,3.189-1.836,13.455c2.179,6.872,4.675,10.215,7.629,10.215
		h0.001c0.645,0,1.187-0.159,1.582-0.273l0.123-0.036c0.083-0.022,2.035-0.637,2.089-0.656c0.251-0.093,0.383-0.365,0.302-0.619
		l-2.173-6.746c-0.084-0.257-0.354-0.399-0.614-0.325l-0.163,0.053c-0.447,0.142-1.73,0.547-1.852,0.581
		c-0.031,0.01-0.062,0.015-0.096,0.015h-0.001c-0.802,0-2.25-2.488-2.732-5.286C29.033,26.5,29.281,25.599,29.618,25.479z"/>
	<path fill="#474A56" d="M8.047,14.829h5.053c0.931,0,1.689-0.758,1.689-1.69c0-0.932-0.758-1.689-1.689-1.689H8.047
		c-0.932,0-1.691,0.758-1.691,1.689C6.356,14.071,7.115,14.829,8.047,14.829z"/>
	<path fill="#474A56" d="M8.047,21.473h5.053c0.931,0,1.689-0.758,1.689-1.69c0-0.931-0.758-1.688-1.689-1.688H8.047
		c-0.932,0-1.691,0.757-1.691,1.688C6.356,20.715,7.115,21.473,8.047,21.473z"/>
	<path fill="#474A56" d="M8.047,28.116h5.053c0.931,0,1.689-0.756,1.689-1.687c0-0.932-0.758-1.69-1.689-1.69H8.047
		c-0.932,0-1.691,0.758-1.691,1.69C6.356,27.359,7.115,28.116,8.047,28.116z"/>
	<path fill="#474A56" d="M8.047,34.76h5.053c0.931,0,1.689-0.757,1.689-1.688c0-0.931-0.758-1.688-1.689-1.688H8.047
		c-0.932,0-1.691,0.757-1.691,1.688C6.356,34.003,7.115,34.76,8.047,34.76z"/>
	<path fill="#474A56" d="M8.047,41.405h5.053c0.931,0,1.689-0.757,1.689-1.688c0-0.933-0.758-1.691-1.689-1.691H8.047
		c-0.932,0-1.691,0.759-1.691,1.691C6.356,40.647,7.115,41.405,8.047,41.405z"/>
	<path fill="#474A56" d="M14.788,46.36c0-0.932-0.758-1.69-1.689-1.69H8.047c-0.932,0-1.691,0.758-1.691,1.69
		c0,0.931,0.759,1.688,1.691,1.688h5.053C14.03,48.048,14.788,47.291,14.788,46.36z"/>
	<path fill="#474A56" d="M47.296,4.733H14.285c-1.794,0-3.253,1.459-3.253,3.252v0.748h4h3.731h27.787v41.97H18.762h-3.731h-4v0.746
		c0,1.794,1.459,3.254,3.253,3.254h33.011c1.794,0,3.254-1.46,3.254-3.254V7.985C50.549,6.192,49.089,4.733,47.296,4.733z"/>
</g>
</svg>
