<?xml version="1.0" encoding="utf-8"?>
<!-- Generator: Adobe Illustrator 17.0.0, SVG Export Plug-In . SVG Version: 6.00 Build 0)  -->
<!DOCTYPE svg PUBLIC "-//W3C//DTD SVG 1.1//EN" "http://www.w3.org/Graphics/SVG/1.1/DTD/svg11.dtd">
<svg version="1.1" id="Layer_1" xmlns="http://www.w3.org/2000/svg" xmlns:xlink="http://www.w3.org/1999/xlink" x="0px" y="0px"
	 width="56.693px" height="56.693px" viewBox="0 0 56.693 56.693" enable-background="new 0 0 56.693 56.693" xml:space="preserve">
<g>
	<path fill="#474A56" d="M46.114,47.948l-9.492-25.826v-7.6c1.791-0.623,3.08-2.328,3.08-4.327v-1.24
		c0-2.526-2.055-4.581-4.582-4.581H21.573c-2.526,0-4.581,2.055-4.581,4.581v1.24c0,1.997,1.286,3.7,3.08,4.325v7.602l-9.474,25.776
		c-0.577,1.413-0.412,3.015,0.44,4.286c0.853,1.268,2.274,2.023,3.802,2.023h27.012c1.528,0,2.949-0.756,3.802-2.025
		C46.507,50.913,46.672,49.312,46.114,47.948z M20.997,42.093c0-0.866,0.698-1.562,1.558-1.562c0.866,0,1.565,0.695,1.565,1.562
		c0,0.864-0.699,1.561-1.565,1.561C21.695,43.654,20.997,42.958,20.997,42.093z M31.061,43.455c1.492,0,2.699,1.211,2.699,2.694
		c0,1.49-1.207,2.701-2.699,2.701c-1.494,0-2.697-1.211-2.697-2.701C28.363,44.666,29.567,43.455,31.061,43.455z M28.764,37.542
		c0-1.068,0.872-1.943,1.947-1.943c1.07,0,1.941,0.875,1.941,1.943c0,1.072-0.871,1.944-1.941,1.944
		C29.635,39.486,28.764,38.614,28.764,37.542z M23.102,22.66V13.26l-0.014-1.516h-1.516c-0.855,0-1.551-0.695-1.551-1.55v-1.24
		c0-0.855,0.696-1.551,1.551-1.551h13.548c0.855,0,1.551,0.695,1.551,1.551v1.24c0,0.855-0.696,1.55-1.565,1.55h-1.515V22.66
		l2.658,7.231c-0.036,0.034-0.067,0.057-0.103,0.094c-1.979,2.056-16.44,2.293-16.44,2.293h-0.14L23.102,22.66z"/>
	<path fill="#474A56" d="M27.293,28.497c1.161,0,2.108-0.947,2.108-2.113c0-1.16-0.946-2.109-2.108-2.109
		c-1.168,0-2.113,0.949-2.113,2.109C25.18,27.549,26.125,28.497,27.293,28.497z"/>
</g>
</svg>
