<?xml version="1.0" encoding="utf-8"?>
<!-- Generator: Adobe Illustrator 17.0.0, SVG Export Plug-In . SVG Version: 6.00 Build 0)  -->
<!DOCTYPE svg PUBLIC "-//W3C//DTD SVG 1.1//EN" "http://www.w3.org/Graphics/SVG/1.1/DTD/svg11.dtd">
<svg version="1.1" id="Layer_1" xmlns="http://www.w3.org/2000/svg" xmlns:xlink="http://www.w3.org/1999/xlink" x="0px" y="0px"
	 width="56.693px" height="56.693px" viewBox="0 0 56.693 56.693" enable-background="new 0 0 56.693 56.693" xml:space="preserve">
<g>
	<path fill="#474A56" d="M47.534,12.288l-7.275-7.171c-0.324-0.32-0.762-0.499-1.218-0.499H10.243c-0.959,0-1.735,0.777-1.735,1.735
		v46.426c0,0.959,0.776,1.736,1.735,1.736h36.071c0.961,0,1.737-0.777,1.737-1.736V13.523
		C48.051,13.059,47.864,12.614,47.534,12.288z M44.581,51.043H11.978V8.088H38v5.452c0,0.575,0.465,1.04,1.041,1.04h5.54V51.043z"/>
	<path fill="#474A56" d="M19.648,22.516v6.844c0,0.245,0.104,0.463,0.31,0.648c0.198,0.181,0.466,0.272,0.796,0.272
		c0.301,0,0.553-0.092,0.749-0.274c0.199-0.186,0.3-0.403,0.3-0.646v-7.936c0-0.243-0.101-0.461-0.3-0.647
		c-0.195-0.182-0.447-0.274-0.749-0.274h-2.256c-0.312,0-0.568,0.092-0.762,0.274c-0.2,0.186-0.302,0.437-0.302,0.747
		c0,0.29,0.102,0.533,0.301,0.718c0.195,0.182,0.451,0.274,0.762,0.274H19.648z"/>
	<path fill="#474A56" d="M30.92,21.603c-0.292-0.365-0.681-0.667-1.157-0.897c-0.475-0.229-1.062-0.346-1.744-0.346
		c-0.682,0-1.266,0.117-1.737,0.347c-0.469,0.23-0.855,0.531-1.148,0.896c-0.292,0.363-0.502,0.778-0.625,1.233
		c-0.119,0.442-0.18,0.893-0.18,1.343v2.284c0,0.54,0.081,1.047,0.242,1.509c0.162,0.468,0.406,0.878,0.725,1.218
		c0.318,0.338,0.712,0.608,1.17,0.801c0.457,0.193,0.979,0.291,1.552,0.291c0.583,0,1.11-0.098,1.568-0.291
		c0.459-0.194,0.853-0.463,1.17-0.801c0.317-0.337,0.562-0.746,0.731-1.215c0.166-0.462,0.25-0.97,0.25-1.512v-2.284
		c0-0.448-0.063-0.9-0.187-1.346C31.423,22.379,31.211,21.965,30.92,21.603z M29.568,24.036v2.584c0,0.562-0.116,0.98-0.344,1.241
		c-0.22,0.252-0.625,0.379-1.205,0.379c-0.552,0-0.951-0.129-1.187-0.383c-0.24-0.26-0.361-0.676-0.361-1.236v-2.584
		c0-0.562,0.118-0.979,0.351-1.239c0.225-0.252,0.628-0.38,1.197-0.38c0.579,0,0.984,0.127,1.204,0.378
		C29.452,23.056,29.568,23.474,29.568,24.036z"/>
	<path fill="#474A56" d="M36.969,20.503h-2.256c-0.312,0-0.568,0.092-0.762,0.274c-0.2,0.186-0.302,0.437-0.302,0.747
		c0,0.29,0.101,0.533,0.301,0.718c0.195,0.182,0.451,0.274,0.762,0.274h1.149v6.844c0,0.245,0.104,0.463,0.31,0.648
		c0.198,0.181,0.466,0.272,0.796,0.272c0.301,0,0.553-0.092,0.749-0.274c0.199-0.186,0.3-0.403,0.3-0.646v-7.936
		c0-0.243-0.101-0.461-0.3-0.647C37.523,20.595,37.271,20.503,36.969,20.503z"/>
	<path fill="#474A56" d="M24.482,35.877c-0.292-0.365-0.681-0.667-1.157-0.897c-0.475-0.229-1.062-0.346-1.744-0.346
		c-0.682,0-1.266,0.117-1.737,0.347c-0.469,0.23-0.855,0.531-1.148,0.896c-0.292,0.363-0.502,0.778-0.625,1.233
		c-0.119,0.442-0.18,0.894-0.18,1.343v2.284c0,0.54,0.081,1.047,0.242,1.509c0.162,0.468,0.406,0.877,0.725,1.218
		c0.318,0.338,0.712,0.608,1.17,0.801c0.457,0.193,0.979,0.291,1.552,0.291c0.583,0,1.11-0.098,1.568-0.291
		c0.459-0.194,0.853-0.463,1.17-0.801c0.317-0.337,0.562-0.746,0.731-1.215c0.166-0.461,0.25-0.97,0.25-1.512v-2.284
		c0-0.448-0.063-0.9-0.187-1.346C24.985,36.653,24.773,36.239,24.482,35.877z M23.13,38.31v2.584c0,0.562-0.116,0.98-0.344,1.241
		c-0.22,0.252-0.625,0.379-1.205,0.379c-0.552,0-0.951-0.129-1.187-0.383c-0.24-0.26-0.361-0.676-0.361-1.236V38.31
		c0-0.562,0.118-0.979,0.351-1.239c0.225-0.252,0.628-0.38,1.197-0.38c0.579,0,0.984,0.127,1.204,0.378
		C23.015,37.33,23.13,37.748,23.13,38.31z"/>
	<path fill="#474A56" d="M30.532,34.777h-2.256c-0.312,0-0.568,0.092-0.762,0.274c-0.2,0.186-0.302,0.437-0.302,0.747
		c0,0.291,0.101,0.533,0.301,0.718c0.195,0.182,0.451,0.274,0.762,0.274h1.149v6.844c0,0.245,0.104,0.463,0.31,0.649
		c0.198,0.181,0.466,0.272,0.796,0.272c0.301,0,0.553-0.092,0.749-0.274c0.199-0.186,0.3-0.403,0.3-0.646v-7.936
		c0-0.243-0.101-0.461-0.3-0.647C31.085,34.869,30.833,34.777,30.532,34.777z"/>
	<path fill="#474A56" d="M36.969,34.777h-2.256c-0.312,0-0.568,0.092-0.762,0.274c-0.2,0.186-0.302,0.437-0.302,0.747
		c0,0.291,0.101,0.533,0.301,0.718c0.195,0.182,0.451,0.274,0.762,0.274h1.149v6.844c0,0.245,0.104,0.463,0.31,0.649
		c0.198,0.181,0.466,0.272,0.796,0.272c0.301,0,0.553-0.092,0.749-0.274c0.199-0.186,0.3-0.403,0.3-0.646v-7.936
		c0-0.243-0.101-0.461-0.3-0.647C37.523,34.869,37.271,34.777,36.969,34.777z"/>
</g>
</svg>
