<?xml version="1.0" encoding="utf-8"?>
<!-- Generator: Adobe Illustrator 17.0.0, SVG Export Plug-In . SVG Version: 6.00 Build 0)  -->
<!DOCTYPE svg PUBLIC "-//W3C//DTD SVG 1.1//EN" "http://www.w3.org/Graphics/SVG/1.1/DTD/svg11.dtd">
<svg version="1.1" id="Layer_1" xmlns="http://www.w3.org/2000/svg" xmlns:xlink="http://www.w3.org/1999/xlink" x="0px" y="0px"
	 width="56.693px" height="56.693px" viewBox="0 0 56.693 56.693" enable-background="new 0 0 56.693 56.693" xml:space="preserve">
<g>
	<path fill="#474A56" d="M28.056,3.993c-13.578,0-24.625,11.045-24.625,24.623c0,13.578,11.047,24.624,24.625,24.624
		c13.576,0,24.623-11.046,24.623-24.624C52.679,15.037,41.632,3.993,28.056,3.993z M28.056,49.696
		c-11.623,0-21.08-9.457-21.08-21.08c0-11.623,9.457-21.079,21.08-21.079c11.623,0,21.078,9.456,21.078,21.079
		C49.134,40.239,39.679,49.696,28.056,49.696z"/>
	<circle fill="#474A56" cx="19.95" cy="22.625" r="4.456"/>
	<circle fill="#474A56" cx="36.162" cy="22.626" r="4.456"/>
	<path fill="#474A56" d="M28.056,32.032c-4.158,0-7.902,2.471-9.537,6.296c-0.385,0.899,0.031,1.941,0.932,2.326
		c0.902,0.386,1.941-0.032,2.326-0.933c1.078-2.518,3.541-4.146,6.279-4.146c2.736,0,5.199,1.628,6.277,4.146
		c0.287,0.672,0.941,1.076,1.629,1.076c0.232,0,0.469-0.047,0.697-0.144c0.898-0.385,1.316-1.426,0.932-2.326
		C35.957,34.502,32.214,32.032,28.056,32.032z"/>
</g>
</svg>
