<?xml version="1.0" encoding="utf-8"?>
<!-- Generator: Adobe Illustrator 17.0.0, SVG Export Plug-In . SVG Version: 6.00 Build 0)  -->
<!DOCTYPE svg PUBLIC "-//W3C//DTD SVG 1.1//EN" "http://www.w3.org/Graphics/SVG/1.1/DTD/svg11.dtd">
<svg version="1.1" id="Layer_1" xmlns="http://www.w3.org/2000/svg" xmlns:xlink="http://www.w3.org/1999/xlink" x="0px" y="0px"
	 width="56.693px" height="56.693px" viewBox="0 0 56.693 56.693" enable-background="new 0 0 56.693 56.693" xml:space="preserve">
<g>
	<path fill="#474A56" d="M37.044,23.453c-0.22-0.617-1.129-0.996-2.041-0.85c-0.911,0.139-1.477,0.754-1.263,1.371l-0.005,0.002
		c0.491,1.4,0.735,2.846,0.73,4.289c0.005,1.455-0.253,2.914-0.746,4.338c-0.219,0.617,0.359,1.229,1.275,1.375
		c0.129,0.02,0.258,0.029,0.387,0.029c0.769,0,1.469-0.359,1.654-0.885c0.549-1.596,0.825-3.227,0.834-4.857
		C37.865,26.646,37.589,25.033,37.044,23.453z"/>
	<path fill="#474A56" d="M26.131,10.062c-2.41,1.545-8.573,6.803-12.121,9.875H5.589c-0.695,0-1.261,0.564-1.261,1.262v14.5
		c0,0.697,0.565,1.262,1.261,1.262h8.655c3.578,3.096,9.529,8.16,11.887,9.672c3.005,1.926,3.39-1.328,3.39-1.328V28.732v-0.769
		V11.39C29.521,11.39,29.136,8.134,26.131,10.062z"/>
</g>
</svg>
