<?xml version="1.0" encoding="utf-8"?>
<!-- Generator: Adobe Illustrator 17.0.0, SVG Export Plug-In . SVG Version: 6.00 Build 0)  -->
<!DOCTYPE svg PUBLIC "-//W3C//DTD SVG 1.1//EN" "http://www.w3.org/Graphics/SVG/1.1/DTD/svg11.dtd">
<svg version="1.1" id="Layer_1" xmlns="http://www.w3.org/2000/svg" xmlns:xlink="http://www.w3.org/1999/xlink" x="0px" y="0px"
	 width="56.693px" height="56.693px" viewBox="0 0 56.693 56.693" enable-background="new 0 0 56.693 56.693" xml:space="preserve">
<g>
	<path fill="#474A56" d="M46.343,12.887c-4.082-4.082-9.509-6.33-15.282-6.33c0,0-0.001,0-0.002,0c0,0,0,0-0.001,0
		c-5.773,0-11.201,2.248-15.283,6.33c-3.452,3.452-5.574,7.87-6.153,12.641H9.197h-4.42c-0.007,0-0.013,0-0.019-0.001
		c-0.835,0.001-1.511,0.677-1.511,1.511c0,0.412,0.165,0.785,0.432,1.057l7.052,9.709c0.285,0.392,0.74,0.624,1.222,0.624
		c0.484,0,0.938-0.232,1.222-0.622l7.177-9.879c0.334-0.46,0.383-1.068,0.125-1.574c-0.258-0.506-0.778-0.824-1.346-0.825
		l-3.094,0.001h-1.365c0.546-3.432,2.135-6.6,4.64-9.105c3.138-3.138,7.31-4.866,11.748-4.866h0c0.001,0,0.001,0,0.001,0
		c4.438,0,8.609,1.729,11.748,4.866c3.138,3.138,4.867,7.312,4.867,11.749c0,9.16-7.454,16.613-16.615,16.615
		c-1.381,0-2.5,1.119-2.5,2.5c0,1.381,1.12,2.5,2.5,2.5c11.918-0.002,21.615-9.697,21.615-21.615
		C52.674,22.399,50.425,16.97,46.343,12.887z"/>
	<path fill="#474A56" d="M31.06,30.489l2.442,2.443c0.293,0.293,0.677,0.439,1.061,0.439s0.768-0.146,1.061-0.439
		c0.586-0.586,0.586-1.535,0-2.121l-2.442-2.443l2.442-2.442c0.586-0.586,0.586-1.536,0-2.121c-0.586-0.586-1.535-0.586-2.121,0
		l-2.442,2.442l-2.442-2.442c-0.586-0.586-1.535-0.586-2.121,0c-0.586,0.585-0.586,1.535,0,2.121l2.442,2.442l-2.442,2.443
		c-0.586,0.586-0.586,1.535,0,2.121c0.293,0.293,0.677,0.439,1.06,0.439c0.384,0,0.768-0.146,1.061-0.439L31.06,30.489z"/>
</g>
</svg>
