<?xml version="1.0" encoding="utf-8"?>
<!-- Generator: Adobe Illustrator 17.0.0, SVG Export Plug-In . SVG Version: 6.00 Build 0)  -->
<!DOCTYPE svg PUBLIC "-//W3C//DTD SVG 1.1//EN" "http://www.w3.org/Graphics/SVG/1.1/DTD/svg11.dtd">
<svg version="1.1" id="Layer_1" xmlns="http://www.w3.org/2000/svg" xmlns:xlink="http://www.w3.org/1999/xlink" x="0px" y="0px"
	 width="56.693px" height="56.693px" viewBox="0 0 56.693 56.693" enable-background="new 0 0 56.693 56.693" xml:space="preserve">
<g>
	<path fill="#474A56" d="M26.024,13.575h23.349c0.805,0,1.46-0.654,1.46-1.459c0-0.805-0.655-1.46-1.46-1.46H26.024
		c-0.806,0-1.461,0.655-1.461,1.46C24.563,12.921,25.218,13.575,26.024,13.575z"/>
	<path fill="#474A56" d="M49.373,45.759H26.024c-0.806,0-1.461,0.655-1.461,1.459s0.655,1.459,1.461,1.459h23.349
		c0.805,0,1.46-0.655,1.46-1.459S50.177,45.759,49.373,45.759z"/>
	<path fill="#474A56" d="M49.373,28.255H26.024c-0.806,0-1.461,0.655-1.461,1.46c0,0.805,0.655,1.459,1.461,1.459h23.349
		c0.805,0,1.46-0.654,1.46-1.459C50.833,28.91,50.177,28.255,49.373,28.255z"/>
	<path fill="#474A56" d="M13.063,5.629c-3.629,0-6.582,2.953-6.582,6.582s2.953,6.582,6.582,6.582c3.629,0,6.582-2.953,6.582-6.582
		S16.692,5.629,13.063,5.629z M13.063,16.293c-2.251,0-4.082-1.831-4.082-4.082s1.831-4.082,4.082-4.082
		c2.251,0,4.082,1.831,4.082,4.082S15.314,16.293,13.063,16.293z"/>
	<path fill="#474A56" d="M13.063,23.132c-3.629,0-6.582,2.953-6.582,6.582s2.953,6.582,6.582,6.582c3.629,0,6.582-2.953,6.582-6.582
		S16.692,23.132,13.063,23.132z M13.063,33.796c-2.251,0-4.082-1.831-4.082-4.082s1.831-4.082,4.082-4.082
		c2.251,0,4.082,1.831,4.082,4.082S15.314,33.796,13.063,33.796z"/>
	<path fill="#474A56" d="M13.063,40.637c-3.629,0-6.582,2.953-6.582,6.582c0,3.629,2.953,6.582,6.582,6.582
		c3.629,0,6.582-2.953,6.582-6.582C19.645,43.589,16.692,40.637,13.063,40.637z M13.063,51.301c-2.251,0-4.082-1.831-4.082-4.082
		s1.831-4.082,4.082-4.082c2.251,0,4.082,1.831,4.082,4.082S15.314,51.301,13.063,51.301z"/>
	<circle fill="#474A56" cx="13.063" cy="12.211" r="2.349"/>
</g>
</svg>
