<?xml version="1.0" encoding="utf-8"?>
<!-- Generator: Adobe Illustrator 17.0.0, SVG Export Plug-In . SVG Version: 6.00 Build 0)  -->
<!DOCTYPE svg PUBLIC "-//W3C//DTD SVG 1.1//EN" "http://www.w3.org/Graphics/SVG/1.1/DTD/svg11.dtd">
<svg version="1.1" id="Layer_1" xmlns="http://www.w3.org/2000/svg" xmlns:xlink="http://www.w3.org/1999/xlink" x="0px" y="0px"
	 width="56.693px" height="56.693px" viewBox="0 0 56.693 56.693" enable-background="new 0 0 56.693 56.693" xml:space="preserve">
<g>
	<path fill="#474A56" d="M33.629,19.412h-9.111c-0.218,0-0.428,0.086-0.583,0.241l-6.441,6.441
		c-0.155,0.154-0.241,0.364-0.241,0.583v9.111c0,0.219,0.086,0.429,0.241,0.583l6.441,6.443c0.155,0.155,0.365,0.241,0.583,0.241
		h9.111c0.219,0,0.428-0.086,0.583-0.241l6.445-6.442c0.154-0.155,0.24-0.365,0.24-0.583v-9.111c0-0.219-0.086-0.429-0.241-0.583
		l-6.444-6.441C34.057,19.498,33.847,19.412,33.629,19.412z M34.516,28.352c0,0.078-0.031,0.153-0.086,0.208l-2.862,2.862
		l2.878,2.877c0.054,0.055,0.086,0.13,0.086,0.208c0,0.078-0.032,0.153-0.086,0.208l-2.101,2.101
		c-0.057,0.057-0.133,0.085-0.208,0.085c-0.076,0-0.151-0.028-0.209-0.085l-2.878-2.878l-2.846,2.846
		c-0.115,0.115-0.301,0.115-0.417,0l-2.068-2.068c-0.114-0.115-0.114-0.301,0-0.416l2.846-2.847l-2.861-2.862
		c-0.116-0.115-0.116-0.301,0-0.417l2.099-2.1c0.111-0.11,0.307-0.11,0.417,0l2.863,2.862l2.862-2.862c0.11-0.11,0.306-0.11,0.416,0
		l2.068,2.069C34.485,28.199,34.516,28.274,34.516,28.352z"/>
	<path fill="#474A56" d="M48.183,12.155l-7.275-7.171c-0.324-0.32-0.762-0.499-1.218-0.499H10.892c-0.959,0-1.735,0.777-1.735,1.735
		v46.426c0,0.959,0.776,1.736,1.735,1.736h36.071c0.961,0,1.737-0.777,1.737-1.736V13.39C48.701,12.926,48.513,12.48,48.183,12.155z
		 M45.23,50.91H12.628V7.955h26.021v5.452c0,0.575,0.465,1.04,1.041,1.04h5.54V50.91z"/>
</g>
</svg>
