<?xml version="1.0" encoding="utf-8"?>
<!-- Generator: Adobe Illustrator 17.0.0, SVG Export Plug-In . SVG Version: 6.00 Build 0)  -->
<!DOCTYPE svg PUBLIC "-//W3C//DTD SVG 1.1//EN" "http://www.w3.org/Graphics/SVG/1.1/DTD/svg11.dtd">
<svg version="1.1" id="Layer_1" xmlns="http://www.w3.org/2000/svg" xmlns:xlink="http://www.w3.org/1999/xlink" x="0px" y="0px"
	 width="56.693px" height="56.693px" viewBox="0 0 56.693 56.693" enable-background="new 0 0 56.693 56.693" xml:space="preserve">
<path fill="#474A56" d="M40.86,50.815H30.358V40.002c5.041-3.718,8.163-6.393,9.533-8.172c2.504-3.256,3.277-7.817,2.298-13.559
	c-0.754-4.412-2.434-12.197-2.504-12.525c-0.173-0.802-0.881-1.373-1.7-1.373H19.252c-0.818,0-1.527,0.571-1.7,1.373
	c-0.07,0.328-1.75,8.111-2.504,12.525c-0.979,5.738-0.206,10.299,2.299,13.559c1.369,1.779,4.491,4.455,9.532,8.172v10.812H16.376
	c-0.961,0-1.739,0.778-1.739,1.738c0,0.961,0.778,1.74,1.739,1.74H40.86c0.961,0,1.739-0.779,1.739-1.74
	C42.6,51.593,41.821,50.815,40.86,50.815z M20.659,7.852h15.918c0.525,2.482,1.628,7.759,2.182,11.006
	c0.108,0.635,0.188,1.247,0.248,1.844H18.229c0.061-0.597,0.141-1.209,0.248-1.844C19.031,15.61,20.134,10.335,20.659,7.852z"/>
</svg>
