<?xml version="1.0" encoding="utf-8"?>
<!-- Generator: Adobe Illustrator 16.0.4, SVG Export Plug-In . SVG Version: 6.00 Build 0)  -->
<!DOCTYPE svg PUBLIC "-//W3C//DTD SVG 1.1//EN" "http://www.w3.org/Graphics/SVG/1.1/DTD/svg11.dtd">
<svg version="1.1" id="Layer_1" xmlns="http://www.w3.org/2000/svg" xmlns:xlink="http://www.w3.org/1999/xlink" x="0px" y="0px"
	 width="56.693px" height="56.693px" viewBox="0 0 56.693 56.693" enable-background="new 0 0 56.693 56.693" xml:space="preserve">
<g>
	<path fill="#474A56" d="M22.402,4.908L11.776,4.91c-0.409,0-0.781,0.166-1.051,0.435c-0.268,0.27-0.435,0.64-0.433,1.049
		l0.001,1.485l-0.002,3.373v0.197v29.29c0,0.199,0.042,0.396,0.119,0.578l5.314,12.506c0.231,0.55,0.768,0.904,1.364,0.904
		c0.401,0,0.776-0.163,1.047-0.434c0.133-0.133,0.241-0.291,0.318-0.471l3.376-7.943l1.938-4.562
		c0.076-0.183,0.117-0.38,0.114-0.579l0.001-34.165l0.001-0.184c-0.002-0.39-0.155-0.77-0.435-1.049
		C23.172,5.064,22.793,4.912,22.402,4.908z M18.844,45.319l-3.512,0.002l-2.071-4.885L13.257,7.879l3.527-0.003v30.307
		c0.001,0.408,0.33,0.737,0.74,0.74c0.209-0.004,0.391-0.082,0.526-0.217c0.136-0.137,0.217-0.322,0.217-0.525V7.877l2.648,0
		l0.002,32.56L18.844,45.319z"/>
	<path fill="#474A56" d="M45.825,4.908L31.532,4.909c-0.822,0-1.488,0.666-1.488,1.487v3.969l0,0v0.773
		c-0.002,0.002,0,0.003,0,0.005V47.79c0,0.002,0,0.002,0,0.004v0.002v5.133c0,0.395,0.156,0.773,0.436,1.053
		c0.279,0.277,0.656,0.435,1.051,0.435l14.295-0.001c0.822,0,1.486-0.665,1.486-1.486v-9.816v-7.229V6.395
		C47.312,5.606,46.612,4.908,45.825,4.908z M44.337,35.884v7.229v8.33H33.019V48.78h5.658c0.822,0,1.488-0.666,1.488-1.487
		s-0.666-1.487-1.488-1.487h-5.658v-3.471h3.676c0.549,0,0.992-0.443,0.992-0.99c0-0.549-0.443-0.992-0.992-0.992h-3.676v-3.471
		h5.658c0.822,0,1.488-0.666,1.488-1.486c0-0.822-0.666-1.488-1.488-1.488h-5.658v-3.47h3.676c0.549,0,0.992-0.444,0.992-0.991
		c0-0.548-0.443-0.992-0.992-0.992h-3.676v-3.47h5.658c0.822,0,1.488-0.666,1.488-1.487c0-0.821-0.666-1.487-1.488-1.487h-5.658
		v-3.47h3.676c0.549,0,0.992-0.444,0.992-0.992c0-0.547-0.443-0.991-0.992-0.991h-3.676v-3.47h5.658
		c0.822,0,1.488-0.666,1.488-1.487c0-0.822-0.666-1.487-1.488-1.487h-5.658V7.883l11.318,0V35.884z"/>
</g>
</svg>
