<?xml version="1.0" encoding="utf-8"?>
<!-- Generator: Adobe Illustrator 17.0.0, SVG Export Plug-In . SVG Version: 6.00 Build 0)  -->
<!DOCTYPE svg PUBLIC "-//W3C//DTD SVG 1.1//EN" "http://www.w3.org/Graphics/SVG/1.1/DTD/svg11.dtd">
<svg version="1.1" id="Layer_1" xmlns="http://www.w3.org/2000/svg" xmlns:xlink="http://www.w3.org/1999/xlink" x="0px" y="0px"
	 width="56.693px" height="56.693px" viewBox="0 0 56.693 56.693" enable-background="new 0 0 56.693 56.693" xml:space="preserve">
<g>
	<path fill="#474A56" d="M35.999,32.539h-1.233v7.331h1.233c0.787,0,1.404-0.206,1.85-0.617c0.446-0.411,0.667-1.011,0.667-1.799
		v-2.261c0-0.833-0.221-1.484-0.667-1.953C37.403,32.773,36.786,32.539,35.999,32.539z"/>
	<path fill="#474A56" d="M26.458,32.436h-1.269v3.752h1.269c0.377,0,0.703-0.045,0.976-0.137c0.274-0.092,0.499-0.211,0.676-0.36
		c0.177-0.148,0.309-0.32,0.395-0.514c0.085-0.193,0.129-0.394,0.129-0.6v-0.394c0-0.491-0.172-0.904-0.515-1.242
		C27.777,32.605,27.221,32.436,26.458,32.436z"/>
	<path fill="#474A56" d="M51.501,26.753H20.418c-1.208,0-2.188,0.979-2.188,2.188v14.457c0,1.208,0.98,2.187,2.188,2.187h31.083
		c1.208,0,2.187-0.979,2.187-2.187V28.941C53.687,27.732,52.709,26.753,51.501,26.753z M30.619,34.492
		c0,0.435-0.073,0.851-0.222,1.25c-0.147,0.401-0.389,0.754-0.72,1.062c-0.331,0.308-0.759,0.557-1.283,0.746
		c-0.526,0.188-1.173,0.282-1.936,0.282h-1.269v3.22c0,0.206-0.088,0.392-0.265,0.557c-0.178,0.166-0.413,0.249-0.71,0.249
		c-0.309,0-0.559-0.098-0.747-0.292c-0.187-0.194-0.282-0.394-0.282-0.6v-9.438c0-0.206,0.096-0.392,0.282-0.557
		c0.188-0.166,0.438-0.249,0.747-0.249h2.243c0.719,0,1.342,0.092,1.866,0.274c0.526,0.183,0.96,0.437,1.303,0.763
		c0.342,0.325,0.594,0.705,0.753,1.139c0.16,0.434,0.239,0.902,0.239,1.405V34.492z M40.52,37.266c0,0.617-0.088,1.194-0.265,1.73
		c-0.177,0.537-0.451,1.005-0.822,1.405c-0.371,0.4-0.843,0.713-1.414,0.942c-0.571,0.228-1.245,0.342-2.021,0.342h-2.21
		c-0.319,0-0.571-0.082-0.754-0.248c-0.183-0.165-0.274-0.351-0.274-0.556v-9.353c0-0.206,0.092-0.392,0.274-0.557
		c0.183-0.166,0.435-0.249,0.754-0.249h2.21c0.775,0,1.449,0.122,2.021,0.368c0.571,0.246,1.043,0.577,1.414,0.994
		c0.371,0.417,0.646,0.908,0.822,1.473c0.177,0.565,0.265,1.167,0.265,1.808V37.266z M49.317,32.29
		c-0.166,0.166-0.407,0.249-0.729,0.249h-3.665v2.86h2.587c0.318,0,0.562,0.083,0.728,0.248c0.165,0.166,0.249,0.391,0.249,0.677
		c0,0.263-0.084,0.477-0.249,0.642c-0.166,0.166-0.409,0.249-0.728,0.249h-2.587v3.837c0,0.206-0.089,0.392-0.266,0.557
		c-0.178,0.166-0.414,0.249-0.71,0.249c-0.309,0-0.558-0.083-0.746-0.249c-0.188-0.166-0.282-0.351-0.282-0.557v-9.524
		c0-0.206,0.095-0.392,0.282-0.557c0.188-0.166,0.437-0.249,0.746-0.249h4.641c0.321,0,0.562,0.083,0.729,0.249
		c0.165,0.165,0.249,0.391,0.249,0.676C49.566,31.911,49.482,32.125,49.317,32.29z"/>
	<path fill="#474A56" d="M40.436,50.987H7.834V8.032h26.021v5.452c0,0.575,0.465,1.041,1.041,1.041h5.54v8.855h3.471v-9.912
		c0-0.464-0.188-0.91-0.518-1.235L36.114,5.06c-0.324-0.32-0.762-0.499-1.218-0.499H6.098c-0.959,0-1.735,0.777-1.735,1.735v46.426
		c0,0.959,0.776,1.736,1.735,1.736H42.17c0.961,0,1.737-0.777,1.737-1.736v-3.579h-3.471V50.987z"/>
</g>
</svg>
