<?xml version="1.0" encoding="utf-8"?>
<!-- Generator: Adobe Illustrator 17.0.0, SVG Export Plug-In . SVG Version: 6.00 Build 0)  -->
<!DOCTYPE svg PUBLIC "-//W3C//DTD SVG 1.1//EN" "http://www.w3.org/Graphics/SVG/1.1/DTD/svg11.dtd">
<svg version="1.1" id="Layer_1" xmlns="http://www.w3.org/2000/svg" xmlns:xlink="http://www.w3.org/1999/xlink" x="0px" y="0px"
	 width="56.693px" height="56.693px" viewBox="0 0 56.693 56.693" enable-background="new 0 0 56.693 56.693" xml:space="preserve">
<path fill="#474A56" d="M48.463,28.536c0.152-2.016-0.581-6.054-4.452-6.916c-0.881-0.195-1.737-0.178-2.498,0.054
	c-0.195-0.438-0.438-0.836-0.725-1.191c-0.896-1.096-2.203-1.732-3.78-1.844c-0.936-0.068-1.732,0.022-2.467,0.275
	c-0.101-0.172-0.211-0.336-0.331-0.492c-0.999-1.3-2.594-1.97-4.747-1.993c-0.581,0-1.13,0.071-1.639,0.211l-0.15-6.305
	c0.026-0.632-0.002-2.814-1.473-4.411c-0.927-1.005-2.197-1.527-3.782-1.551c-4.218,0-5.435,3.855-5.487,5.901L16.78,23.919
	c-0.86-0.399-1.805-0.607-2.775-0.607c-2.186,0-4.224,1.09-5.19,2.777c-0.849,1.482-0.799,3.251,0.138,4.852
	c1.122,1.914,2.076,4.158,3.087,6.534c1.167,2.747,2.491,5.859,4.313,9c2.505,4.318,3.571,5.858,4.007,6.416
	c0.312,0.691,0.995,1.134,1.76,1.134h17.438c0.561,0,1.114-0.261,1.479-0.7c0.135-0.163,0.242-0.343,0.271-0.451l0.07-0.07
	c0.312-0.304,1.143-1.112,3.306-4.799c3.975-6.773,3.804-13.523,3.795-13.791L48.463,28.536z M12.167,28.01
	c0.277-0.485,1.051-0.837,1.838-0.837c0.592,0,2.051,0.222,2.847,2.279c0.325,0.842,1.198,1.364,2.147,1.206
	c0.908-0.166,1.576-0.956,1.587-1.88l0.208-18.429c0.01-0.352,0.139-2.111,1.666-2.111c0.42,0.005,0.714,0.104,0.896,0.299
	c0.386,0.414,0.476,1.297,0.456,1.643c-0.002,0.059-0.004,0.116-0.002,0.17l0.285,11.023c-0.24,1.788,0.115,4.471,0.122,4.509
	c0.189,0.889,0.976,1.534,1.873,1.534c0.084,0,0.169-0.006,0.247-0.017c0.998-0.118,1.73-0.965,1.703-1.969l-0.087-3.727
	c0.231-1.306,0.814-1.409,1.549-1.409c0.811,0.008,1.409,0.183,1.642,0.477c0.294,0.376,0.227,1.091,0.179,1.317
	c-0.046,0.183-0.064,0.368-0.058,0.549l0.037,0.842c-0.067,0.949,0.067,2.736,0.1,2.896c0.176,0.905,0.965,1.562,1.875,1.562
	c0.084,0,0.17-0.006,0.245-0.016c0.997-0.115,1.746-0.993,1.706-1.987l-0.059-2.3c0.121-1.133,0.656-1.207,1.567-1.142
	c0.749,0.052,0.965,0.317,1.058,0.433c0.397,0.487,0.548,1.56,0.402,2.746c-0.092,0.397-0.13,1.239-0.153,1.914
	c-0.079,1.01,0.617,1.894,1.621,2.056c1.014,0.156,1.942-0.477,2.195-1.539c0.001-0.013,0.074-1.262,0.128-1.663
	c0.28-1.093,0.68-1.093,0.83-1.093c0.106,0,0.227,0.015,0.354,0.044c1.61,0.358,1.444,2.784,1.437,2.881
	c-0.004,0.058-0.007,0.113-0.007,0.174l0.013,5.828c0.002,0.059,0.124,5.999-3.266,11.775c-1.074,1.831-1.806,2.705-2.34,3.344
	c-0.234,0.28-0.433,0.516-0.6,0.765l-15.081,0.003c-0.214-0.376-0.491-0.772-0.849-1.279c-0.641-0.914-1.519-2.167-2.784-4.348
	c-1.691-2.913-2.908-5.771-4.115-8.604c-1.056-2.481-2.053-4.824-3.292-6.94C11.983,28.466,12.064,28.19,12.167,28.01z"/>
</svg>
