<?xml version="1.0" encoding="utf-8"?>
<!-- Generator: Adobe Illustrator 17.0.0, SVG Export Plug-In . SVG Version: 6.00 Build 0)  -->
<!DOCTYPE svg PUBLIC "-//W3C//DTD SVG 1.1//EN" "http://www.w3.org/Graphics/SVG/1.1/DTD/svg11.dtd">
<svg version="1.1" id="Layer_1" xmlns="http://www.w3.org/2000/svg" xmlns:xlink="http://www.w3.org/1999/xlink" x="0px" y="0px"
	 width="56.693px" height="56.693px" viewBox="0 0 56.693 56.693" enable-background="new 0 0 56.693 56.693" xml:space="preserve">
<path fill="#474A56" d="M43.214,25.081l-2.403-0.171L25.732,7.253c-1.295-1.648-2.596-2.486-3.866-2.488l-2.114,0.002
	c-0.169,0-0.327,0.087-0.417,0.228c-0.092,0.143-0.103,0.322-0.031,0.475l9.347,19.965l-12.43,0.924l-5.068-5.672
	c-0.095-0.104-0.229-0.165-0.369-0.165H6.731c-0.182,0-0.35,0.101-0.434,0.259c-0.087,0.16-0.078,0.354,0.02,0.506l5.194,7.947
	l-5.197,8.74c-0.091,0.154-0.093,0.343-0.005,0.497c0.087,0.154,0.252,0.25,0.43,0.25l4.046,0.002c0.141,0,0.274-0.06,0.369-0.165
	l5.067-5.672l12.432,0.926L19.305,53.88c-0.071,0.152-0.06,0.332,0.031,0.474c0.09,0.143,0.248,0.229,0.417,0.229h2.111
	c1.272,0,2.574-0.837,3.853-2.473l15.092-17.671l2.437-0.175c0.616-0.081,1.184-0.155,1.701-0.216
	c0.538-0.065,1.218-0.2,2.075-0.415c0.893-0.222,1.784-0.694,2.65-1.402c0.927-0.758,1.396-1.619,1.396-2.558
	C51.067,27.064,48.426,25.52,43.214,25.081z"/>
</svg>
