<?xml version="1.0" encoding="utf-8"?>
<!-- Generator: Adobe Illustrator 17.0.0, SVG Export Plug-In . SVG Version: 6.00 Build 0)  -->
<!DOCTYPE svg PUBLIC "-//W3C//DTD SVG 1.1//EN" "http://www.w3.org/Graphics/SVG/1.1/DTD/svg11.dtd">
<svg version="1.1" id="Layer_1" xmlns="http://www.w3.org/2000/svg" xmlns:xlink="http://www.w3.org/1999/xlink" x="0px" y="0px"
	 width="56.693px" height="56.693px" viewBox="0 0 56.693 56.693" enable-background="new 0 0 56.693 56.693" xml:space="preserve">
<path fill="#474A56" d="M33.557,44.271l-3.408,0.22l8.324-29.294c0.059-0.207-0.022-0.426-0.201-0.545
	c-0.177-0.118-0.411-0.11-0.579,0.024L25.85,24.048L29.793,5.79c0.04-0.182-0.025-0.368-0.168-0.486
	c-0.143-0.117-0.341-0.144-0.51-0.068l-8.366,3.68c-0.164,0.074-0.277,0.229-0.293,0.409l-2.253,25.463
	c-0.017,0.198,0.085,0.386,0.259,0.477c0.174,0.094,0.387,0.073,0.542-0.052l9.96-8.08l-2.896,16.316L22.9,41.972
	c-0.17-0.079-0.368-0.055-0.516,0.061c-0.147,0.116-0.213,0.305-0.174,0.487l2.437,11.495c0.039,0.18,0.174,0.323,0.351,0.373
	c0.044,0.012,0.087,0.018,0.131,0.018c0.135,0,0.268-0.056,0.361-0.158l8.461-9.149c0.137-0.147,0.17-0.365,0.082-0.546
	C33.947,44.37,33.765,44.259,33.557,44.271z"/>
</svg>
