<?xml version="1.0" encoding="utf-8"?>
<!-- Generator: Adobe Illustrator 17.0.0, SVG Export Plug-In . SVG Version: 6.00 Build 0)  -->
<!DOCTYPE svg PUBLIC "-//W3C//DTD SVG 1.1//EN" "http://www.w3.org/Graphics/SVG/1.1/DTD/svg11.dtd">
<svg version="1.1" id="Layer_1" xmlns="http://www.w3.org/2000/svg" xmlns:xlink="http://www.w3.org/1999/xlink" x="0px" y="0px"
	 width="56.693px" height="56.693px" viewBox="0 0 56.693 56.693" enable-background="new 0 0 56.693 56.693" xml:space="preserve">
<g>
	<path fill="#474A56" d="M32.185,48.25h-7.462c-0.284,0-0.514,0.229-0.514,0.514c0,2.199,1.904,3.988,4.244,3.988
		c2.341,0,4.245-1.789,4.245-3.988C32.698,48.478,32.469,48.25,32.185,48.25z"/>
	<path fill="#474A56" d="M40.919,36.72c0.431-1.233,0.648-2.5,0.648-3.779V22.572c0-5.289-3.548-9.904-8.869-11.6V9.925
		c0-2.201-1.904-3.992-4.245-3.992c-2.34,0-4.244,1.791-4.244,3.992v1.045c-5.321,1.699-8.867,6.314-8.867,11.602v10.369
		c0,1.285,0.217,2.553,0.646,3.779c-3.511,0.191-6.176,1.98-6.176,4.229v3.732c0,0.283,0.229,0.514,0.514,0.514H46.58
		c0.284,0,0.515-0.23,0.515-0.514v-3.732C47.095,38.701,44.429,36.912,40.919,36.72z"/>
</g>
</svg>
