<?xml version="1.0" encoding="utf-8"?>
<!-- Generator: Adobe Illustrator 17.0.0, SVG Export Plug-In . SVG Version: 6.00 Build 0)  -->
<!DOCTYPE svg PUBLIC "-//W3C//DTD SVG 1.1//EN" "http://www.w3.org/Graphics/SVG/1.1/DTD/svg11.dtd">
<svg version="1.1" id="Layer_1" xmlns="http://www.w3.org/2000/svg" xmlns:xlink="http://www.w3.org/1999/xlink" x="0px" y="0px"
	 width="56.693px" height="56.693px" viewBox="0 0 56.693 56.693" enable-background="new 0 0 56.693 56.693" xml:space="preserve">
<g>
	<path fill="#474A56" d="M33.326,21.15h6.344v3.885c0,0.564,0.316,1.08,0.818,1.336c0.215,0.109,0.448,0.164,0.682,0.164
		c0.31,0,0.619-0.097,0.881-0.286l10.167-7.384c0.389-0.282,0.618-0.733,0.618-1.214c0-0.479-0.23-0.932-0.618-1.214L42.05,9.052
		c-0.457-0.33-1.061-0.378-1.562-0.123c-0.502,0.256-0.818,0.773-0.818,1.337v3.884h-6.346c-0.296,0-0.615,0.02-0.945,0.053
		c-0.084,0.008-0.171,0.022-0.256,0.033c-0.264,0.031-0.532,0.073-0.81,0.127c-0.086,0.018-0.172,0.037-0.26,0.057
		c-0.306,0.066-0.617,0.147-0.935,0.243c-0.058,0.017-0.114,0.033-0.172,0.052c-2.642,0.834-5.566,2.715-7.465,6.268
		c-0.014,0.026-0.026,0.053-0.04,0.078c-0.76,1.441-1.342,3.158-1.672,5.188c0,0.002,0,0.002,0,0.004v0.001
		c-0.063,0.389-0.12,0.784-0.164,1.196c-0.06,0.527-0.11,1.068-0.131,1.642c-0.244,6.592-3.521,7.116-4.086,7.152H6.81
		c-1.932,0-3.5,1.567-3.5,3.5c0,1.933,1.568,3.5,3.5,3.5h9.578c0.26,0,0.539-0.019,0.828-0.05c0.084-0.01,0.171-0.024,0.256-0.037
		c0.219-0.029,0.44-0.067,0.67-0.116c0.097-0.021,0.193-0.043,0.293-0.068c0.243-0.059,0.49-0.132,0.742-0.215
		c0.082-0.026,0.162-0.05,0.245-0.08c0.692-0.245,1.402-0.58,2.105-1.024c0.031-0.02,0.062-0.043,0.094-0.062
		c0.314-0.203,0.624-0.429,0.932-0.676c0.064-0.053,0.128-0.108,0.192-0.161c0.283-0.238,0.559-0.497,0.829-0.776
		c0.058-0.061,0.116-0.117,0.173-0.18c0.316-0.342,0.623-0.707,0.913-1.11c0.001-0.001,0.001-0.001,0.002-0.003h0.001
		c0.095-0.133,0.184-0.275,0.275-0.415c0.115-0.174,0.227-0.353,0.336-0.538c0.094-0.16,0.188-0.32,0.277-0.488
		c0.146-0.276,0.287-0.564,0.42-0.864c0.098-0.218,0.187-0.448,0.275-0.679c0.068-0.176,0.135-0.355,0.197-0.539
		c0.083-0.24,0.164-0.482,0.238-0.735c0.042-0.143,0.076-0.296,0.115-0.442c0.127-0.48,0.237-0.982,0.331-1.51
		c0.031-0.178,0.061-0.359,0.089-0.543c0.047-0.312,0.092-0.627,0.127-0.955c0-0.002,0-0.003,0-0.004
		c0.055-0.525,0.104-1.057,0.125-1.623C27.75,21.726,32.445,21.181,33.326,21.15z"/>
	<path fill="#474A56" d="M6.81,20.65h9.578c0.017,0,0.749,0.023,1.621,0.562c0.791-2.031,1.837-3.748,3.053-5.174
		c-1.677-1.004-3.392-1.389-4.674-1.389H6.81c-1.656,0-3,1.344-3,3C3.81,19.306,5.154,20.65,6.81,20.65z"/>
	<path fill="#474A56" d="M52.217,38.531L42.05,31.148c-0.457-0.332-1.061-0.378-1.562-0.123c-0.502,0.257-0.818,0.773-0.818,1.337
		v4.382h-6.303c-0.444-0.012-1.67-0.126-2.932-0.93c-0.658,2.118-1.594,3.891-2.696,5.371c1.997,1.133,4.056,1.558,5.587,1.559
		h6.344v4.387c0,0.563,0.316,1.081,0.818,1.337c0.215,0.109,0.448,0.163,0.682,0.163c0.31,0,0.62-0.097,0.881-0.286l10.168-7.386
		c0.388-0.283,0.617-0.734,0.617-1.214C52.836,39.264,52.606,38.813,52.217,38.531z"/>
</g>
</svg>
