<?xml version="1.0" encoding="utf-8"?>
<!-- Generator: Adobe Illustrator 17.0.0, SVG Export Plug-In . SVG Version: 6.00 Build 0)  -->
<!DOCTYPE svg PUBLIC "-//W3C//DTD SVG 1.1//EN" "http://www.w3.org/Graphics/SVG/1.1/DTD/svg11.dtd">
<svg version="1.1" id="Layer_1" xmlns="http://www.w3.org/2000/svg" xmlns:xlink="http://www.w3.org/1999/xlink" x="0px" y="0px"
	 width="56.693px" height="56.693px" viewBox="0 0 56.693 56.693" enable-background="new 0 0 56.693 56.693" xml:space="preserve">
<g>
	<rect x="23.932" y="10.847" fill="#474A56" width="2.461" height="2.473"/>
	<rect x="30.3" y="10.847" fill="#474A56" width="2.461" height="2.473"/>
	<path fill="#474A56" d="M38.696,16.84h-2.771V5.413c0-0.573-0.465-1.039-1.039-1.039h-13.08c-0.572,0-1.038,0.466-1.038,1.039
		V16.84h-2.774v19.983c0,2.444,2.122,4.352,4.172,4.784l0.177,0.038h2.671v3.434c0,0.491,0.348,0.884,0.806,0.992v7.262
		c0,0.574,0.466,1.039,1.039,1.039h2.972c0.574,0,1.04-0.465,1.04-1.039v-7.262c0.459-0.108,0.808-0.5,0.808-0.992v-3.434h2.672
		l0.178-0.038c2.051-0.433,4.172-2.34,4.172-4.784L38.696,16.84z M22.846,6.453h11.003V16.84H22.846V6.453z M33.952,38.181H22.74
		c-0.608-0.194-1.281-0.81-1.281-1.357V20.304h13.773l0.003,16.519C35.235,37.371,34.562,37.987,33.952,38.181z"/>
</g>
</svg>
