<?xml version="1.0" encoding="utf-8"?>
<!-- Generator: Adobe Illustrator 17.0.0, SVG Export Plug-In . SVG Version: 6.00 Build 0)  -->
<!DOCTYPE svg PUBLIC "-//W3C//DTD SVG 1.1//EN" "http://www.w3.org/Graphics/SVG/1.1/DTD/svg11.dtd">
<svg version="1.1" id="Layer_1" xmlns="http://www.w3.org/2000/svg" xmlns:xlink="http://www.w3.org/1999/xlink" x="0px" y="0px"
	 width="56.693px" height="56.693px" viewBox="0 0 56.693 56.693" enable-background="new 0 0 56.693 56.693" xml:space="preserve">
<g>
	<path fill="#474A56" d="M30.004,12.139c-0.432-4.465-3.79-7.952-7.86-7.952h-5.985v2.5h5.985c2.69,0,4.923,2.349,5.335,5.409h-0.38
		v0.032h-0.195c-6.477,0-11.745,5.269-11.745,11.746v15.787c0,8.167,6.425,14.744,11.745,14.744h2.888
		c6.506,0,11.745-8.065,11.745-14.744V23.874C41.537,17.469,36.382,12.254,30.004,12.139z M37.537,26.41H32.54v2h4.997v11.251
		c0,4.592-3.829,10.744-7.745,10.744h-2.888c-3.916,0-7.745-6.152-7.745-10.744V28.41h4.999v-2h-4.999v-2.536
		c0-4.271,3.475-7.746,7.745-7.746h2.888c4.271,0,7.745,3.475,7.745,7.746V26.41z"/>
	<path fill="#474A56" d="M28.349,23.177c-1.212,0-2.191,0.981-2.191,2.191v1.042v2v1.042c0,1.211,0.979,2.191,2.191,2.191
		c1.21,0,2.19-0.981,2.19-2.191V28.41v-2v-1.042C30.54,24.157,29.559,23.177,28.349,23.177z"/>
</g>
</svg>
