<?xml version="1.0" encoding="utf-8"?>
<!-- Generator: Adobe Illustrator 17.0.0, SVG Export Plug-In . SVG Version: 6.00 Build 0)  -->
<!DOCTYPE svg PUBLIC "-//W3C//DTD SVG 1.1//EN" "http://www.w3.org/Graphics/SVG/1.1/DTD/svg11.dtd">
<svg version="1.1" id="Layer_1" xmlns="http://www.w3.org/2000/svg" xmlns:xlink="http://www.w3.org/1999/xlink" x="0px" y="0px"
	 width="56.693px" height="56.693px" viewBox="0 0 56.693 56.693" enable-background="new 0 0 56.693 56.693" xml:space="preserve">
<path fill="#474A56" d="M28.347,4.628c-13.529,0-24.535,11.006-24.535,24.535s11.006,24.537,24.535,24.537
	s24.535-11.008,24.535-24.537S41.876,4.628,28.347,4.628z M29.026,11.913c2.99,0,5.422,2.434,5.422,5.424
	c0,2.99-2.432,5.423-5.422,5.423c-2.99,0-5.424-2.433-5.424-5.423C23.603,14.347,26.036,11.913,29.026,11.913z M36.448,44.378
	c-0.428,0.456-0.887,0.553-1.197,0.553H22.798c-0.311,0-0.771-0.097-1.197-0.553c-0.332-0.355-0.5-0.818-0.5-1.376
	c0-0.567,0.164-1.042,0.486-1.409c0.43-0.486,0.894-0.588,1.211-0.588h1.414V30.626h-1.414c-0.311,0-0.771-0.096-1.197-0.553
	c-0.332-0.355-0.5-0.818-0.5-1.377c0-0.566,0.164-1.039,0.486-1.406c0.43-0.488,0.894-0.59,1.211-0.59H33.23
	c0.336,0,0.609,0.273,0.609,0.607v13.697h1.412c0.314,0,0.781,0.102,1.209,0.588c0.324,0.367,0.488,0.842,0.488,1.409
	C36.948,43.562,36.78,44.024,36.448,44.378z"/>
</svg>
