<?xml version="1.0" encoding="utf-8"?>
<!-- Generator: Adobe Illustrator 17.0.0, SVG Export Plug-In . SVG Version: 6.00 Build 0)  -->
<!DOCTYPE svg PUBLIC "-//W3C//DTD SVG 1.1//EN" "http://www.w3.org/Graphics/SVG/1.1/DTD/svg11.dtd">
<svg version="1.1" id="Layer_1" xmlns="http://www.w3.org/2000/svg" xmlns:xlink="http://www.w3.org/1999/xlink" x="0px" y="0px"
	 width="56.693px" height="56.693px" viewBox="0 0 56.693 56.693" enable-background="new 0 0 56.693 56.693" xml:space="preserve">
<path fill="#474A56" d="M43.631,24.239c-1.383,0-2.694,0.302-3.882,0.832c-0.748-1.551-1.419-3.073-1.836-4.319
	c-0.481-1.435-0.885-3.14-1.102-4.056c-0.103-0.433-0.178-0.717-0.206-0.788c-0.506-1.239-1.66-1.509-2.231-1.471h-1.868
	c-0.47,0-0.85,0.38-0.85,0.85c0,0.47,0.38,0.85,0.85,0.85h1.903c0.089,0.013,0.463,0.022,0.605,0.369
	c0.024,0.08,0.072,0.288,0.143,0.582c0.169,0.717,0.45,1.902,0.798,3.092L23.442,20.26v-1.776c0-0.078-0.024-0.148-0.044-0.221
	l0.119-0.024c0.265-0.164,0.674-0.359,1.268-0.45c0.466-0.069,2.208-0.489,2.193-1.249c-0.012-0.545-0.782-0.629-1.073-0.66
	c-0.269-0.029-0.656-0.083-1.111-0.145c-1.39-0.191-3.289-0.449-4.661-0.449c-1.129,0-1.688,0.171-1.871,0.574
	c-0.123,0.271-0.039,0.574,0.247,0.901c1.105,1.252,2.452,1.662,3.234,1.801v2.271l-3.631,4.863
	c-1.467-0.918-3.194-1.458-5.049-1.458c-5.268,0-9.553,4.285-9.553,9.553c0,5.267,4.285,9.552,9.553,9.552
	c3.814,0,7.104-2.25,8.633-5.489l-2.292-0.387c-1.274,2.19-3.629,3.677-6.341,3.677c-4.055,0-7.353-3.299-7.353-7.353
	c0-4.055,3.299-7.353,7.353-7.353c1.362,0,2.635,0.379,3.729,1.027l-4.436,5.943c-0.187,0.251-0.221,0.585-0.088,0.869
	c0.132,0.283,0.41,0.472,0.723,0.488l0.059,0.003l-0.012,0.013l7.044,1.204l2.174,0.371l2.919,0.499
	c0.244,0.078,0.5,0.132,0.771,0.132c1.408,0,2.55-1.142,2.55-2.55c0-0.195-0.026-0.384-0.068-0.567l9.446-8.779
	c0.126,0.268,0.255,0.537,0.385,0.807c-2.521,1.722-4.181,4.617-4.181,7.893c0,5.267,4.285,9.552,9.554,9.552
	c5.267,0,9.552-4.285,9.552-9.552C53.183,28.524,48.897,24.239,43.631,24.239z M22.48,32.253c-0.266-1.633-0.945-3.125-1.929-4.369
	l-1.39,1.852c0.546,0.819,0.95,1.742,1.132,2.748l-5.563,0.587l3.418-4.579l1.327-1.76c-0.003-0.002-0.005-0.005-0.008-0.008
	l2.768-3.709l2.494,9.001L22.48,32.253z M27.489,32.42c-0.296-0.227-0.637-0.396-1.015-0.476l-2.767-9.986l12.804-0.083
	c0.184,0.5,0.394,1.026,0.627,1.575L27.489,32.42z M43.631,41.144c-4.055,0-7.354-3.299-7.354-7.353
	c0-2.415,1.176-4.555,2.978-5.895c1.691,3.291,3.394,6.184,3.513,6.384c0.158,0.269,0.441,0.418,0.732,0.418
	c0.146,0,0.296-0.039,0.432-0.119c0.404-0.238,0.538-0.76,0.299-1.164c-0.029-0.049-1.786-3.034-3.502-6.377
	c0.892-0.385,1.872-0.6,2.902-0.6c4.054,0,7.353,3.299,7.353,7.353C50.983,37.845,47.685,41.144,43.631,41.144z"/>
</svg>
