<?xml version="1.0" encoding="utf-8"?>
<!-- Generator: Adobe Illustrator 17.0.0, SVG Export Plug-In . SVG Version: 6.00 Build 0)  -->
<!DOCTYPE svg PUBLIC "-//W3C//DTD SVG 1.1//EN" "http://www.w3.org/Graphics/SVG/1.1/DTD/svg11.dtd">
<svg version="1.1" id="Layer_1" xmlns="http://www.w3.org/2000/svg" xmlns:xlink="http://www.w3.org/1999/xlink" x="0px" y="0px"
	 width="56.693px" height="56.693px" viewBox="0 0 56.693 56.693" enable-background="new 0 0 56.693 56.693" xml:space="preserve">
<g>
	<path fill="#474A56" d="M22.788,45.998l-1.977,6.027c0,0.44,0.438,0.797,0.977,0.797H34.79c0.539,0,0.977-0.356,0.977-0.797
		l-1.979-6.027H22.788z"/>
	<path fill="#474A56" d="M49.577,5.811H6.999c-1.959,0-3.547,1.588-3.547,3.546V40c0,1.959,1.588,3.547,3.547,3.547h42.578
		c1.961,0,3.549-1.588,3.549-3.547V9.356C53.126,7.398,51.538,5.811,49.577,5.811z M48.847,38.995H7.555V9.25h41.292V38.995z"/>
</g>
</svg>
