<?xml version="1.0" encoding="utf-8"?>
<!-- Generator: Adobe Illustrator 17.0.0, SVG Export Plug-In . SVG Version: 6.00 Build 0)  -->
<!DOCTYPE svg PUBLIC "-//W3C//DTD SVG 1.1//EN" "http://www.w3.org/Graphics/SVG/1.1/DTD/svg11.dtd">
<svg version="1.1" id="Layer_1" xmlns="http://www.w3.org/2000/svg" xmlns:xlink="http://www.w3.org/1999/xlink" x="0px" y="0px"
	 width="56.693px" height="56.693px" viewBox="0 0 56.693 56.693" enable-background="new 0 0 56.693 56.693" xml:space="preserve">
<g>
	<path fill="#474A56" d="M32.192,48.25h-7.462c-0.283,0-0.514,0.229-0.514,0.514c0,2.199,1.905,3.988,4.245,3.988
		s4.245-1.789,4.245-3.988C32.707,48.478,32.477,48.25,32.192,48.25z"/>
	<path fill="#474A56" d="M35.976,12.525c-0.99-0.644-2.083-1.174-3.269-1.553V9.925c0-2.201-1.905-3.992-4.245-3.992
		s-4.245,1.791-4.245,3.992v1.045c-5.32,1.699-8.866,6.314-8.866,11.602v10.369c0,0.066,0.007,0.135,0.008,0.201L35.976,12.525z"/>
	<path fill="#474A56" d="M40.927,36.72c0.431-1.233,0.649-2.5,0.649-3.779V22.572c0-0.307-0.013-0.611-0.038-0.913L18.001,45.195
		h28.588c0.284,0,0.514-0.23,0.514-0.514v-3.732C47.103,38.701,44.438,36.912,40.927,36.72z"/>
	<path fill="#474A56" d="M50.959,5.11c-0.481-0.481-1.12-0.744-1.798-0.744c-0.679,0-1.316,0.265-1.796,0.744L5.474,46.997
		c-0.991,0.992-0.991,2.604,0,3.595c0.483,0.481,1.121,0.744,1.797,0.744c0.679,0,1.317-0.265,1.797-0.744L50.959,8.704
		C51.95,7.712,51.95,6.101,50.959,5.11z"/>
</g>
</svg>
