<?xml version="1.0" encoding="utf-8"?>
<!-- Generator: Adobe Illustrator 17.0.0, SVG Export Plug-In . SVG Version: 6.00 Build 0)  -->
<!DOCTYPE svg PUBLIC "-//W3C//DTD SVG 1.1//EN" "http://www.w3.org/Graphics/SVG/1.1/DTD/svg11.dtd">
<svg version="1.1" id="Layer_1" xmlns="http://www.w3.org/2000/svg" xmlns:xlink="http://www.w3.org/1999/xlink" x="0px" y="0px"
	 width="56.693px" height="56.693px" viewBox="0 0 56.693 56.693" enable-background="new 0 0 56.693 56.693" xml:space="preserve">
<g>
	<path fill="#474A56" d="M35.801,45.541H7.437V17.177h24.222c1.155-1.141,2.325-2.252,3.51-3.313c0.111-0.1,0.214-0.189,0.323-0.286
		H7.437c-1.988,0-3.6,1.611-3.6,3.6v28.364c0,1.988,1.611,3.6,3.6,3.6h28.364c1.988,0,3.6-1.611,3.6-3.6V26.034
		c-1.236,1.243-2.438,2.517-3.6,3.825V45.541z"/>
	<path fill="#474A56" d="M52.109,10.169c-0.547-0.126-1.539-0.248-3.035-0.376c-1.533-0.128-2.482-0.141-2.983-0.045
		c-0.51,0.1-1.428,0.564-2.811,1.427c-1.343,0.842-3.399,2.498-6.112,4.925c-2.715,2.432-5.362,5.089-7.873,7.899
		c-2.339,2.617-4.631,5.408-6.824,8.303c-0.819-2.45-1.665-4.172-2.576-5.251c-1.025-1.215-1.957-1.904-2.843-2.107
		c-0.709-0.164-1.624-0.008-2.801,0.476c-1.206,0.496-1.909,1.136-2.082,1.904c-0.134,0.58,0.142,1.416,0.863,2.635
		c1.275,2.153,2.342,4.397,3.171,6.673c0.533,1.421,0.896,2.286,1.111,2.641c0.183,0.3,0.638,0.699,2.562,1.137
		c0.982,0.226,1.789,0.339,2.403,0.339c0.657,0,1.125-0.128,1.419-0.384c0.482-0.403,1.445-1.634,2.943-3.765
		c3.597-5.169,7.75-10.011,12.344-14.399c4.595-4.389,8.666-7.621,12.096-9.607c1.052-0.579,1.251-0.738,1.322-0.794
		c0.223-0.182,0.367-0.401,0.424-0.65C52.914,10.774,52.77,10.32,52.109,10.169z"/>
</g>
</svg>
