<?xml version="1.0" encoding="utf-8"?>
<!-- Generator: Adobe Illustrator 17.0.0, SVG Export Plug-In . SVG Version: 6.00 Build 0)  -->
<!DOCTYPE svg PUBLIC "-//W3C//DTD SVG 1.1//EN" "http://www.w3.org/Graphics/SVG/1.1/DTD/svg11.dtd">
<svg version="1.1" id="Layer_1" xmlns="http://www.w3.org/2000/svg" xmlns:xlink="http://www.w3.org/1999/xlink" x="0px" y="0px"
	 width="56.693px" height="56.693px" viewBox="0 0 56.693 56.693" enable-background="new 0 0 56.693 56.693" xml:space="preserve">
<g>
	<path fill="#474A56" d="M28.611,19.875c-0.278-0.157-0.548-0.342-0.796-0.584c-0.709-0.693-1.137-1.742-1.273-3.149h-0.946
		c-0.088,0-0.137-0.063-0.137-0.192c0-0.126,0.053-0.282,0.143-0.47c0.095-0.188,0.175-0.283,0.239-0.283l0.642-0.002v-0.267
		c0-0.217,0.01-0.533,0.032-0.946h-0.92c-0.088,0-0.137-0.062-0.137-0.187c0-0.127,0.053-0.287,0.143-0.475
		c0.096-0.189,0.175-0.284,0.239-0.284h0.748c0.32-2.587,1.542-3.88,3.663-3.88c0.933,0,1.738,0.241,2.414,0.721
		c0.678,0.482,1.01,1.08,1.01,1.796c0,0.244-0.079,0.449-0.237,0.618c-0.158,0.169-0.351,0.254-0.578,0.254
		c-0.257,0-0.441-0.065-0.555-0.193c-0.122-0.129-0.231-0.33-0.35-0.596c-0.143-0.354-0.316-0.625-0.513-0.808
		c-0.2-0.188-0.535-0.282-1.015-0.282c-0.543,0-0.967,0.193-1.262,0.574c-0.295,0.383-0.487,0.982-0.569,1.795h2.399
		c0.098,0,0.146,0.066,0.149,0.195c-0.002,0.138-0.046,0.298-0.14,0.48c-0.089,0.179-0.169,0.271-0.24,0.271h-2.226l-0.016,0.73
		c0,0.225,0.003,0.383,0.016,0.482h2.457c0.098,0.002,0.149,0.063,0.149,0.188c0,0.143-0.047,0.306-0.14,0.488
		c-0.089,0.181-0.169,0.27-0.24,0.27h-2.185c0.176,1.785,0.748,2.674,1.714,2.674c0.365,0,0.694-0.085,0.995-0.259
		c0.3-0.173,0.591-0.583,0.868-1.222c0.181-0.417,0.336-0.677,0.461-0.777c0.129-0.104,0.27-0.155,0.419-0.155
		c0.298,0,0.529,0.088,0.698,0.257c0.165,0.172,0.248,0.411,0.248,0.719c0,0.73-0.358,1.404-1.071,2.024
		c-0.271,0.235-0.571,0.409-0.885,0.555c1.835,0.227,3.571,0.751,5.164,1.521c1.704-1.742,2.76-4.12,2.76-6.743
		c0-2.578-1.003-5-2.824-6.825c-1.823-1.822-4.247-2.827-6.826-2.827c-5.32,0-9.65,4.329-9.65,9.651c0,2.509,0.971,4.79,2.546,6.508
		C24.895,20.491,26.72,20.027,28.611,19.875z"/>
	<path fill="#474A56" d="M53.405,26.979c-0.122-0.619-0.724-1.042-1.344-0.921c-0.618,0.123-1.022,0.701-0.9,1.319
		c-0.026,0.413-0.997,1.511-2.237,2.005c0.501-0.997,0.723-2.072,0.434-3.174c-0.453-1.729-1.788-3.146-3.321-3.522
		c-1.033-0.254-1.991,0.003-2.63,0.705c-0.621,0.681-1.17,2.046-0.257,4.678c0.166,0.479,0.368,0.906,0.591,1.3
		c0.837-0.752,1.445-1.469,1.623-1.909c-0.019-0.049-0.039-0.087-0.056-0.139c-0.523-1.505-0.369-2.223-0.214-2.392
		c0.036-0.039,0.104-0.054,0.184-0.054c0.069,0,0.147,0.012,0.213,0.028c0.619,0.152,1.387,0.849,1.659,1.885
		c0.103,0.393,0.035,0.818-0.137,1.256l0.004,0.005c-0.056,0.139-0.122,0.279-0.199,0.419c-0.036,0.067-0.081,0.135-0.122,0.203
		c-0.067,0.111-0.139,0.221-0.216,0.331c-0.03,0.042-0.052,0.083-0.083,0.125c-0.002-0.002-0.002-0.004-0.004-0.005
		c-0.423,0.572-0.972,1.139-1.562,1.66c0.001,0.001,0.001,0.002,0.002,0.002c-0.021,0.018-0.041,0.033-0.061,0.051
		c-0.147,0.129-0.297,0.255-0.447,0.378l-0.002-0.003c-0.358,0.292-0.72,0.562-1.065,0.807c-1.648-5.601-6.976-9.719-13.289-9.719
		c-3.649,0-7.087,1.372-9.66,3.811c-0.841-3.423-6.821-6.106-7.578-6.106c-0.213,0-0.326,0.025-0.326,0.025
		c-0.56,0.122-1.016,0.63-1.016,1.203l2.887,5.536c-3.363,0.596-6.172,2.935-7.278,6.07l-2.276,0.908
		c-0.655,0.192-1.22,0.548-1.22,1.221l0.666,4.503c0,0.673,0.599,1.049,1.22,1.22l3.194,0.871c1.798,2.163,4.516,3.438,7.399,3.438
		c0.597,0,1.187-0.055,1.771-0.164l-0.946,5.684c0,1.214,0.987,2.201,2.199,2.201h2.439c1.212,0,2.202-0.987,2.202-2.201
		l0.292-2.622c2.883,1.73,9.359,1.435,12.035,0.044l0.377,2.578c0,1.214,0.987,2.201,2.202,2.201h1.491
		c1.215,0,3.146-0.987,3.146-2.201l-0.946-8.702c0.707-1.317,1.176-2.745,1.397-4.212l0.135-1.342c0.009-0.2,0.02-0.397,0.02-0.596
		c0-0.411-0.026-0.815-0.064-1.216c0.741-0.462,2.1-1.381,3.314-2.588c0.646,0.102,1.34,0.057,2.065-0.14
		C51.36,31.114,53.779,28.862,53.405,26.979z M13,34.297c-0.846,0-1.528-0.712-1.528-1.587c0-0.877,0.683-1.588,1.528-1.588
		c0.84,0,1.521,0.711,1.521,1.588C14.521,33.585,13.839,34.297,13,34.297z"/>
</g>
</svg>
