<?xml version="1.0" encoding="utf-8"?>
<!-- Generator: Adobe Illustrator 17.0.0, SVG Export Plug-In . SVG Version: 6.00 Build 0)  -->
<!DOCTYPE svg PUBLIC "-//W3C//DTD SVG 1.1//EN" "http://www.w3.org/Graphics/SVG/1.1/DTD/svg11.dtd">
<svg version="1.1" id="Layer_1" xmlns="http://www.w3.org/2000/svg" xmlns:xlink="http://www.w3.org/1999/xlink" x="0px" y="0px"
	 width="56.693px" height="56.693px" viewBox="0 0 56.693 56.693" enable-background="new 0 0 56.693 56.693" xml:space="preserve">
<g>
	<path fill="#474A56" d="M20.168,26.675c-1.587,1.906-5.246,6.877-5.344,12.287c-0.003,0.171,0.082,0.332,0.225,0.427
		c0.083,0.055,0.179,0.082,0.275,0.082c0.07,0,0.141-0.015,0.207-0.045l5.742-2.609c-0.003-0.021-0.01-0.041-0.012-0.062
		L20.168,26.675z"/>
	<path fill="#474A56" d="M41.846,38.817c-0.161-5.402-3.836-10.346-5.385-12.196l-1.097,10.136
		c-0.001,0.014-0.006,0.026-0.008,0.041l5.786,2.627c0.066,0.03,0.137,0.045,0.207,0.045c0.008,0.001,0.015,0.001,0.02,0
		c0.276,0,0.5-0.224,0.5-0.5C41.869,38.917,41.861,38.865,41.846,38.817z"/>
	<path fill="#474A56" d="M35.541,13.654c-0.502-3.047-2.303-7.061-4.797-8.766c-0.058-0.039-0.112-0.088-0.171-0.125
		c-0.145-0.091-0.295-0.159-0.444-0.233c-0.093-0.047-0.183-0.106-0.277-0.147c-0.102-0.043-0.209-0.064-0.313-0.1
		c-0.146-0.049-0.291-0.108-0.441-0.141c-0.068-0.014-0.141-0.011-0.209-0.022c-0.19-0.03-0.381-0.062-0.576-0.062
		c-0.141,0-0.277,0.028-0.416,0.044c-0.123,0.014-0.248,0.014-0.369,0.039c-0.19,0.041-0.375,0.11-0.56,0.178
		c-0.064,0.024-0.131,0.035-0.194,0.062c-0.146,0.062-0.284,0.147-0.425,0.224c-0.099,0.054-0.201,0.096-0.298,0.157
		c-0.059,0.037-0.114,0.086-0.172,0.126c-1.798,1.229-3.236,3.656-4.085,6.073c-0.143,0.404-0.262,0.806-0.369,1.203
		c-0.226,0.828-0.382,1.631-0.445,2.352c-0.024,0.267-0.036,0.522-0.036,0.765l2.311,21.281c0.027,0.396,0.355,0.702,0.75,0.702
		h8.618c0.395,0,0.723-0.306,0.752-0.702l2.31-21.332C35.683,14.755,35.634,14.222,35.541,13.654z M28.311,21.839
		c-1.618-0.001-2.93-1.312-2.931-2.932c0-1.619,1.312-2.933,2.934-2.932c1.617,0.001,2.932,1.312,2.932,2.932
		C31.244,20.525,29.931,21.837,28.311,21.839z"/>
	<path fill="#474A56" d="M30.44,40.41c-0.595,1.818-1.333,3.224-2.129,3.224c-0.797,0-1.534-1.405-2.13-3.224
		c-0.884,0.421-1.458,1.199-1.458,2.499c0,2.172,1.606,10.832,3.587,10.833c1.982-0.001,3.589-8.662,3.589-10.833
		C31.899,41.609,31.323,40.831,30.44,40.41z"/>
</g>
</svg>
