<?xml version="1.0" encoding="utf-8"?>
<!-- Generator: Adobe Illustrator 17.0.0, SVG Export Plug-In . SVG Version: 6.00 Build 0)  -->
<!DOCTYPE svg PUBLIC "-//W3C//DTD SVG 1.1//EN" "http://www.w3.org/Graphics/SVG/1.1/DTD/svg11.dtd">
<svg version="1.1" id="Layer_1" xmlns="http://www.w3.org/2000/svg" xmlns:xlink="http://www.w3.org/1999/xlink" x="0px" y="0px"
	 width="56.693px" height="56.693px" viewBox="0 0 56.693 56.693" enable-background="new 0 0 56.693 56.693" xml:space="preserve">
<g>
	<path fill="#474A56" d="M53.605,18.863c-0.637-3.607-2.181-6.645-4.473-8.939c-2.291-2.291-5.327-3.832-8.937-4.472
		c-0.425-0.076-0.972,0.261-1.221,0.745c-0.254,0.483-0.113,0.937,0.309,1.012l-0.004,0.003c3.385,0.597,6.222,2.047,8.369,4.194
		c2.149,2.149,3.601,4.988,4.196,8.372c0.072,0.424,0.528,0.562,1.019,0.306c0.132-0.07,0.253-0.161,0.355-0.265
		C53.498,19.541,53.657,19.169,53.605,18.863z"/>
	<path fill="#474A56" d="M44.994,14.043c-1.352-1.352-3.031-2.379-4.981-2.995c-0.396-0.125-0.952,0.16-1.245,0.632
		c-0.296,0.471-0.217,0.961,0.177,1.086c1.784,0.567,3.328,1.508,4.574,2.754c1.25,1.253,2.193,2.812,2.773,4.611
		c0.125,0.392,0.614,0.472,1.088,0.174c0.099-0.062,0.188-0.134,0.268-0.214c0.309-0.306,0.467-0.724,0.368-1.037
		C47.38,17.104,46.357,15.405,44.994,14.043z"/>
	<path fill="#474A56" d="M17.931,7.213l-0.005-0.003c0.422-0.075,0.562-0.528,0.308-1.012c-0.248-0.484-0.795-0.821-1.22-0.745
		c-3.609,0.64-6.646,2.181-8.938,4.472c-2.293,2.293-3.837,5.332-4.474,8.939C3.55,19.169,3.71,19.541,3.99,19.82
		c0.102,0.104,0.224,0.194,0.355,0.265c0.49,0.256,0.945,0.118,1.018-0.306c0.596-3.384,2.047-6.223,4.196-8.372
		C11.708,9.26,14.545,7.809,17.931,7.213z"/>
	<path fill="#474A56" d="M18.439,11.681c-0.291-0.473-0.849-0.758-1.243-0.632c-1.951,0.616-3.63,1.643-4.982,2.995
		c-1.361,1.362-2.385,3.061-3.021,5.012c-0.1,0.314,0.06,0.731,0.368,1.037c0.078,0.08,0.168,0.152,0.268,0.214
		c0.474,0.297,0.963,0.218,1.088-0.174c0.58-1.799,1.523-3.358,2.773-4.611c1.246-1.246,2.79-2.186,4.574-2.754
		C18.656,12.641,18.735,12.152,18.439,11.681z"/>
	<path fill="#474A56" d="M28.563,21.908c-7.977,0-14.465,6.489-14.465,14.464c0,4.496,2.121,8.755,5.696,11.49
		c-0.008,0.018-0.016,0.036-0.024,0.054l-1.521,3.49c-0.362,0.833,0,1.8,0.812,2.154l0.168,0.074
		c0.795,0.347,1.776-0.056,2.132-0.867l1.384-3.165c3.689,1.635,7.907,1.643,11.607,0.014l0.942,3.046
		c0.217,0.699,0.841,1.168,1.555,1.168c0.16,0,0.316-0.023,0.465-0.07l0.178-0.054c0.403-0.124,0.734-0.4,0.936-0.778
		c0.204-0.393,0.245-0.845,0.11-1.271l-1.126-3.637c-0.016-0.058-0.038-0.115-0.064-0.171c3.565-2.732,5.679-6.987,5.679-11.476
		C43.027,28.397,36.539,21.908,28.563,21.908z M29.837,36.273c0,0.392-0.162,0.767-0.447,1.036l-5.735,5.411
		c-0.275,0.26-0.627,0.389-0.978,0.389c-0.379,0-0.757-0.15-1.037-0.447c-0.541-0.572-0.514-1.474,0.058-2.014l5.288-4.989v-9.26
		c0-0.787,0.638-1.425,1.425-1.425s1.425,0.638,1.425,1.425V36.273z"/>
	<path fill="#474A56" d="M15.512,24.567c0,0,0.002,0,0.002,0c0.163,0,0.316-0.081,0.409-0.215c0.024-0.034,2.378-3.36,7.426-4.768
		c0.157-0.043,0.282-0.161,0.337-0.314c0.054-0.153,0.031-0.323-0.063-0.456c-0.081-0.115-2.029-2.828-4.767-2.828
		c-0.877,0-1.735,0.281-2.549,0.835c-1.329,0.903-2.119,2.004-2.35,3.272c-0.344,1.892,0.688,3.61,1.147,4.262
		C15.197,24.488,15.349,24.567,15.512,24.567z"/>
	<path fill="#474A56" d="M40.671,16.822c-0.814-0.555-1.672-0.835-2.549-0.835c-2.741,0-4.689,2.712-4.771,2.828
		c-0.094,0.133-0.117,0.303-0.063,0.456c0.055,0.153,0.18,0.27,0.337,0.314c5.029,1.402,7.406,4.735,7.429,4.769
		c0.093,0.134,0.246,0.214,0.409,0.214c0,0,0,0,0.001,0c0.163,0,0.316-0.079,0.409-0.212c0.459-0.652,1.49-2.373,1.145-4.264
		C42.787,18.824,41.998,17.724,40.671,16.822z"/>
</g>
</svg>
