<?xml version="1.0" encoding="utf-8"?>
<!-- Generator: Adobe Illustrator 17.0.0, SVG Export Plug-In . SVG Version: 6.00 Build 0)  -->
<!DOCTYPE svg PUBLIC "-//W3C//DTD SVG 1.1//EN" "http://www.w3.org/Graphics/SVG/1.1/DTD/svg11.dtd">
<svg version="1.1" id="Layer_1" xmlns="http://www.w3.org/2000/svg" xmlns:xlink="http://www.w3.org/1999/xlink" x="0px" y="0px"
	 width="56.693px" height="56.693px" viewBox="0 0 56.693 56.693" enable-background="new 0 0 56.693 56.693" xml:space="preserve">
<path fill="#474A56" d="M53.51,15.392c-0.004-0.071-0.01-0.141-0.021-0.212c-0.012-0.069-0.027-0.136-0.046-0.204
	c-0.01-0.036-0.013-0.072-0.024-0.108l-3-9.005c-0.272-0.817-1.036-1.368-1.897-1.368H8.367c-0.861,0-1.625,0.551-1.898,1.368
	l-3,9.005c-0.012,0.036-0.015,0.072-0.024,0.108c-0.019,0.067-0.034,0.134-0.046,0.204c-0.012,0.071-0.018,0.142-0.021,0.212
	c-0.002,0.037-0.011,0.071-0.011,0.108v10.005c0,1.104,0.896,2,2,2h0.324V52.39c0,1.104,0.896,2,2,2h41.508c1.104,0,2-0.896,2-2
	V27.505h0.322c1.104,0,2-0.896,2-2V15.5C53.521,15.463,53.512,15.429,53.51,15.392z M7.691,23.505H7.367V16.85h42.154v6.655h-0.322
	H7.691z M9.808,8.495H47.08l1.884,5.655H7.924L9.808,8.495z M47.199,50.39H9.691V27.505h10.956v3.176c0,1.104,0.896,2,2,2H34.24
	c1.104,0,2-0.896,2-2v-3.176h10.959V50.39z"/>
</svg>
