<?xml version="1.0" encoding="utf-8"?>
<!-- Generator: Adobe Illustrator 17.0.0, SVG Export Plug-In . SVG Version: 6.00 Build 0)  -->
<!DOCTYPE svg PUBLIC "-//W3C//DTD SVG 1.1//EN" "http://www.w3.org/Graphics/SVG/1.1/DTD/svg11.dtd">
<svg version="1.1" id="Layer_1" xmlns="http://www.w3.org/2000/svg" xmlns:xlink="http://www.w3.org/1999/xlink" x="0px" y="0px"
	 width="56.693px" height="56.693px" viewBox="0 0 56.693 56.693" enable-background="new 0 0 56.693 56.693" xml:space="preserve">
<g>
	<path fill="#474A56" d="M20.595,16.339c-0.627,0.625-0.627,1.637-0.002,2.264c0.627,0.627,1.641,0.627,2.267,0.002
		c3.024-3.023,7.944-3.02,10.966,0.004c0.626,0.625,1.639,0.627,2.266,0.002c0.627-0.625,0.627-1.639,0.002-2.266
		C31.822,12.071,24.87,12.067,20.595,16.339z"/>
	<path fill="#474A56" d="M41.885,10.558c-7.462-7.467-19.608-7.473-27.077-0.012c-0.624,0.623-0.625,1.637,0,2.264
		c0.625,0.627,1.639,0.629,2.267,0.002c6.218-6.213,16.331-6.205,22.544,0.01c0.625,0.629,1.641,0.627,2.266,0.004
		C42.509,12.2,42.509,11.185,41.885,10.558z"/>
	<path fill="#474A56" d="M33.483,23.261H23.212c-1.104,0-2,0.896-2,2v27.145c0,1.104,0.895,2,2,2h10.272c1.104,0,2-0.896,2-2V25.261
		C35.483,24.156,34.588,23.261,33.483,23.261z M28.344,35.692c-2.377,0-4.311-1.935-4.311-4.313c0-2.377,1.934-4.311,4.311-4.311
		c2.377,0,4.311,1.934,4.311,4.311C32.654,33.758,30.72,35.692,28.344,35.692z"/>
	<path fill="#474A56" d="M28.344,28.768c-1.439,0-2.611,1.172-2.611,2.611c0,1.44,1.172,2.613,2.611,2.613
		c1.439,0,2.611-1.173,2.611-2.613C30.955,29.94,29.783,28.768,28.344,28.768z"/>
</g>
</svg>
