<?xml version="1.0" encoding="utf-8"?>
<!-- Generator: Adobe Illustrator 17.0.0, SVG Export Plug-In . SVG Version: 6.00 Build 0)  -->
<!DOCTYPE svg PUBLIC "-//W3C//DTD SVG 1.1//EN" "http://www.w3.org/Graphics/SVG/1.1/DTD/svg11.dtd">
<svg version="1.1" id="Layer_1" xmlns="http://www.w3.org/2000/svg" xmlns:xlink="http://www.w3.org/1999/xlink" x="0px" y="0px"
	 width="56.693px" height="56.693px" viewBox="0 0 56.693 56.693" enable-background="new 0 0 56.693 56.693" xml:space="preserve">
<g>
	<path fill="#474A56" d="M42.587,18.494c1.302-0.014,1.348-0.022,1.4-0.031c0.216-0.038,0.426-0.151,0.589-0.316l2.815-2.815
		c0.17-0.17,0.283-0.383,0.316-0.592c0.047-0.276-0.03-0.539-0.212-0.72l-3.284-3.282c-0.145-0.149-0.348-0.231-0.57-0.231
		c-0.027,0-0.124,0.008-0.15,0.012c-0.22,0.036-0.433,0.15-0.596,0.316l-2.816,2.814c-0.167,0.167-0.28,0.378-0.318,0.603
		c-0.007,0.047-0.017,0.109-0.024,1.926c-2.452-1.662-5.249-2.786-8.165-3.278V9.532h1.185c0.24,0,0.47-0.071,0.635-0.192
		c0.233-0.16,0.366-0.402,0.366-0.664V4.027c0-0.256-0.13-0.496-0.354-0.656c-0.178-0.129-0.408-0.2-0.647-0.2h-9.277
		c-0.238,0-0.467,0.07-0.646,0.199c-0.225,0.163-0.354,0.402-0.354,0.656v4.648c0,0.256,0.13,0.497,0.362,0.663
		c0.18,0.125,0.406,0.194,0.638,0.194h1.187V12.9C14.772,14.57,7.362,23.282,7.362,33.342c0,11.446,9.312,20.759,20.759,20.759
		c11.445,0,20.756-9.312,20.756-20.759C48.877,27.743,46.599,22.4,42.587,18.494z M28.121,49.976
		c-9.172,0-16.634-7.462-16.634-16.634c0-9.171,7.462-16.632,16.634-16.632c9.171,0,16.632,7.461,16.632,16.632
		C44.753,42.514,37.292,49.976,28.121,49.976z"/>
	<path fill="#474A56" d="M34.941,24.025l-8.148,8.147c-0.677,0.677-0.677,1.78,0,2.46c0.329,0.327,0.765,0.507,1.229,0.507
		c0.464,0,0.9-0.181,1.228-0.508l8.149-8.149c0.676-0.679,0.675-1.781-0.001-2.457C36.743,23.367,35.596,23.368,34.941,24.025z"/>
</g>
</svg>
