<?xml version="1.0" encoding="utf-8"?>
<!-- Generator: Adobe Illustrator 17.0.0, SVG Export Plug-In . SVG Version: 6.00 Build 0)  -->
<!DOCTYPE svg PUBLIC "-//W3C//DTD SVG 1.1//EN" "http://www.w3.org/Graphics/SVG/1.1/DTD/svg11.dtd">
<svg version="1.1" id="Layer_1" xmlns="http://www.w3.org/2000/svg" xmlns:xlink="http://www.w3.org/1999/xlink" x="0px" y="0px"
	 width="56.693px" height="56.693px" viewBox="0 0 56.693 56.693" enable-background="new 0 0 56.693 56.693" xml:space="preserve">
<g>
	<path fill="#474A56" d="M8.971,15.257h38.955v24.426h3.471v-26.16c0-0.959-0.777-1.736-1.735-1.736H7.236
		c-0.959,0-1.736,0.777-1.736,1.736v26.16h3.472V15.257z"/>
	<path fill="#474A56" d="M31.137,42.614v0.659c0,0.521-0.423,0.942-0.943,0.942h-3.49c-0.521,0-0.943-0.422-0.943-0.942v-0.659H3.5
		v3.161c0,0.959,0.777,1.735,1.735,1.735h46.426c0.959,0,1.736-0.776,1.736-1.735v-3.161H31.137z"/>
	<path fill="#474A56" d="M30.73,31.413l-5.482-5.477c-0.21,0.308-0.476,0.572-0.781,0.782l5.482,5.476
		C30.157,31.887,30.422,31.623,30.73,31.413z"/>
	<path fill="#474A56" d="M34.747,32.129l5.466-5.781c-0.315-0.201-0.587-0.456-0.807-0.755l-5.46,5.777
		C34.259,31.571,34.53,31.828,34.747,32.129z"/>
	<path fill="#474A56" d="M17.65,29.254l3.306-2.716c-0.285-0.237-0.522-0.526-0.701-0.853l-3.279,2.693
		C17.252,28.625,17.479,28.919,17.65,29.254z"/>
	<path fill="#474A56" d="M22.821,22.463c-1.009,0-1.828,0.819-1.828,1.828c0,0.239,0.05,0.467,0.134,0.678
		c0.14,0.352,0.385,0.649,0.699,0.854c0.287,0.187,0.627,0.297,0.995,0.297c0.303,0,0.583-0.082,0.836-0.212
		c0.336-0.174,0.606-0.446,0.779-0.783c0.132-0.25,0.212-0.531,0.212-0.834C24.648,23.283,23.829,22.463,22.821,22.463z"/>
	<path fill="#474A56" d="M32.375,35.665c1.008,0,1.827-0.817,1.827-1.826c0-0.323-0.091-0.62-0.236-0.882
		c-0.182-0.33-0.46-0.596-0.802-0.761c-0.239-0.115-0.505-0.186-0.789-0.186c-0.304,0-0.585,0.082-0.836,0.213
		c-0.337,0.173-0.609,0.444-0.782,0.781c-0.13,0.25-0.21,0.532-0.21,0.835C30.547,34.848,31.364,35.665,32.375,35.665z"/>
	<path fill="#474A56" d="M40.992,25.522c0.239,0.112,0.5,0.18,0.78,0.18c1.009,0,1.826-0.819,1.826-1.829
		c0-1.01-0.817-1.827-1.826-1.827c-1.01,0-1.828,0.817-1.828,1.827c0,0.327,0.092,0.628,0.241,0.892
		C40.372,25.096,40.651,25.359,40.992,25.522z"/>
	<path fill="#474A56" d="M16.109,29.088c-0.299-0.218-0.668-0.351-1.068-0.351c-1.011,0-1.828,0.818-1.828,1.828
		c0,1.009,0.817,1.829,1.828,1.829c1.009,0,1.826-0.82,1.826-1.829c0-0.205-0.04-0.399-0.103-0.582
		C16.641,29.62,16.412,29.309,16.109,29.088z"/>
</g>
</svg>
