<?xml version="1.0" encoding="utf-8"?>
<!-- Generator: Adobe Illustrator 17.0.0, SVG Export Plug-In . SVG Version: 6.00 Build 0)  -->
<!DOCTYPE svg PUBLIC "-//W3C//DTD SVG 1.1//EN" "http://www.w3.org/Graphics/SVG/1.1/DTD/svg11.dtd">
<svg version="1.1" id="Layer_1" xmlns="http://www.w3.org/2000/svg" xmlns:xlink="http://www.w3.org/1999/xlink" x="0px" y="0px"
	 width="56.693px" height="56.693px" viewBox="0 0 56.693 56.693" enable-background="new 0 0 56.693 56.693" xml:space="preserve">
<path fill="#474A56" d="M52.302,9.846L47.332,4.52c-0.086-0.092-0.206-0.145-0.333-0.145L12.17,4.374c-0.013,0-0.026,0-0.04,0.002
	H7.177C5.58,4.381,4.275,5.712,4.268,7.34v44.107c0.007,1.623,1.312,2.949,2.911,2.959h42.34h0.002
	c1.595-0.01,2.897-1.336,2.904-2.961V10.157C52.425,10.042,52.382,9.93,52.302,9.846z M31.64,8.063h3.693v10.652H31.64V8.063z
	 M42.489,51.344H14.591V29.311l0.412-0.416h27.23l0.255,0.121V51.344z M49.358,51.344h-3.804V27.362
	c0-0.178-0.103-0.338-0.263-0.414l-2.282-1.064c-0.062-0.029-0.127-0.043-0.193-0.043H13.919c-0.12,0-0.236,0.049-0.321,0.133
	l-1.939,1.941c-0.084,0.086-0.133,0.201-0.133,0.322v23.107H7.333V7.436h2.537l0.139,1.555c0.015,0.168,0.12,0.312,0.275,0.379
	c0.154,0.066,0.333,0.041,0.463-0.062l2.329-1.863h4.124l0.083,13.357c0.001,0.121,0.049,0.236,0.135,0.32l0.634,0.631
	c0.086,0.086,0.201,0.133,0.322,0.133h20.514c0.054,0,0.104-0.01,0.152-0.027l1.267-0.449c0.182-0.065,0.304-0.236,0.304-0.428
	V7.444l5.705,0.004l3.041,3.172V51.344z"/>
</svg>
